{"glyphs":{"0":{"ha":833,"x_min":71,"x_max":763,"o":"m 417 -11 q 159 117 247 -11 q 71 494 71 246 q 158 872 71 743 q 417 1000 246 1000 q 675 872 588 1000 q 763 496 763 743 q 674 118 763 247 q 417 -11 586 -11 m 417 85 q 591 185 535 85 q 647 496 647 285 q 591 805 647 707 q 417 903 535 903 q 242 804 299 903 q 186 496 186 706 q 242 185 186 285 q 417 85 299 85 z "},"1":{"ha":833,"x_min":178,"x_max":729,"o":"m 396 51 l 396 922 l 461 889 l 193 718 l 193 828 l 446 989 l 511 989 l 511 51 l 396 51 m 178 0 l 178 96 l 729 96 l 729 0 l 178 0 z "},"2":{"ha":833,"x_min":89,"x_max":751,"o":"m 115 0 l 115 86 l 461 469 q 563 610 531 547 q 594 735 594 672 q 547 860 594 817 q 413 904 500 904 q 271 876 340 904 q 132 790 201 847 l 89 878 q 236 967 147 933 q 415 1000 325 1000 q 572 969 506 1000 q 674 879 638 938 q 710 740 710 821 q 672 577 710 656 q 544 401 633 499 l 211 40 l 203 96 l 751 96 l 751 0 l 115 0 z "},"3":{"ha":833,"x_min":74,"x_max":732,"o":"m 407 -10 q 223 22 311 -10 q 74 113 135 54 l 118 200 q 256 115 185 143 q 404 86 326 86 q 565 133 510 86 q 619 272 619 181 q 563 409 619 364 q 392 454 506 454 l 278 454 l 278 550 l 369 550 q 538 599 479 550 q 596 738 596 647 q 548 861 596 818 q 413 904 500 904 q 269 876 339 904 q 132 790 200 847 l 89 878 q 236 967 149 935 q 417 1000 324 1000 q 572 969 506 1000 q 674 881 639 938 q 710 746 710 824 q 662 590 710 654 q 531 501 614 525 l 526 515 q 679 431 626 494 q 732 268 732 367 q 644 65 732 139 q 407 -10 557 -10 z "},"4":{"ha":833,"x_min":68,"x_max":788,"o":"m 524 0 l 524 846 l 558 846 l 147 253 l 149 310 l 788 310 l 788 215 l 68 215 l 68 301 l 544 989 l 638 989 l 638 0 l 524 0 z "},"5":{"ha":833,"x_min":107,"x_max":767,"o":"m 432 -10 q 254 23 342 -10 q 107 113 167 56 l 150 200 q 288 115 218 144 q 432 86 358 86 q 595 145 536 86 q 654 306 654 204 q 628 420 654 371 q 553 497 601 469 q 440 525 506 525 q 313 497 369 525 q 214 410 257 468 l 135 410 l 135 989 l 728 989 l 728 894 l 249 894 l 249 494 l 213 499 q 316 589 253 557 q 458 621 379 621 q 622 581 553 621 q 729 471 692 542 q 767 307 767 400 q 726 142 767 214 q 610 31 685 71 q 432 -10 535 -10 z "},"6":{"ha":833,"x_min":75,"x_max":767,"o":"m 449 -11 q 172 113 269 -11 q 75 469 75 238 q 120 756 75 638 q 251 938 165 875 q 456 1000 336 1000 q 622 969 542 1000 q 765 878 703 938 l 722 790 q 588 877 653 850 q 458 904 524 904 q 260 791 331 904 q 189 471 189 678 l 189 351 l 172 389 q 224 512 183 460 q 324 592 264 564 q 458 621 385 621 q 619 581 550 621 q 728 471 689 542 q 767 307 767 400 q 726 143 767 215 q 613 30 685 71 q 449 -11 542 -11 m 443 85 q 596 145 538 85 q 654 306 654 206 q 596 465 654 404 q 442 525 538 525 q 328 497 378 525 q 250 419 278 468 q 222 306 222 369 q 250 190 222 239 q 328 113 278 140 q 443 85 378 85 z "},"7":{"ha":833,"x_min":90,"x_max":743,"o":"m 279 0 l 157 0 l 642 939 l 651 893 l 90 893 l 90 989 l 743 989 l 743 904 l 279 0 z "},"8":{"ha":833,"x_min":63,"x_max":771,"o":"m 417 -10 q 229 23 308 -10 q 106 117 150 56 q 63 263 63 178 q 132 433 63 365 q 318 518 201 501 l 311 497 q 144 582 203 518 q 85 738 85 646 q 127 877 85 818 q 244 968 169 936 q 417 1000 318 1000 q 590 968 515 1000 q 706 877 664 936 q 749 738 749 818 q 690 581 749 646 q 524 497 631 517 l 515 518 q 703 433 636 501 q 771 263 771 364 q 727 117 771 178 q 604 23 683 56 q 417 -10 525 -10 m 417 85 q 596 132 533 85 q 658 269 658 179 q 590 402 658 354 q 417 461 522 450 q 243 402 311 450 q 175 269 175 354 q 238 132 175 179 q 417 85 300 85 m 417 540 q 574 600 514 551 q 635 729 635 649 q 577 859 635 813 q 417 906 519 906 q 256 859 314 906 q 199 729 199 813 q 259 600 199 649 q 417 540 319 551 z "},"9":{"ha":833,"x_min":68,"x_max":760,"o":"m 386 1000 q 663 876 565 1000 q 760 519 760 751 q 715 233 760 351 q 584 51 669 114 q 378 -11 499 -11 q 212 20 293 -11 q 68 111 131 51 l 113 199 q 247 112 183 139 q 376 85 311 85 q 574 198 504 85 q 644 518 644 311 l 644 638 l 663 601 q 611 477 651 529 q 510 397 571 425 q 375 368 449 368 q 215 408 285 368 q 107 518 146 447 q 68 682 68 589 q 109 846 68 774 q 222 959 150 918 q 386 1000 294 1000 m 392 904 q 238 844 296 904 q 181 683 181 783 q 239 524 181 585 q 393 464 297 464 q 507 492 457 464 q 585 570 557 521 q 613 683 613 619 q 585 799 613 750 q 507 876 557 849 q 392 904 457 904 z "},"A":{"ha":1019,"x_min":25,"x_max":994,"o":"m 143 0 l 25 0 l 460 989 l 560 989 l 994 0 l 878 0 l 490 906 l 532 906 l 143 0 m 210 254 l 250 349 l 769 349 l 810 254 l 210 254 z "},"Á":{"ha":1019,"x_min":25,"x_max":994,"o":"m 143 0 l 25 0 l 460 989 l 560 989 l 994 0 l 878 0 l 490 906 l 532 906 l 143 0 m 210 254 l 250 349 l 769 349 l 810 254 l 210 254 m 549 1074 l 469 1074 l 611 1286 l 735 1286 l 549 1074 z "},"Ă":{"ha":1019,"x_min":25,"x_max":994,"o":"m 143 0 l 25 0 l 460 989 l 560 989 l 994 0 l 878 0 l 490 906 l 532 906 l 143 0 m 210 254 l 250 349 l 769 349 l 810 254 l 210 254 m 510 1090 q 374 1124 436 1090 q 281 1239 313 1157 l 351 1269 q 424 1190 385 1210 q 510 1171 463 1171 q 595 1190 557 1171 q 667 1269 633 1210 l 738 1239 q 643 1124 704 1157 q 510 1090 582 1090 z "},"Ắ":{"ha":1019,"x_min":25,"x_max":994,"o":"m 143 0 l 25 0 l 460 989 l 560 989 l 994 0 l 878 0 l 490 906 l 532 906 l 143 0 m 210 254 l 250 349 l 769 349 l 810 254 l 210 254 m 510 1067 q 374 1100 436 1067 q 281 1215 313 1133 l 346 1243 q 420 1163 379 1185 q 510 1142 461 1142 q 598 1163 557 1142 q 672 1243 639 1185 l 738 1215 q 643 1100 704 1133 q 510 1067 582 1067 m 547 1218 l 471 1218 l 611 1415 l 731 1415 l 547 1218 z "},"Ặ":{"ha":1019,"x_min":25,"x_max":994,"o":"m 143 0 l 25 0 l 460 989 l 560 989 l 994 0 l 878 0 l 490 906 l 532 906 l 143 0 m 210 254 l 250 349 l 769 349 l 810 254 l 210 254 m 446 -132 l 575 -132 l 575 -256 l 446 -256 l 446 -132 m 510 1090 q 374 1124 436 1090 q 281 1239 313 1157 l 351 1269 q 424 1190 385 1210 q 510 1171 463 1171 q 595 1190 557 1171 q 667 1269 633 1210 l 738 1239 q 643 1124 704 1157 q 510 1090 582 1090 z "},"Ằ":{"ha":1019,"x_min":25,"x_max":994,"o":"m 143 0 l 25 0 l 460 989 l 560 989 l 994 0 l 878 0 l 490 906 l 532 906 l 143 0 m 210 254 l 250 349 l 769 349 l 810 254 l 210 254 m 510 1067 q 375 1100 436 1067 q 281 1215 314 1133 l 346 1243 q 420 1163 379 1185 q 510 1142 461 1142 q 598 1163 557 1142 q 672 1243 639 1185 l 738 1215 q 644 1100 706 1133 q 510 1067 582 1067 m 471 1218 l 288 1415 l 407 1415 l 547 1218 l 471 1218 z "},"Ẳ":{"ha":1019,"x_min":25,"x_max":994,"o":"m 143 0 l 25 0 l 460 989 l 560 989 l 994 0 l 878 0 l 490 906 l 532 906 l 143 0 m 210 254 l 250 349 l 769 349 l 810 254 l 210 254 m 510 1067 q 375 1100 436 1067 q 281 1215 314 1133 l 346 1243 q 420 1163 379 1185 q 510 1142 461 1142 q 598 1163 557 1142 q 672 1243 639 1185 l 738 1215 q 644 1100 706 1133 q 510 1067 582 1067 m 547 1231 l 547 1218 l 472 1218 l 472 1242 q 486 1278 472 1265 q 519 1298 500 1290 q 552 1312 538 1306 q 567 1331 567 1318 q 552 1350 567 1343 q 510 1357 538 1357 q 469 1353 490 1357 q 424 1340 449 1350 l 404 1399 q 458 1417 429 1410 q 518 1424 488 1424 q 619 1399 583 1424 q 656 1335 656 1374 q 639 1295 656 1308 q 601 1274 622 1282 q 564 1256 581 1265 q 547 1231 547 1247 z "},"Ẵ":{"ha":1019,"x_min":25,"x_max":994,"o":"m 143 0 l 25 0 l 460 989 l 560 989 l 994 0 l 878 0 l 490 906 l 532 906 l 143 0 m 210 254 l 250 349 l 769 349 l 810 254 l 210 254 m 510 1067 q 375 1100 436 1067 q 281 1215 314 1133 l 346 1243 q 420 1163 379 1185 q 510 1142 461 1142 q 598 1163 557 1142 q 672 1243 639 1185 l 738 1215 q 644 1100 706 1133 q 510 1067 582 1067 m 283 1282 q 299 1358 283 1326 q 343 1408 315 1390 q 408 1426 371 1426 q 483 1408 447 1426 q 549 1372 518 1390 q 607 1354 581 1354 q 656 1375 639 1354 q 672 1422 672 1396 l 735 1422 q 719 1348 735 1381 q 675 1297 703 1315 q 610 1278 647 1278 q 535 1297 571 1278 q 469 1333 500 1315 q 411 1351 438 1351 q 363 1331 379 1351 q 346 1282 346 1310 l 283 1282 z "},"Â":{"ha":1019,"x_min":25,"x_max":994,"o":"m 143 0 l 25 0 l 460 989 l 560 989 l 994 0 l 878 0 l 490 906 l 532 906 l 143 0 m 210 254 l 250 349 l 769 349 l 810 254 l 210 254 m 407 1074 l 304 1074 l 471 1286 l 547 1286 l 714 1074 l 611 1074 l 510 1218 l 407 1074 z "},"Ấ":{"ha":1019,"x_min":25,"x_max":994,"o":"m 143 0 l 25 0 l 460 989 l 560 989 l 994 0 l 878 0 l 490 906 l 532 906 l 143 0 m 210 254 l 250 349 l 769 349 l 810 254 l 210 254 m 407 1074 l 304 1074 l 471 1279 l 547 1279 l 714 1074 l 611 1074 l 510 1213 l 407 1074 m 697 1218 l 628 1218 l 756 1415 l 875 1415 l 697 1218 z "},"Ậ":{"ha":1019,"x_min":25,"x_max":994,"o":"m 143 0 l 25 0 l 460 989 l 560 989 l 994 0 l 878 0 l 490 906 l 532 906 l 143 0 m 210 254 l 250 349 l 769 349 l 810 254 l 210 254 m 446 -132 l 575 -132 l 575 -256 l 446 -256 l 446 -132 m 407 1074 l 304 1074 l 471 1286 l 547 1286 l 714 1074 l 611 1074 l 510 1218 l 407 1074 z "},"Ầ":{"ha":1019,"x_min":25,"x_max":994,"o":"m 143 0 l 25 0 l 460 989 l 560 989 l 994 0 l 878 0 l 490 906 l 532 906 l 143 0 m 210 254 l 250 349 l 769 349 l 810 254 l 210 254 m 407 1074 l 304 1074 l 471 1279 l 547 1279 l 714 1074 l 611 1074 l 510 1213 l 407 1074 m 688 1218 l 531 1415 l 649 1415 l 757 1218 l 688 1218 z "},"Ẩ":{"ha":1019,"x_min":25,"x_max":994,"o":"m 143 0 l 25 0 l 460 989 l 560 989 l 994 0 l 878 0 l 490 906 l 532 906 l 143 0 m 210 254 l 250 349 l 769 349 l 810 254 l 210 254 m 407 1074 l 304 1074 l 471 1279 l 547 1279 l 714 1074 l 611 1074 l 510 1213 l 407 1074 m 701 1231 l 701 1218 l 626 1218 l 626 1242 q 640 1278 626 1265 q 673 1298 654 1290 q 706 1312 692 1306 q 721 1331 721 1318 q 706 1350 721 1343 q 664 1357 692 1357 q 624 1353 644 1357 q 578 1340 603 1350 l 558 1399 q 613 1417 583 1410 q 672 1424 642 1424 q 774 1399 738 1424 q 811 1335 811 1374 q 794 1295 811 1308 q 756 1274 778 1282 q 718 1256 735 1265 q 701 1231 701 1247 z "},"Ẫ":{"ha":1019,"x_min":25,"x_max":994,"o":"m 143 0 l 25 0 l 460 989 l 560 989 l 994 0 l 878 0 l 490 906 l 532 906 l 143 0 m 210 254 l 250 349 l 769 349 l 810 254 l 210 254 m 407 1074 l 304 1074 l 471 1279 l 547 1279 l 714 1074 l 611 1074 l 510 1213 l 407 1074 m 283 1300 q 299 1372 283 1340 q 343 1420 315 1403 q 408 1438 371 1438 q 483 1423 447 1438 q 549 1393 518 1408 q 607 1378 581 1378 q 656 1397 639 1378 q 672 1440 672 1417 l 735 1440 q 719 1369 735 1400 q 675 1319 703 1338 q 610 1301 647 1301 q 535 1317 571 1301 q 469 1347 500 1332 q 411 1363 438 1363 q 363 1343 379 1363 q 346 1300 346 1324 l 283 1300 z "},"Ȁ":{"ha":1019,"x_min":25,"x_max":994,"o":"m 143 0 l 25 0 l 460 989 l 560 989 l 994 0 l 878 0 l 490 906 l 532 906 l 143 0 m 210 254 l 250 349 l 769 349 l 810 254 l 210 254 m 563 1074 l 425 1286 l 525 1286 l 624 1074 l 563 1074 m 394 1074 l 258 1286 l 356 1286 l 456 1074 l 394 1074 z "},"Ä":{"ha":1019,"x_min":25,"x_max":994,"o":"m 143 0 l 25 0 l 460 989 l 560 989 l 994 0 l 878 0 l 490 906 l 532 906 l 143 0 m 210 254 l 250 349 l 769 349 l 810 254 l 210 254 m 567 1240 l 692 1240 l 692 1121 l 567 1121 l 567 1240 m 326 1240 l 451 1240 l 451 1121 l 326 1121 l 326 1240 z "},"Ạ":{"ha":1019,"x_min":25,"x_max":994,"o":"m 143 0 l 25 0 l 460 989 l 560 989 l 994 0 l 878 0 l 490 906 l 532 906 l 143 0 m 210 254 l 250 349 l 769 349 l 810 254 l 210 254 m 446 -132 l 575 -132 l 575 -256 l 446 -256 l 446 -132 z "},"À":{"ha":1019,"x_min":25,"x_max":994,"o":"m 143 0 l 25 0 l 460 989 l 560 989 l 994 0 l 878 0 l 490 906 l 532 906 l 143 0 m 210 254 l 250 349 l 769 349 l 810 254 l 210 254 m 469 1074 l 283 1286 l 407 1286 l 549 1074 l 469 1074 z "},"Ả":{"ha":1019,"x_min":25,"x_max":994,"o":"m 143 0 l 25 0 l 460 989 l 560 989 l 994 0 l 878 0 l 490 906 l 532 906 l 143 0 m 210 254 l 250 349 l 769 349 l 810 254 l 210 254 m 547 1088 l 547 1074 l 472 1074 l 472 1099 q 486 1136 472 1122 q 519 1159 500 1150 q 552 1177 538 1168 q 567 1199 567 1186 q 552 1218 567 1211 q 510 1225 538 1225 q 469 1222 490 1225 q 424 1208 449 1218 l 404 1268 q 458 1285 429 1279 q 518 1292 488 1292 q 619 1267 583 1292 q 656 1203 656 1242 q 639 1160 656 1175 q 601 1135 622 1144 q 564 1115 581 1125 q 547 1088 547 1104 z "},"Ȃ":{"ha":1019,"x_min":25,"x_max":994,"o":"m 143 0 l 25 0 l 460 989 l 560 989 l 994 0 l 878 0 l 490 906 l 532 906 l 143 0 m 210 254 l 250 349 l 769 349 l 810 254 l 210 254 m 510 1271 q 644 1237 582 1271 q 738 1122 706 1203 l 667 1092 q 595 1170 633 1150 q 510 1190 557 1190 q 424 1170 463 1190 q 351 1092 385 1150 l 281 1122 q 375 1237 314 1203 q 510 1271 436 1271 z "},"Ā":{"ha":1019,"x_min":25,"x_max":994,"o":"m 143 0 l 25 0 l 460 989 l 560 989 l 994 0 l 878 0 l 490 906 l 532 906 l 143 0 m 210 254 l 250 349 l 769 349 l 810 254 l 210 254 m 299 1138 l 299 1224 l 719 1224 l 719 1138 l 299 1138 z "},"Ą":{"ha":1019,"x_min":25,"x_max":1042,"o":"m 210 254 l 250 349 l 769 349 l 810 254 l 210 254 m 1018 -172 l 1042 -239 q 988 -262 1018 -253 q 922 -271 957 -271 q 803 -229 849 -271 q 757 -124 757 -187 q 797 -15 757 -62 q 910 51 836 32 l 878 0 l 490 906 l 532 906 l 143 0 l 25 0 l 460 989 l 560 989 l 994 0 l 968 0 q 876 -32 906 0 q 846 -108 846 -64 q 871 -174 846 -151 q 938 -196 896 -196 q 976 -190 956 -196 q 1018 -172 997 -185 z "},"Å":{"ha":1019,"x_min":25,"x_max":994,"o":"m 511 946 q 410 985 451 946 q 369 1085 369 1025 q 410 1183 369 1143 q 511 1224 451 1224 q 611 1183 569 1224 q 653 1085 653 1143 q 611 985 653 1025 q 511 946 569 946 m 511 1014 q 559 1034 540 1014 q 578 1085 578 1054 q 559 1134 578 1114 q 511 1154 540 1154 q 462 1134 481 1154 q 443 1085 443 1114 q 462 1034 443 1054 q 511 1014 481 1014 m 143 0 l 25 0 l 460 989 l 560 989 l 994 0 l 878 0 l 490 906 l 532 906 l 143 0 m 210 254 l 250 349 l 769 349 l 810 254 l 210 254 z "},"Ǻ":{"ha":1019,"x_min":25,"x_max":994,"o":"m 25 0 l 460 989 l 560 989 l 994 0 l 878 0 l 490 906 l 532 906 l 143 0 l 25 0 m 210 254 l 250 349 l 769 349 l 810 254 l 210 254 m 511 946 q 410 985 451 946 q 369 1085 369 1025 q 410 1183 369 1143 q 511 1224 451 1224 q 611 1183 569 1224 q 653 1085 653 1143 q 611 985 653 1025 q 511 946 569 946 m 511 1014 q 559 1034 540 1014 q 578 1085 578 1054 q 559 1134 578 1114 q 511 1154 540 1154 q 462 1134 481 1154 q 443 1085 443 1114 q 462 1034 443 1054 q 511 1014 481 1014 m 618 1146 l 561 1181 l 696 1319 l 824 1319 l 618 1146 z "},"Ã":{"ha":1019,"x_min":25,"x_max":994,"o":"m 143 0 l 25 0 l 460 989 l 560 989 l 994 0 l 878 0 l 490 906 l 532 906 l 143 0 m 210 254 l 250 349 l 769 349 l 810 254 l 210 254 m 283 1103 q 318 1222 283 1181 q 408 1264 353 1264 q 483 1244 447 1264 q 549 1203 518 1224 q 607 1183 581 1183 q 656 1206 639 1183 q 672 1260 672 1229 l 735 1260 q 700 1140 735 1182 q 610 1099 665 1099 q 535 1119 571 1099 q 469 1159 500 1139 q 411 1179 438 1179 q 363 1156 379 1179 q 346 1103 346 1133 l 283 1103 z "},"Æ":{"ha":1390,"x_min":-3,"x_max":1321,"o":"m -3 0 l 599 989 l 1321 989 l 1321 893 l 624 893 l 661 910 l 122 0 l -3 0 m 200 254 l 240 349 l 782 349 l 804 254 l 200 254 m 776 0 l 694 938 l 797 938 l 872 96 l 1321 96 l 1321 0 l 776 0 m 786 454 l 786 550 l 1293 550 l 1293 454 l 786 454 z "},"Ǽ":{"ha":1390,"x_min":-3,"x_max":1321,"o":"m -3 0 l 599 989 l 1321 989 l 1321 893 l 624 893 l 661 910 l 122 0 l -3 0 m 200 254 l 240 349 l 782 349 l 804 254 l 200 254 m 776 0 l 694 938 l 797 938 l 872 96 l 1321 96 l 1321 0 l 776 0 m 786 454 l 786 550 l 1293 550 l 1293 454 l 786 454 m 738 1074 l 658 1074 l 800 1286 l 924 1286 l 738 1074 z "},"B":{"ha":946,"x_min":122,"x_max":863,"o":"m 122 0 l 122 989 l 519 989 q 754 922 669 989 q 839 731 839 854 q 792 585 839 644 q 664 501 746 526 l 664 513 q 810 431 757 494 q 863 269 863 367 q 776 69 863 139 q 533 0 690 0 l 122 0 m 235 94 l 524 94 q 695 138 640 94 q 750 272 750 181 q 694 408 750 363 q 524 454 639 454 l 235 454 l 235 94 m 235 550 l 501 550 q 670 594 614 550 q 726 725 726 639 q 671 852 726 810 q 501 894 615 894 l 235 894 l 235 550 z "},"C":{"ha":950,"x_min":86,"x_max":881,"o":"m 544 -11 q 300 50 403 -11 q 142 225 197 111 q 86 496 86 339 q 142 765 86 653 q 300 939 197 878 q 544 1000 403 1000 q 732 969 646 1000 q 881 875 818 938 l 838 788 q 697 875 767 849 q 546 901 628 901 q 294 796 383 901 q 204 496 204 690 q 293 194 204 300 q 546 88 382 88 q 697 114 628 88 q 838 201 767 140 l 881 114 q 732 20 818 51 q 544 -11 646 -11 z "},"Ć":{"ha":950,"x_min":86,"x_max":881,"o":"m 544 -11 q 300 50 403 -11 q 142 225 197 111 q 86 496 86 339 q 142 765 86 653 q 300 939 197 878 q 544 1000 403 1000 q 732 969 646 1000 q 881 875 818 938 l 838 788 q 697 875 767 849 q 546 901 628 901 q 294 796 383 901 q 204 496 204 690 q 293 194 204 300 q 546 88 382 88 q 697 114 628 88 q 838 201 767 140 l 881 114 q 732 20 818 51 q 544 -11 646 -11 m 581 1074 l 501 1074 l 643 1286 l 767 1286 l 581 1074 z "},"Č":{"ha":950,"x_min":86,"x_max":881,"o":"m 544 -11 q 300 50 403 -11 q 142 225 197 111 q 86 496 86 339 q 142 765 86 653 q 300 939 197 878 q 544 1000 403 1000 q 732 969 646 1000 q 881 875 818 938 l 838 788 q 697 875 767 849 q 546 901 628 901 q 294 796 383 901 q 204 496 204 690 q 293 194 204 300 q 546 88 382 88 q 697 114 628 88 q 838 201 767 140 l 881 114 q 732 20 818 51 q 544 -11 646 -11 m 643 1286 l 746 1286 l 579 1074 l 503 1074 l 336 1286 l 439 1286 l 542 1140 l 643 1286 z "},"Ç":{"ha":950,"x_min":86,"x_max":881,"o":"m 544 -11 q 300 50 403 -11 q 142 225 197 111 q 86 496 86 339 q 142 765 86 653 q 300 939 197 878 q 544 1000 403 1000 q 732 969 646 1000 q 881 875 818 938 l 838 788 q 697 875 767 849 q 546 901 628 901 q 294 796 383 901 q 204 496 204 690 q 293 194 204 300 q 546 88 382 88 q 697 114 628 88 q 838 201 767 140 l 881 114 q 732 20 818 51 q 544 -11 646 -11 z "},"Ḉ":{"ha":950,"x_min":86,"x_max":881,"o":"m 544 -11 q 300 50 403 -11 q 142 225 197 111 q 86 496 86 339 q 142 765 86 653 q 300 939 197 878 q 544 1000 403 1000 q 732 969 646 1000 q 881 875 818 938 l 838 788 q 697 875 767 849 q 546 901 628 901 q 294 796 383 901 q 204 496 204 690 q 293 194 204 300 q 546 88 382 88 q 697 114 628 88 q 838 201 767 140 l 881 114 q 732 20 818 51 q 544 -11 646 -11 m 538 -271 q 475 -265 510 -271 q 414 -244 440 -258 l 432 -183 q 487 -199 461 -194 q 538 -203 513 -203 q 596 -190 576 -203 q 615 -154 615 -176 q 567 -117 615 -117 q 533 -120 549 -117 q 503 -129 517 -124 l 475 -107 l 490 28 l 569 28 l 558 -74 l 524 -71 q 559 -60 542 -64 q 593 -57 576 -57 q 667 -81 633 -57 q 700 -154 700 -104 q 658 -237 700 -204 q 538 -271 615 -271 m 581 1074 l 501 1074 l 643 1286 l 767 1286 l 581 1074 z "},"Ĉ":{"ha":950,"x_min":86,"x_max":881,"o":"m 544 -11 q 300 50 403 -11 q 142 225 197 111 q 86 496 86 339 q 142 765 86 653 q 300 939 197 878 q 544 1000 403 1000 q 732 969 646 1000 q 881 875 818 938 l 838 788 q 697 875 767 849 q 546 901 628 901 q 294 796 383 901 q 204 496 204 690 q 293 194 204 300 q 546 88 382 88 q 697 114 628 88 q 838 201 767 140 l 881 114 q 732 20 818 51 q 544 -11 646 -11 m 439 1074 l 336 1074 l 503 1286 l 579 1286 l 746 1074 l 643 1074 l 542 1218 l 439 1074 z "},"Ċ":{"ha":950,"x_min":86,"x_max":881,"o":"m 544 -11 q 300 50 403 -11 q 142 225 197 111 q 86 496 86 339 q 142 765 86 653 q 300 939 197 878 q 544 1000 403 1000 q 732 969 646 1000 q 881 875 818 938 l 838 788 q 697 875 767 849 q 546 901 628 901 q 294 796 383 901 q 204 496 204 690 q 293 194 204 300 q 546 88 382 88 q 697 114 628 88 q 838 201 767 140 l 881 114 q 732 20 818 51 q 544 -11 646 -11 m 472 1244 l 610 1244 l 610 1117 l 472 1117 l 472 1244 z "},"D":{"ha":1036,"x_min":122,"x_max":951,"o":"m 122 0 l 122 989 l 454 989 q 724 931 613 989 q 893 763 835 874 q 951 496 951 653 q 892 227 951 338 q 722 58 833 117 q 454 0 611 0 l 122 0 m 236 97 l 447 97 q 735 197 639 97 q 832 496 832 297 q 447 892 832 892 l 236 892 l 236 97 z "},"Ǆ":{"ha":1843,"x_min":122,"x_max":1790,"o":"m 122 0 l 122 989 l 454 989 q 724 931 613 989 q 893 763 835 874 q 951 496 951 653 q 892 227 951 338 q 722 58 833 117 q 454 0 611 0 l 122 0 m 236 97 l 447 97 q 735 197 639 97 q 832 496 832 297 q 447 892 832 892 l 236 892 l 236 97 z "},"Ð":{"ha":1056,"x_min":11,"x_max":969,"o":"m 11 456 l 11 547 l 525 547 l 525 456 l 11 456 m 140 0 l 140 989 l 472 989 q 742 931 631 989 q 911 763 853 874 q 969 496 969 653 q 911 227 969 338 q 742 58 853 117 q 472 0 631 0 l 140 0 m 256 97 l 467 97 q 755 197 658 97 q 851 496 851 297 q 467 892 851 892 l 256 892 l 256 97 z "},"Ď":{"ha":1036,"x_min":122,"x_max":951,"o":"m 122 0 l 122 989 l 454 989 q 724 931 613 989 q 893 763 835 874 q 951 496 951 653 q 892 227 951 338 q 722 58 833 117 q 454 0 611 0 l 122 0 m 236 97 l 447 97 q 735 197 639 97 q 832 496 832 297 q 447 892 832 892 l 236 892 l 236 97 m 619 1286 l 722 1286 l 556 1074 l 479 1074 l 313 1286 l 415 1286 l 518 1140 l 619 1286 z "},"Đ":{"ha":1056,"x_min":11,"x_max":969,"o":"m 11 456 l 11 547 l 525 547 l 525 456 l 11 456 m 140 0 l 140 989 l 472 989 q 742 931 631 989 q 911 763 853 874 q 969 496 969 653 q 911 227 969 338 q 742 58 853 117 q 472 0 631 0 l 140 0 m 256 97 l 467 97 q 755 197 658 97 q 851 496 851 297 q 467 892 851 892 l 256 892 l 256 97 z "},"Ḍ":{"ha":1036,"x_min":122,"x_max":951,"o":"m 122 0 l 122 989 l 454 989 q 724 931 613 989 q 893 763 835 874 q 951 496 951 653 q 892 227 951 338 q 722 58 833 117 q 454 0 611 0 l 122 0 m 236 97 l 447 97 q 735 197 639 97 q 832 496 832 297 q 447 892 832 892 l 236 892 l 236 97 m 453 -132 l 582 -132 l 582 -256 l 453 -256 l 453 -132 z "},"Ḏ":{"ha":1036,"x_min":122,"x_max":951,"o":"m 122 0 l 122 989 l 454 989 q 724 931 613 989 q 893 763 835 874 q 951 496 951 653 q 892 227 951 338 q 722 58 833 117 q 454 0 611 0 l 122 0 m 236 97 l 447 97 q 735 197 639 97 q 832 496 832 297 q 447 892 832 892 l 236 892 l 236 97 m 307 -236 l 307 -153 l 728 -153 l 728 -236 l 307 -236 z "},"ǅ":{"ha":1756,"x_min":122,"x_max":1696,"o":"m 122 0 l 122 989 l 454 989 q 724 931 613 989 q 893 763 835 874 q 951 496 951 653 q 892 227 951 338 q 722 58 833 117 q 454 0 611 0 l 122 0 m 236 97 l 447 97 q 735 197 639 97 q 832 496 832 297 q 447 892 832 892 l 236 892 l 236 97 z "},"E":{"ha":817,"x_min":122,"x_max":747,"o":"m 122 0 l 122 989 l 747 989 l 747 894 l 235 894 l 235 550 l 719 550 l 719 454 l 235 454 l 235 94 l 747 94 l 747 0 l 122 0 z "},"É":{"ha":817,"x_min":122,"x_max":747,"o":"m 122 0 l 122 989 l 747 989 l 747 894 l 235 894 l 235 550 l 719 550 l 719 454 l 235 454 l 235 94 l 747 94 l 747 0 l 122 0 m 493 1074 l 414 1074 l 556 1286 l 679 1286 l 493 1074 z "},"Ĕ":{"ha":817,"x_min":122,"x_max":747,"o":"m 122 0 l 122 989 l 747 989 l 747 894 l 235 894 l 235 550 l 719 550 l 719 454 l 235 454 l 235 94 l 747 94 l 747 0 l 122 0 m 454 1090 q 319 1124 381 1090 q 225 1239 257 1157 l 296 1269 q 368 1190 329 1210 q 454 1171 407 1171 q 540 1190 501 1171 q 611 1269 578 1210 l 682 1239 q 588 1124 649 1157 q 454 1090 526 1090 z "},"Ě":{"ha":817,"x_min":122,"x_max":747,"o":"m 122 0 l 122 989 l 747 989 l 747 894 l 235 894 l 235 550 l 719 550 l 719 454 l 235 454 l 235 94 l 747 94 l 747 0 l 122 0 m 556 1286 l 658 1286 l 492 1074 l 415 1074 l 249 1286 l 351 1286 l 454 1140 l 556 1286 z "},"Ȩ":{"ha":817,"x_min":122,"x_max":747,"o":"m 122 0 l 122 989 l 747 989 l 747 894 l 235 894 l 235 550 l 719 550 l 719 454 l 235 454 l 235 94 l 747 94 l 747 0 l 122 0 m 451 -271 q 389 -265 424 -271 q 328 -244 354 -258 l 346 -183 q 401 -199 375 -194 q 451 -203 426 -203 q 510 -190 490 -203 q 529 -154 529 -176 q 481 -117 529 -117 q 447 -120 463 -117 q 417 -129 431 -124 l 389 -107 l 404 28 l 483 28 l 472 -74 l 438 -71 q 473 -60 456 -64 q 507 -57 490 -57 q 581 -81 547 -57 q 614 -154 614 -104 q 572 -237 614 -204 q 451 -271 529 -271 z "},"Ḝ":{"ha":817,"x_min":122,"x_max":747,"o":"m 122 0 l 122 989 l 747 989 l 747 894 l 235 894 l 235 550 l 719 550 l 719 454 l 235 454 l 235 94 l 747 94 l 747 0 l 122 0 m 451 -271 q 389 -265 424 -271 q 328 -244 354 -258 l 346 -183 q 401 -199 375 -194 q 451 -203 426 -203 q 510 -190 490 -203 q 529 -154 529 -176 q 481 -117 529 -117 q 447 -120 463 -117 q 417 -129 431 -124 l 389 -107 l 404 28 l 483 28 l 472 -74 l 438 -71 q 473 -60 456 -64 q 507 -57 490 -57 q 581 -81 547 -57 q 614 -154 614 -104 q 572 -237 614 -204 q 451 -271 529 -271 m 454 1090 q 319 1124 381 1090 q 225 1239 257 1157 l 296 1269 q 368 1190 329 1210 q 454 1171 407 1171 q 540 1190 501 1171 q 611 1269 578 1210 l 682 1239 q 588 1124 649 1157 q 454 1090 526 1090 z "},"Ê":{"ha":817,"x_min":122,"x_max":747,"o":"m 122 0 l 122 989 l 747 989 l 747 894 l 235 894 l 235 550 l 719 550 l 719 454 l 235 454 l 235 94 l 747 94 l 747 0 l 122 0 m 351 1074 l 249 1074 l 415 1286 l 492 1286 l 658 1074 l 556 1074 l 454 1218 l 351 1074 z "},"Ế":{"ha":817,"x_min":122,"x_max":819,"o":"m 122 0 l 122 989 l 747 989 l 747 894 l 235 894 l 235 550 l 719 550 l 719 454 l 235 454 l 235 94 l 747 94 l 747 0 l 122 0 m 351 1074 l 249 1074 l 415 1279 l 492 1279 l 658 1074 l 556 1074 l 454 1213 l 351 1074 m 642 1218 l 572 1218 l 700 1415 l 819 1415 l 642 1218 z "},"Ệ":{"ha":817,"x_min":122,"x_max":747,"o":"m 122 0 l 122 989 l 747 989 l 747 894 l 235 894 l 235 550 l 719 550 l 719 454 l 235 454 l 235 94 l 747 94 l 747 0 l 122 0 m 389 -132 l 518 -132 l 518 -256 l 389 -256 l 389 -132 m 351 1074 l 249 1074 l 415 1286 l 492 1286 l 658 1074 l 556 1074 l 454 1218 l 351 1074 z "},"Ề":{"ha":817,"x_min":122,"x_max":747,"o":"m 122 0 l 122 989 l 747 989 l 747 894 l 235 894 l 235 550 l 719 550 l 719 454 l 235 454 l 235 94 l 747 94 l 747 0 l 122 0 m 351 1074 l 249 1074 l 415 1279 l 492 1279 l 658 1074 l 556 1074 l 454 1213 l 351 1074 m 632 1218 l 475 1415 l 593 1415 l 701 1218 l 632 1218 z "},"Ể":{"ha":817,"x_min":122,"x_max":756,"o":"m 122 0 l 122 989 l 747 989 l 747 894 l 235 894 l 235 550 l 719 550 l 719 454 l 235 454 l 235 94 l 747 94 l 747 0 l 122 0 m 351 1074 l 249 1074 l 415 1279 l 492 1279 l 658 1074 l 556 1074 l 454 1213 l 351 1074 m 646 1231 l 646 1218 l 571 1218 l 571 1242 q 585 1278 571 1265 q 617 1298 599 1290 q 651 1312 636 1306 q 665 1331 665 1318 q 651 1350 665 1343 q 608 1357 636 1357 q 568 1353 589 1357 q 522 1340 547 1350 l 503 1399 q 557 1417 528 1410 q 617 1424 586 1424 q 719 1399 682 1424 q 756 1335 756 1374 q 739 1295 756 1308 q 701 1274 722 1282 q 663 1256 679 1265 q 646 1231 646 1247 z "},"Ễ":{"ha":817,"x_min":122,"x_max":747,"o":"m 122 0 l 122 989 l 747 989 l 747 894 l 235 894 l 235 550 l 719 550 l 719 454 l 235 454 l 235 94 l 747 94 l 747 0 l 122 0 m 351 1074 l 249 1074 l 415 1279 l 492 1279 l 658 1074 l 556 1074 l 454 1213 l 351 1074 m 228 1300 q 244 1372 228 1340 q 288 1420 260 1403 q 353 1438 315 1438 q 427 1423 392 1438 q 494 1393 463 1408 q 551 1378 525 1378 q 600 1397 583 1378 q 617 1440 617 1417 l 679 1440 q 663 1369 679 1400 q 619 1319 647 1338 q 554 1301 592 1301 q 480 1317 515 1301 q 413 1347 444 1332 q 356 1363 382 1363 q 307 1343 324 1363 q 290 1300 290 1324 l 228 1300 z "},"Ȅ":{"ha":817,"x_min":122,"x_max":747,"o":"m 122 0 l 122 989 l 747 989 l 747 894 l 235 894 l 235 550 l 719 550 l 719 454 l 235 454 l 235 94 l 747 94 l 747 0 l 122 0 m 507 1074 l 369 1286 l 469 1286 l 568 1074 l 507 1074 m 339 1074 l 203 1286 l 300 1286 l 400 1074 l 339 1074 z "},"Ë":{"ha":817,"x_min":122,"x_max":747,"o":"m 122 0 l 122 989 l 747 989 l 747 894 l 235 894 l 235 550 l 719 550 l 719 454 l 235 454 l 235 94 l 747 94 l 747 0 l 122 0 m 511 1240 l 636 1240 l 636 1121 l 511 1121 l 511 1240 m 271 1240 l 396 1240 l 396 1121 l 271 1121 l 271 1240 z "},"Ė":{"ha":817,"x_min":122,"x_max":747,"o":"m 122 0 l 122 989 l 747 989 l 747 894 l 235 894 l 235 550 l 719 550 l 719 454 l 235 454 l 235 94 l 747 94 l 747 0 l 122 0 m 385 1244 l 522 1244 l 522 1117 l 385 1117 l 385 1244 z "},"Ẹ":{"ha":817,"x_min":122,"x_max":747,"o":"m 122 0 l 122 989 l 747 989 l 747 894 l 235 894 l 235 550 l 719 550 l 719 454 l 235 454 l 235 94 l 747 94 l 747 0 l 122 0 m 389 -132 l 518 -132 l 518 -256 l 389 -256 l 389 -132 z "},"È":{"ha":817,"x_min":122,"x_max":747,"o":"m 122 0 l 122 989 l 747 989 l 747 894 l 235 894 l 235 550 l 719 550 l 719 454 l 235 454 l 235 94 l 747 94 l 747 0 l 122 0 m 414 1074 l 228 1286 l 351 1286 l 493 1074 l 414 1074 z "},"Ẻ":{"ha":817,"x_min":122,"x_max":747,"o":"m 122 0 l 122 989 l 747 989 l 747 894 l 235 894 l 235 550 l 719 550 l 719 454 l 235 454 l 235 94 l 747 94 l 747 0 l 122 0 m 492 1088 l 492 1074 l 417 1074 l 417 1099 q 431 1136 417 1122 q 463 1159 444 1150 q 497 1177 482 1168 q 511 1199 511 1186 q 497 1218 511 1211 q 454 1225 482 1225 q 414 1222 435 1225 q 368 1208 393 1218 l 349 1268 q 403 1285 374 1279 q 463 1292 432 1292 q 564 1267 528 1292 q 600 1203 600 1242 q 583 1160 600 1175 q 546 1135 567 1144 q 508 1115 525 1125 q 492 1088 492 1104 z "},"Ȇ":{"ha":817,"x_min":122,"x_max":747,"o":"m 122 0 l 122 989 l 747 989 l 747 894 l 235 894 l 235 550 l 719 550 l 719 454 l 235 454 l 235 94 l 747 94 l 747 0 l 122 0 m 454 1271 q 588 1237 526 1271 q 682 1122 650 1203 l 611 1092 q 540 1170 578 1150 q 454 1190 501 1190 q 368 1170 407 1190 q 296 1092 329 1150 l 225 1122 q 319 1237 258 1203 q 454 1271 381 1271 z "},"Ē":{"ha":817,"x_min":122,"x_max":747,"o":"m 122 0 l 122 989 l 747 989 l 747 894 l 235 894 l 235 550 l 719 550 l 719 454 l 235 454 l 235 94 l 747 94 l 747 0 l 122 0 m 243 1138 l 243 1224 l 664 1224 l 664 1138 l 243 1138 z "},"Ḗ":{"ha":817,"x_min":122,"x_max":747,"o":"m 122 0 l 122 989 l 747 989 l 747 894 l 235 894 l 235 550 l 719 550 l 719 454 l 235 454 l 235 94 l 747 94 l 747 0 l 122 0 m 243 1138 l 243 1224 l 664 1224 l 664 1138 l 243 1138 m 493 1299 l 414 1299 l 556 1511 l 679 1511 l 493 1299 z "},"Ḕ":{"ha":817,"x_min":122,"x_max":747,"o":"m 122 0 l 122 989 l 747 989 l 747 894 l 235 894 l 235 550 l 719 550 l 719 454 l 235 454 l 235 94 l 747 94 l 747 0 l 122 0 m 243 1138 l 243 1224 l 664 1224 l 664 1138 l 243 1138 m 414 1299 l 228 1511 l 351 1511 l 493 1299 l 414 1299 z "},"Ę":{"ha":817,"x_min":122,"x_max":796,"o":"m 772 -172 l 796 -239 q 742 -262 772 -253 q 675 -271 711 -271 q 556 -229 601 -271 q 511 -124 511 -187 q 607 26 511 -25 l 629 0 l 122 0 l 122 989 l 747 989 l 747 894 l 235 894 l 235 550 l 719 550 l 719 454 l 235 454 l 235 94 l 747 94 l 747 0 l 726 0 q 631 -31 663 0 q 599 -108 599 -61 q 624 -174 599 -151 q 692 -196 650 -196 q 729 -190 708 -196 q 772 -172 750 -185 z "},"Ẽ":{"ha":817,"x_min":122,"x_max":747,"o":"m 122 0 l 122 989 l 747 989 l 747 894 l 235 894 l 235 550 l 719 550 l 719 454 l 235 454 l 235 94 l 747 94 l 747 0 l 122 0 m 228 1103 q 263 1222 228 1181 q 353 1264 297 1264 q 427 1244 392 1264 q 494 1203 463 1224 q 551 1183 525 1183 q 600 1206 583 1183 q 617 1260 617 1229 l 679 1260 q 644 1140 679 1182 q 554 1099 610 1099 q 480 1119 515 1099 q 413 1159 444 1139 q 356 1179 382 1179 q 307 1156 324 1179 q 290 1103 290 1133 l 228 1103 z "},"F":{"ha":782,"x_min":122,"x_max":733,"o":"m 122 0 l 122 989 l 733 989 l 733 893 l 235 893 l 235 550 l 706 550 l 706 454 l 235 454 l 235 0 l 122 0 z "},"G":{"ha":1015,"x_min":86,"x_max":904,"o":"m 560 -11 q 305 49 411 -11 q 142 223 199 110 q 86 496 86 336 q 142 767 86 654 q 303 940 199 881 q 551 1000 408 1000 q 741 969 654 1000 q 892 875 828 938 l 847 788 q 706 876 775 849 q 551 903 636 903 q 294 798 383 903 q 204 496 204 693 q 296 190 204 294 q 563 85 388 85 q 703 98 635 85 q 828 133 772 111 l 800 75 l 800 425 l 554 425 l 554 515 l 904 515 l 904 57 q 809 21 865 36 q 688 -3 753 6 q 560 -11 624 -11 z "},"Ğ":{"ha":1015,"x_min":86,"x_max":904,"o":"m 560 -11 q 305 49 411 -11 q 142 223 199 110 q 86 496 86 336 q 142 767 86 654 q 303 940 199 881 q 551 1000 408 1000 q 741 969 654 1000 q 892 875 828 938 l 847 788 q 706 876 775 849 q 551 903 636 903 q 294 798 383 903 q 204 496 204 693 q 296 190 204 294 q 563 85 388 85 q 703 98 635 85 q 828 133 772 111 l 800 75 l 800 425 l 554 425 l 554 515 l 904 515 l 904 57 q 809 21 865 36 q 688 -3 753 6 q 560 -11 624 -11 m 550 1090 q 415 1124 476 1090 q 321 1239 353 1157 l 392 1269 q 464 1190 425 1210 q 550 1171 503 1171 q 635 1190 597 1171 q 707 1269 674 1210 l 778 1239 q 683 1124 744 1157 q 550 1090 622 1090 z "},"Ǧ":{"ha":1015,"x_min":86,"x_max":904,"o":"m 560 -11 q 305 49 411 -11 q 142 223 199 110 q 86 496 86 336 q 142 767 86 654 q 303 940 199 881 q 551 1000 408 1000 q 741 969 654 1000 q 892 875 828 938 l 847 788 q 706 876 775 849 q 551 903 636 903 q 294 798 383 903 q 204 496 204 693 q 296 190 204 294 q 563 85 388 85 q 703 98 635 85 q 828 133 772 111 l 800 75 l 800 425 l 554 425 l 554 515 l 904 515 l 904 57 q 809 21 865 36 q 688 -3 753 6 q 560 -11 624 -11 m 651 1286 l 754 1286 l 588 1074 l 511 1074 l 344 1286 l 447 1286 l 550 1140 l 651 1286 z "},"Ĝ":{"ha":1015,"x_min":86,"x_max":904,"o":"m 560 -11 q 305 49 411 -11 q 142 223 199 110 q 86 496 86 336 q 142 767 86 654 q 303 940 199 881 q 551 1000 408 1000 q 741 969 654 1000 q 892 875 828 938 l 847 788 q 706 876 775 849 q 551 903 636 903 q 294 798 383 903 q 204 496 204 693 q 296 190 204 294 q 563 85 388 85 q 703 98 635 85 q 828 133 772 111 l 800 75 l 800 425 l 554 425 l 554 515 l 904 515 l 904 57 q 809 21 865 36 q 688 -3 753 6 q 560 -11 624 -11 m 447 1074 l 344 1074 l 511 1286 l 588 1286 l 754 1074 l 651 1074 l 550 1218 l 447 1074 z "},"Ģ":{"ha":1015,"x_min":86,"x_max":904,"o":"m 560 -11 q 305 49 411 -11 q 142 223 199 110 q 86 496 86 336 q 142 767 86 654 q 303 940 199 881 q 551 1000 408 1000 q 741 969 654 1000 q 892 875 828 938 l 847 788 q 706 876 775 849 q 551 903 636 903 q 294 798 383 903 q 204 496 204 693 q 296 190 204 294 q 563 85 388 85 q 703 98 635 85 q 828 133 772 111 l 800 75 l 800 425 l 554 425 l 554 515 l 904 515 l 904 57 q 809 21 865 36 q 688 -3 753 6 q 560 -11 624 -11 m 628 -101 l 628 -182 q 613 -279 628 -235 q 556 -364 599 -324 l 504 -325 q 546 -262 536 -292 q 556 -199 556 -232 l 588 -217 l 490 -217 l 490 -101 l 628 -101 z "},"Ġ":{"ha":1015,"x_min":86,"x_max":904,"o":"m 560 -11 q 305 49 411 -11 q 142 223 199 110 q 86 496 86 336 q 142 767 86 654 q 303 940 199 881 q 551 1000 408 1000 q 741 969 654 1000 q 892 875 828 938 l 847 788 q 706 876 775 849 q 551 903 636 903 q 294 798 383 903 q 204 496 204 693 q 296 190 204 294 q 563 85 388 85 q 703 98 635 85 q 828 133 772 111 l 800 75 l 800 425 l 554 425 l 554 515 l 904 515 l 904 57 q 809 21 865 36 q 688 -3 753 6 q 560 -11 624 -11 m 481 1244 l 618 1244 l 618 1117 l 481 1117 l 481 1244 z "},"Ḡ":{"ha":1015,"x_min":86,"x_max":904,"o":"m 560 -11 q 305 49 411 -11 q 142 223 199 110 q 86 496 86 336 q 142 767 86 654 q 303 940 199 881 q 551 1000 408 1000 q 741 969 654 1000 q 892 875 828 938 l 847 788 q 706 876 775 849 q 551 903 636 903 q 294 798 383 903 q 204 496 204 693 q 296 190 204 294 q 563 85 388 85 q 703 98 635 85 q 828 133 772 111 l 800 75 l 800 425 l 554 425 l 554 515 l 904 515 l 904 57 q 809 21 865 36 q 688 -3 753 6 q 560 -11 624 -11 m 339 1138 l 339 1224 l 760 1224 l 760 1138 l 339 1138 z "},"H":{"ha":1064,"x_min":122,"x_max":942,"o":"m 828 0 l 828 989 l 942 989 l 942 0 l 828 0 m 122 0 l 122 989 l 235 989 l 235 0 l 122 0 m 175 454 l 175 550 l 892 550 l 892 454 l 175 454 z "},"Ħ":{"ha":1101,"x_min":11,"x_max":1090,"o":"m 11 729 l 11 821 l 1090 821 l 1090 729 l 11 729 m 846 0 l 846 989 l 961 989 l 961 0 l 846 0 m 140 0 l 140 989 l 256 989 l 256 0 l 140 0 m 194 454 l 194 550 l 892 550 l 892 454 l 194 454 z "},"Ḫ":{"ha":1064,"x_min":122,"x_max":942,"o":"m 828 0 l 828 989 l 942 989 l 942 0 l 828 0 m 122 0 l 122 989 l 235 989 l 235 0 l 122 0 m 175 454 l 175 550 l 892 550 l 892 454 l 175 454 m 532 -296 q 438 -278 483 -296 q 357 -222 393 -260 q 300 -119 321 -183 l 371 -89 q 444 -185 404 -157 q 532 -212 485 -212 q 619 -185 579 -212 q 692 -89 658 -157 l 763 -118 q 707 -221 743 -182 q 625 -278 671 -260 q 532 -296 579 -296 z "},"Ĥ":{"ha":1064,"x_min":122,"x_max":942,"o":"m 828 0 l 828 989 l 942 989 l 942 0 l 828 0 m 122 0 l 122 989 l 235 989 l 235 0 l 122 0 m 175 454 l 175 550 l 892 550 l 892 454 l 175 454 m 429 1074 l 326 1074 l 493 1286 l 569 1286 l 736 1074 l 633 1074 l 532 1218 l 429 1074 z "},"Ḥ":{"ha":1064,"x_min":122,"x_max":942,"o":"m 828 0 l 828 989 l 942 989 l 942 0 l 828 0 m 122 0 l 122 989 l 235 989 l 235 0 l 122 0 m 175 454 l 175 550 l 892 550 l 892 454 l 175 454 m 467 -132 l 596 -132 l 596 -256 l 467 -256 l 467 -132 z "},"I":{"ha":358,"x_min":122,"x_max":236,"o":"m 122 0 l 122 989 l 236 989 l 236 0 l 122 0 z "},"Í":{"ha":358,"x_min":122,"x_max":404,"o":"m 122 0 l 122 989 l 236 989 l 236 0 l 122 0 m 218 1074 l 139 1074 l 281 1286 l 404 1286 l 218 1074 z "},"Ĭ":{"ha":358,"x_min":-50,"x_max":407,"o":"m 122 0 l 122 989 l 236 989 l 236 0 l 122 0 m 179 1090 q 44 1124 106 1090 q -50 1239 -18 1157 l 21 1269 q 93 1190 54 1210 q 179 1171 132 1171 q 265 1190 226 1171 q 336 1269 303 1210 l 407 1239 q 313 1124 374 1157 q 179 1090 251 1090 z "},"Î":{"ha":358,"x_min":-26,"x_max":383,"o":"m 122 0 l 122 989 l 236 989 l 236 0 l 122 0 m 76 1074 l -26 1074 l 140 1286 l 217 1286 l 383 1074 l 281 1074 l 179 1218 l 76 1074 z "},"Ȉ":{"ha":358,"x_min":-72,"x_max":293,"o":"m 122 0 l 122 989 l 236 989 l 236 0 l 122 0 m 232 1074 l 94 1286 l 194 1286 l 293 1074 l 232 1074 m 64 1074 l -72 1286 l 25 1286 l 125 1074 l 64 1074 z "},"Ï":{"ha":358,"x_min":-4,"x_max":361,"o":"m 122 0 l 122 989 l 236 989 l 236 0 l 122 0 m 236 1240 l 361 1240 l 361 1121 l 236 1121 l 236 1240 m -4 1240 l 121 1240 l 121 1121 l -4 1121 l -4 1240 z "},"Ḯ":{"ha":358,"x_min":-4,"x_max":404,"o":"m 122 0 l 122 989 l 236 989 l 236 0 l 122 0 m 236 1240 l 361 1240 l 361 1121 l 236 1121 l 236 1240 m -4 1240 l 121 1240 l 121 1121 l -4 1121 l -4 1240 m 218 1299 l 139 1299 l 281 1511 l 404 1511 l 218 1299 z "},"İ":{"ha":358,"x_min":110,"x_max":247,"o":"m 122 0 l 122 989 l 236 989 l 236 0 l 122 0 m 110 1244 l 247 1244 l 247 1117 l 110 1117 l 110 1244 z "},"Ị":{"ha":358,"x_min":114,"x_max":243,"o":"m 122 0 l 122 989 l 236 989 l 236 0 l 122 0 m 114 -132 l 243 -132 l 243 -256 l 114 -256 l 114 -132 z "},"Ì":{"ha":358,"x_min":-47,"x_max":236,"o":"m 122 0 l 122 989 l 236 989 l 236 0 l 122 0 m 139 1074 l -47 1286 l 76 1286 l 218 1074 l 139 1074 z "},"Ỉ":{"ha":358,"x_min":74,"x_max":325,"o":"m 122 0 l 122 989 l 236 989 l 236 0 l 122 0 m 217 1088 l 217 1074 l 142 1074 l 142 1099 q 156 1136 142 1122 q 188 1159 169 1150 q 222 1177 207 1168 q 236 1199 236 1186 q 222 1218 236 1211 q 179 1225 207 1225 q 139 1222 160 1225 q 93 1208 118 1218 l 74 1268 q 128 1285 99 1279 q 188 1292 157 1292 q 289 1267 253 1292 q 325 1203 325 1242 q 308 1160 325 1175 q 271 1135 292 1144 q 233 1115 250 1125 q 217 1088 217 1104 z "},"Ȋ":{"ha":358,"x_min":-50,"x_max":407,"o":"m 122 0 l 122 989 l 236 989 l 236 0 l 122 0 m 179 1271 q 313 1237 251 1271 q 407 1122 375 1203 l 336 1092 q 265 1170 303 1150 q 179 1190 226 1190 q 93 1170 132 1190 q 21 1092 54 1150 l -50 1122 q 44 1237 -17 1203 q 179 1271 106 1271 z "},"Ī":{"ha":358,"x_min":-32,"x_max":389,"o":"m 122 0 l 122 989 l 236 989 l 236 0 l 122 0 m -32 1138 l -32 1224 l 389 1224 l 389 1138 l -32 1138 z "},"Į":{"ha":358,"x_min":13,"x_max":297,"o":"m 178 -271 q 58 -229 104 -271 q 13 -122 13 -187 q 56 -13 13 -61 q 181 53 99 35 l 156 0 l 122 0 l 122 989 l 236 989 l 236 0 l 226 0 q 134 -32 167 0 q 101 -108 101 -64 q 127 -174 101 -151 q 193 -196 153 -196 q 231 -190 210 -196 q 275 -172 253 -185 l 297 -239 q 243 -262 274 -253 q 178 -271 213 -271 z "},"Ĩ":{"ha":358,"x_min":-47,"x_max":404,"o":"m 122 0 l 122 989 l 236 989 l 236 0 l 122 0 m -47 1103 q -12 1222 -47 1181 q 78 1264 22 1264 q 152 1244 117 1264 q 219 1203 188 1224 q 276 1183 250 1183 q 325 1206 308 1183 q 342 1260 342 1229 l 404 1260 q 369 1140 404 1182 q 279 1099 335 1099 q 205 1119 240 1099 q 138 1159 169 1139 q 81 1179 107 1179 q 32 1156 49 1179 q 15 1103 15 1133 l -47 1103 z "},"J":{"ha":457,"x_min":-7,"x_max":335,"o":"m -7 -247 l -7 -149 q 129 -156 79 -164 q 200 -108 179 -149 q 221 15 221 -67 l 221 989 l 335 989 l 335 14 q 301 -166 335 -101 q 193 -249 268 -231 q -7 -247 118 -268 z "},"Ĵ":{"ha":457,"x_min":-7,"x_max":482,"o":"m -7 -247 l -7 -149 q 129 -156 79 -164 q 200 -108 179 -149 q 221 15 221 -67 l 221 989 l 335 989 l 335 14 q 301 -166 335 -101 q 193 -249 268 -231 q -7 -247 118 -268 m 175 1074 l 72 1074 l 239 1286 l 315 1286 l 482 1074 l 379 1074 l 278 1218 l 175 1074 z "},"K":{"ha":881,"x_min":122,"x_max":894,"o":"m 746 0 l 201 503 l 722 989 l 868 989 l 310 468 l 315 542 l 894 0 l 746 0 m 122 0 l 122 989 l 236 989 l 236 0 l 122 0 z "},"Ķ":{"ha":881,"x_min":122,"x_max":894,"o":"m 746 0 l 201 503 l 722 989 l 868 989 l 310 468 l 315 542 l 894 0 l 746 0 m 122 0 l 122 989 l 236 989 l 236 0 l 122 0 m 511 -101 l 511 -182 q 497 -279 511 -235 q 439 -364 482 -324 l 388 -325 q 429 -262 419 -292 q 439 -199 439 -232 l 471 -217 l 374 -217 l 374 -101 l 511 -101 z "},"L":{"ha":757,"x_min":122,"x_max":732,"o":"m 122 0 l 122 989 l 236 989 l 236 97 l 732 97 l 732 0 l 122 0 z "},"Ǉ":{"ha":1108,"x_min":122,"x_max":986,"o":"m 122 0 l 122 989 l 236 989 l 236 97 l 690 97 l 690 0 l 122 0 m 643 -247 l 643 -149 q 779 -156 729 -164 q 850 -108 829 -149 q 871 15 871 -67 l 871 989 l 986 989 l 986 14 q 953 -166 986 -101 q 844 -249 919 -231 q 643 -247 768 -268 z "},"Ĺ":{"ha":757,"x_min":122,"x_max":732,"o":"m 122 0 l 122 989 l 236 989 l 236 97 l 732 97 l 732 0 l 122 0 m 218 1074 l 139 1074 l 281 1286 l 404 1286 l 218 1074 z "},"Ľ":{"ha":757,"x_min":122,"x_max":732,"o":"m 122 0 l 122 989 l 236 989 l 236 97 l 732 97 l 732 0 l 122 0 m 415 722 l 356 722 l 356 989 l 451 989 l 415 722 z "},"Ļ":{"ha":757,"x_min":122,"x_max":732,"o":"m 122 0 l 122 989 l 236 989 l 236 97 l 732 97 l 732 0 l 122 0 m 501 -101 l 501 -182 q 487 -279 501 -235 q 429 -364 472 -324 l 378 -325 q 419 -262 410 -292 q 429 -199 429 -232 l 461 -217 l 364 -217 l 364 -101 l 501 -101 z "},"Ŀ":{"ha":757,"x_min":122,"x_max":732,"o":"m 122 0 l 122 989 l 236 989 l 236 97 l 732 97 l 732 0 l 122 0 m 418 561 l 561 561 l 561 429 l 418 429 l 418 561 z "},"Ḷ":{"ha":757,"x_min":122,"x_max":732,"o":"m 122 0 l 122 989 l 236 989 l 236 97 l 732 97 l 732 0 l 122 0 m 368 -132 l 497 -132 l 497 -256 l 368 -256 l 368 -132 z "},"ǈ":{"ha":1088,"x_min":122,"x_max":990,"o":"m 122 0 l 122 989 l 236 989 l 236 97 l 732 97 l 732 0 l 122 0 z "},"Ḻ":{"ha":757,"x_min":122,"x_max":732,"o":"m 122 0 l 122 989 l 236 989 l 236 97 l 732 97 l 732 0 l 122 0 m 222 -236 l 222 -153 l 643 -153 l 643 -236 l 222 -236 z "},"Ł":{"ha":776,"x_min":13,"x_max":751,"o":"m 13 340 l 13 447 l 518 739 l 518 632 l 13 340 m 140 0 l 140 989 l 256 989 l 256 97 l 751 97 l 751 0 l 140 0 z "},"M":{"ha":1179,"x_min":122,"x_max":1057,"o":"m 122 0 l 122 989 l 217 989 l 618 76 l 565 76 l 963 989 l 1057 989 l 1057 0 l 951 0 l 951 839 l 994 833 l 631 0 l 550 0 l 181 833 l 226 839 l 228 0 l 122 0 z "},"Ṃ":{"ha":1179,"x_min":122,"x_max":1057,"o":"m 122 0 l 122 989 l 217 989 l 618 76 l 565 76 l 963 989 l 1057 989 l 1057 0 l 951 0 l 951 839 l 994 833 l 631 0 l 550 0 l 181 833 l 226 839 l 228 0 l 122 0 m 524 -132 l 653 -132 l 653 -256 l 524 -256 l 524 -132 z "},"N":{"ha":1036,"x_min":122,"x_max":915,"o":"m 122 0 l 122 989 l 210 989 l 840 149 l 807 140 l 807 989 l 915 989 l 915 0 l 826 0 l 197 839 l 229 849 l 229 0 l 122 0 z "},"Ǌ":{"ha":1493,"x_min":122,"x_max":1371,"o":"m 122 0 l 122 989 l 210 989 l 840 149 l 807 140 l 807 989 l 915 989 l 915 0 l 826 0 l 197 839 l 229 849 l 229 0 l 122 0 m 1029 -247 l 1029 -149 q 1165 -156 1115 -164 q 1236 -108 1215 -149 q 1257 15 1257 -67 l 1257 989 l 1371 989 l 1371 14 q 1338 -166 1371 -101 q 1229 -249 1304 -231 q 1029 -247 1154 -268 z "},"Ń":{"ha":1036,"x_min":122,"x_max":915,"o":"m 122 0 l 122 989 l 210 989 l 840 149 l 807 140 l 807 989 l 915 989 l 915 0 l 826 0 l 197 839 l 229 849 l 229 0 l 122 0 m 557 1074 l 478 1074 l 619 1286 l 743 1286 l 557 1074 z "},"Ň":{"ha":1036,"x_min":122,"x_max":915,"o":"m 122 0 l 122 989 l 210 989 l 840 149 l 807 140 l 807 989 l 915 989 l 915 0 l 826 0 l 197 839 l 229 849 l 229 0 l 122 0 m 619 1286 l 722 1286 l 556 1074 l 479 1074 l 313 1286 l 415 1286 l 518 1140 l 619 1286 z "},"Ņ":{"ha":1036,"x_min":122,"x_max":915,"o":"m 122 0 l 122 989 l 210 989 l 840 149 l 807 140 l 807 989 l 915 989 l 915 0 l 826 0 l 197 839 l 229 849 l 229 0 l 122 0 m 588 -101 l 588 -182 q 573 -279 588 -235 q 515 -364 558 -324 l 464 -325 q 506 -262 496 -292 q 515 -199 515 -232 l 547 -217 l 450 -217 l 450 -101 l 588 -101 z "},"Ṅ":{"ha":1036,"x_min":122,"x_max":915,"o":"m 122 0 l 122 989 l 210 989 l 840 149 l 807 140 l 807 989 l 915 989 l 915 0 l 826 0 l 197 839 l 229 849 l 229 0 l 122 0 m 449 1244 l 586 1244 l 586 1117 l 449 1117 l 449 1244 z "},"Ṇ":{"ha":1036,"x_min":122,"x_max":915,"o":"m 122 0 l 122 989 l 210 989 l 840 149 l 807 140 l 807 989 l 915 989 l 915 0 l 826 0 l 197 839 l 229 849 l 229 0 l 122 0 m 454 -132 l 583 -132 l 583 -256 l 454 -256 l 454 -132 z "},"Ŋ":{"ha":1036,"x_min":122,"x_max":915,"o":"m 807 989 l 915 989 l 915 1 q 856 -180 915 -112 q 668 -256 797 -247 l 576 -262 l 569 -168 l 653 -162 q 767 -117 726 -157 q 807 -4 807 -78 l 807 72 l 825 3 l 197 839 l 229 849 l 229 0 l 122 0 l 122 989 l 210 989 l 840 149 l 807 140 l 807 989 z "},"ǋ":{"ha":1367,"x_min":122,"x_max":1269,"o":"m 122 0 l 122 989 l 210 989 l 840 149 l 807 140 l 807 989 l 915 989 l 915 0 l 826 0 l 197 839 l 229 849 l 229 0 l 122 0 z "},"Ṉ":{"ha":1036,"x_min":122,"x_max":915,"o":"m 122 0 l 122 989 l 210 989 l 840 149 l 807 140 l 807 989 l 915 989 l 915 0 l 826 0 l 197 839 l 229 849 l 229 0 l 122 0 m 308 -236 l 308 -153 l 729 -153 l 729 -236 l 308 -236 z "},"Ñ":{"ha":1036,"x_min":122,"x_max":915,"o":"m 122 0 l 122 989 l 210 989 l 840 149 l 807 140 l 807 989 l 915 989 l 915 0 l 826 0 l 197 839 l 229 849 l 229 0 l 122 0 m 292 1103 q 326 1222 292 1181 q 417 1264 361 1264 q 491 1244 456 1264 q 558 1203 526 1224 q 615 1183 589 1183 q 664 1206 647 1183 q 681 1260 681 1229 l 743 1260 q 708 1140 743 1182 q 618 1099 674 1099 q 544 1119 579 1099 q 477 1159 508 1139 q 419 1179 446 1179 q 371 1156 388 1179 q 354 1103 354 1133 l 292 1103 z "},"O":{"ha":1072,"x_min":86,"x_max":986,"o":"m 536 -11 q 297 50 397 -11 q 141 225 196 111 q 86 494 86 339 q 140 765 86 651 q 295 939 194 878 q 536 1000 396 1000 q 776 939 675 1000 q 932 765 878 878 q 986 496 986 651 q 931 225 986 339 q 776 50 876 111 q 536 -11 675 -11 m 536 86 q 781 192 693 86 q 868 496 868 299 q 781 798 868 693 q 536 903 693 903 q 291 797 379 903 q 203 496 203 692 q 291 193 203 300 q 536 86 379 86 z "},"Ó":{"ha":1072,"x_min":86,"x_max":986,"o":"m 536 -11 q 297 50 397 -11 q 141 225 196 111 q 86 494 86 339 q 140 765 86 651 q 295 939 194 878 q 536 1000 396 1000 q 776 939 675 1000 q 932 765 878 878 q 986 496 986 651 q 931 225 986 339 q 776 50 876 111 q 536 -11 675 -11 m 536 86 q 781 192 693 86 q 868 496 868 299 q 781 798 868 693 q 536 903 693 903 q 291 797 379 903 q 203 496 203 692 q 291 193 203 300 q 536 86 379 86 m 574 1074 l 494 1074 l 636 1286 l 760 1286 l 574 1074 z "},"Ŏ":{"ha":1072,"x_min":86,"x_max":986,"o":"m 536 -11 q 297 50 397 -11 q 141 225 196 111 q 86 494 86 339 q 140 765 86 651 q 295 939 194 878 q 536 1000 396 1000 q 776 939 675 1000 q 932 765 878 878 q 986 496 986 651 q 931 225 986 339 q 776 50 876 111 q 536 -11 675 -11 m 536 86 q 781 192 693 86 q 868 496 868 299 q 781 798 868 693 q 536 903 693 903 q 291 797 379 903 q 203 496 203 692 q 291 193 203 300 q 536 86 379 86 m 535 1090 q 399 1124 461 1090 q 306 1239 338 1157 l 376 1269 q 449 1190 410 1210 q 535 1171 488 1171 q 620 1190 582 1171 q 692 1269 658 1210 l 763 1239 q 668 1124 729 1157 q 535 1090 607 1090 z "},"Ô":{"ha":1072,"x_min":86,"x_max":986,"o":"m 536 -11 q 297 50 397 -11 q 141 225 196 111 q 86 494 86 339 q 140 765 86 651 q 295 939 194 878 q 536 1000 396 1000 q 776 939 675 1000 q 932 765 878 878 q 986 496 986 651 q 931 225 986 339 q 776 50 876 111 q 536 -11 675 -11 m 536 86 q 781 192 693 86 q 868 496 868 299 q 781 798 868 693 q 536 903 693 903 q 291 797 379 903 q 203 496 203 692 q 291 193 203 300 q 536 86 379 86 m 432 1074 l 329 1074 l 496 1286 l 572 1286 l 739 1074 l 636 1074 l 535 1218 l 432 1074 z "},"Ố":{"ha":1072,"x_min":86,"x_max":986,"o":"m 536 -11 q 297 50 397 -11 q 141 225 196 111 q 86 494 86 339 q 140 765 86 651 q 295 939 194 878 q 536 1000 396 1000 q 776 939 675 1000 q 932 765 878 878 q 986 496 986 651 q 931 225 986 339 q 776 50 876 111 q 536 -11 675 -11 m 536 86 q 781 192 693 86 q 868 496 868 299 q 781 798 868 693 q 536 903 693 903 q 291 797 379 903 q 203 496 203 692 q 291 193 203 300 q 536 86 379 86 m 432 1074 l 329 1074 l 496 1279 l 572 1279 l 739 1074 l 636 1074 l 535 1213 l 432 1074 m 722 1218 l 653 1218 l 781 1415 l 900 1415 l 722 1218 z "},"Ộ":{"ha":1072,"x_min":86,"x_max":986,"o":"m 536 -11 q 297 50 397 -11 q 141 225 196 111 q 86 494 86 339 q 140 765 86 651 q 295 939 194 878 q 536 1000 396 1000 q 776 939 675 1000 q 932 765 878 878 q 986 496 986 651 q 931 225 986 339 q 776 50 876 111 q 536 -11 675 -11 m 536 86 q 781 192 693 86 q 868 496 868 299 q 781 798 868 693 q 536 903 693 903 q 291 797 379 903 q 203 496 203 692 q 291 193 203 300 q 536 86 379 86 m 471 -132 l 600 -132 l 600 -256 l 471 -256 l 471 -132 m 432 1074 l 329 1074 l 496 1286 l 572 1286 l 739 1074 l 636 1074 l 535 1218 l 432 1074 z "},"Ồ":{"ha":1072,"x_min":86,"x_max":986,"o":"m 536 -11 q 297 50 397 -11 q 141 225 196 111 q 86 494 86 339 q 140 765 86 651 q 295 939 194 878 q 536 1000 396 1000 q 776 939 675 1000 q 932 765 878 878 q 986 496 986 651 q 931 225 986 339 q 776 50 876 111 q 536 -11 675 -11 m 536 86 q 781 192 693 86 q 868 496 868 299 q 781 798 868 693 q 536 903 693 903 q 291 797 379 903 q 203 496 203 692 q 291 193 203 300 q 536 86 379 86 m 432 1074 l 329 1074 l 496 1279 l 572 1279 l 739 1074 l 636 1074 l 535 1213 l 432 1074 m 713 1218 l 556 1415 l 674 1415 l 782 1218 l 713 1218 z "},"Ổ":{"ha":1072,"x_min":86,"x_max":986,"o":"m 536 -11 q 297 50 397 -11 q 141 225 196 111 q 86 494 86 339 q 140 765 86 651 q 295 939 194 878 q 536 1000 396 1000 q 776 939 675 1000 q 932 765 878 878 q 986 496 986 651 q 931 225 986 339 q 776 50 876 111 q 536 -11 675 -11 m 536 86 q 781 192 693 86 q 868 496 868 299 q 781 798 868 693 q 536 903 693 903 q 291 797 379 903 q 203 496 203 692 q 291 193 203 300 q 536 86 379 86 m 432 1074 l 329 1074 l 496 1279 l 572 1279 l 739 1074 l 636 1074 l 535 1213 l 432 1074 m 726 1231 l 726 1218 l 651 1218 l 651 1242 q 665 1278 651 1265 q 698 1298 679 1290 q 731 1312 717 1306 q 746 1331 746 1318 q 731 1350 746 1343 q 689 1357 717 1357 q 649 1353 669 1357 q 603 1340 628 1350 l 583 1399 q 638 1417 608 1410 q 697 1424 667 1424 q 799 1399 763 1424 q 836 1335 836 1374 q 819 1295 836 1308 q 781 1274 803 1282 q 743 1256 760 1265 q 726 1231 726 1247 z "},"Ỗ":{"ha":1072,"x_min":86,"x_max":986,"o":"m 536 -11 q 297 50 397 -11 q 141 225 196 111 q 86 494 86 339 q 140 765 86 651 q 295 939 194 878 q 536 1000 396 1000 q 776 939 675 1000 q 932 765 878 878 q 986 496 986 651 q 931 225 986 339 q 776 50 876 111 q 536 -11 675 -11 m 536 86 q 781 192 693 86 q 868 496 868 299 q 781 798 868 693 q 536 903 693 903 q 291 797 379 903 q 203 496 203 692 q 291 193 203 300 q 536 86 379 86 m 432 1074 l 329 1074 l 496 1279 l 572 1279 l 739 1074 l 636 1074 l 535 1213 l 432 1074 m 308 1300 q 324 1372 308 1340 q 368 1420 340 1403 q 433 1438 396 1438 q 508 1423 472 1438 q 574 1393 543 1408 q 632 1378 606 1378 q 681 1397 664 1378 q 697 1440 697 1417 l 760 1440 q 744 1369 760 1400 q 700 1319 728 1338 q 635 1301 672 1301 q 560 1317 596 1301 q 494 1347 525 1332 q 436 1363 463 1363 q 388 1343 404 1363 q 371 1300 371 1324 l 308 1300 z "},"Ȍ":{"ha":1072,"x_min":86,"x_max":986,"o":"m 536 -11 q 297 50 397 -11 q 141 225 196 111 q 86 494 86 339 q 140 765 86 651 q 295 939 194 878 q 536 1000 396 1000 q 776 939 675 1000 q 932 765 878 878 q 986 496 986 651 q 931 225 986 339 q 776 50 876 111 q 536 -11 675 -11 m 536 86 q 781 192 693 86 q 868 496 868 299 q 781 798 868 693 q 536 903 693 903 q 291 797 379 903 q 203 496 203 692 q 291 193 203 300 q 536 86 379 86 m 588 1074 l 450 1286 l 550 1286 l 649 1074 l 588 1074 m 419 1074 l 283 1286 l 381 1286 l 481 1074 l 419 1074 z "},"Ö":{"ha":1072,"x_min":86,"x_max":986,"o":"m 536 -11 q 297 50 397 -11 q 141 225 196 111 q 86 494 86 339 q 140 765 86 651 q 295 939 194 878 q 536 1000 396 1000 q 776 939 675 1000 q 932 765 878 878 q 986 496 986 651 q 931 225 986 339 q 776 50 876 111 q 536 -11 675 -11 m 536 86 q 781 192 693 86 q 868 496 868 299 q 781 798 868 693 q 536 903 693 903 q 291 797 379 903 q 203 496 203 692 q 291 193 203 300 q 536 86 379 86 m 592 1240 l 717 1240 l 717 1121 l 592 1121 l 592 1240 m 351 1240 l 476 1240 l 476 1121 l 351 1121 l 351 1240 z "},"Ȫ":{"ha":1072,"x_min":86,"x_max":986,"o":"m 536 -11 q 297 50 397 -11 q 141 225 196 111 q 86 494 86 339 q 140 765 86 651 q 295 939 194 878 q 536 1000 396 1000 q 776 939 675 1000 q 932 765 878 878 q 986 496 986 651 q 931 225 986 339 q 776 50 876 111 q 536 -11 675 -11 m 536 86 q 781 192 693 86 q 868 496 868 299 q 781 798 868 693 q 536 903 693 903 q 291 797 379 903 q 203 496 203 692 q 291 193 203 300 q 536 86 379 86 m 592 1240 l 717 1240 l 717 1121 l 592 1121 l 592 1240 m 351 1240 l 476 1240 l 476 1121 l 351 1121 l 351 1240 m 324 1363 l 324 1449 l 744 1449 l 744 1363 l 324 1363 z "},"Ȱ":{"ha":1072,"x_min":86,"x_max":986,"o":"m 536 -11 q 297 50 397 -11 q 141 225 196 111 q 86 494 86 339 q 140 765 86 651 q 295 939 194 878 q 536 1000 396 1000 q 776 939 675 1000 q 932 765 878 878 q 986 496 986 651 q 931 225 986 339 q 776 50 876 111 q 536 -11 675 -11 m 536 86 q 781 192 693 86 q 868 496 868 299 q 781 798 868 693 q 536 903 693 903 q 291 797 379 903 q 203 496 203 692 q 291 193 203 300 q 536 86 379 86 m 465 1244 l 603 1244 l 603 1117 l 465 1117 l 465 1244 m 324 1363 l 324 1449 l 744 1449 l 744 1363 l 324 1363 z "},"Ọ":{"ha":1072,"x_min":86,"x_max":986,"o":"m 536 -11 q 297 50 397 -11 q 141 225 196 111 q 86 494 86 339 q 140 765 86 651 q 295 939 194 878 q 536 1000 396 1000 q 776 939 675 1000 q 932 765 878 878 q 986 496 986 651 q 931 225 986 339 q 776 50 876 111 q 536 -11 675 -11 m 536 86 q 781 192 693 86 q 868 496 868 299 q 781 798 868 693 q 536 903 693 903 q 291 797 379 903 q 203 496 203 692 q 291 193 203 300 q 536 86 379 86 m 471 -132 l 600 -132 l 600 -256 l 471 -256 l 471 -132 z "},"Ò":{"ha":1072,"x_min":86,"x_max":986,"o":"m 536 -11 q 297 50 397 -11 q 141 225 196 111 q 86 494 86 339 q 140 765 86 651 q 295 939 194 878 q 536 1000 396 1000 q 776 939 675 1000 q 932 765 878 878 q 986 496 986 651 q 931 225 986 339 q 776 50 876 111 q 536 -11 675 -11 m 536 86 q 781 192 693 86 q 868 496 868 299 q 781 798 868 693 q 536 903 693 903 q 291 797 379 903 q 203 496 203 692 q 291 193 203 300 q 536 86 379 86 m 494 1074 l 308 1286 l 432 1286 l 574 1074 l 494 1074 z "},"Ỏ":{"ha":1072,"x_min":86,"x_max":986,"o":"m 536 -11 q 297 50 397 -11 q 141 225 196 111 q 86 494 86 339 q 140 765 86 651 q 295 939 194 878 q 536 1000 396 1000 q 776 939 675 1000 q 932 765 878 878 q 986 496 986 651 q 931 225 986 339 q 776 50 876 111 q 536 -11 675 -11 m 536 86 q 781 192 693 86 q 868 496 868 299 q 781 798 868 693 q 536 903 693 903 q 291 797 379 903 q 203 496 203 692 q 291 193 203 300 q 536 86 379 86 m 572 1088 l 572 1074 l 497 1074 l 497 1099 q 511 1136 497 1122 q 544 1159 525 1150 q 577 1177 563 1168 q 592 1199 592 1186 q 577 1218 592 1211 q 535 1225 563 1225 q 494 1222 515 1225 q 449 1208 474 1218 l 429 1268 q 483 1285 454 1279 q 543 1292 513 1292 q 644 1267 608 1292 q 681 1203 681 1242 q 664 1160 681 1175 q 626 1135 647 1144 q 589 1115 606 1125 q 572 1088 572 1104 z "},"Ơ":{"ha":1072,"x_min":86,"x_max":986,"o":"m 536 -11 q 297 50 397 -11 q 141 225 196 111 q 86 494 86 339 q 140 765 86 651 q 297 939 194 878 q 540 1000 399 1000 q 640 994 590 1000 q 731 989 689 989 q 850 1025 815 990 q 885 1143 885 1060 l 885 1164 l 986 1164 l 986 1126 q 960 1015 986 1063 q 885 943 933 968 q 769 918 836 918 l 769 939 q 931 766 875 879 q 986 496 986 653 q 931 225 986 339 q 775 50 876 111 q 536 -11 674 -11 m 536 86 q 781 192 693 86 q 868 496 868 299 q 781 798 868 693 q 536 903 693 903 q 291 797 379 903 q 203 496 203 692 q 291 193 203 300 q 536 86 379 86 z "},"Ớ":{"ha":1072,"x_min":86,"x_max":986,"o":"m 536 -11 q 297 50 397 -11 q 141 225 196 111 q 86 494 86 339 q 140 765 86 651 q 297 939 194 878 q 540 1000 399 1000 q 640 994 590 1000 q 731 989 689 989 q 850 1025 815 990 q 885 1143 885 1060 l 885 1164 l 986 1164 l 986 1126 q 960 1015 986 1063 q 885 943 933 968 q 769 918 836 918 l 769 939 q 931 766 875 879 q 986 496 986 653 q 931 225 986 339 q 775 50 876 111 q 536 -11 674 -11 m 536 86 q 781 192 693 86 q 868 496 868 299 q 781 798 868 693 q 536 903 693 903 q 291 797 379 903 q 203 496 203 692 q 291 193 203 300 q 536 86 379 86 m 574 1074 l 494 1074 l 636 1286 l 760 1286 l 574 1074 z "},"Ợ":{"ha":1072,"x_min":86,"x_max":986,"o":"m 536 -11 q 297 50 397 -11 q 141 225 196 111 q 86 494 86 339 q 140 765 86 651 q 297 939 194 878 q 540 1000 399 1000 q 640 994 590 1000 q 731 989 689 989 q 850 1025 815 990 q 885 1143 885 1060 l 885 1164 l 986 1164 l 986 1126 q 960 1015 986 1063 q 885 943 933 968 q 769 918 836 918 l 769 939 q 931 766 875 879 q 986 496 986 653 q 931 225 986 339 q 775 50 876 111 q 536 -11 674 -11 m 536 86 q 781 192 693 86 q 868 496 868 299 q 781 798 868 693 q 536 903 693 903 q 291 797 379 903 q 203 496 203 692 q 291 193 203 300 q 536 86 379 86 m 471 -132 l 600 -132 l 600 -256 l 471 -256 l 471 -132 z "},"Ờ":{"ha":1072,"x_min":86,"x_max":986,"o":"m 536 -11 q 297 50 397 -11 q 141 225 196 111 q 86 494 86 339 q 140 765 86 651 q 297 939 194 878 q 540 1000 399 1000 q 640 994 590 1000 q 731 989 689 989 q 850 1025 815 990 q 885 1143 885 1060 l 885 1164 l 986 1164 l 986 1126 q 960 1015 986 1063 q 885 943 933 968 q 769 918 836 918 l 769 939 q 931 766 875 879 q 986 496 986 653 q 931 225 986 339 q 775 50 876 111 q 536 -11 674 -11 m 536 86 q 781 192 693 86 q 868 496 868 299 q 781 798 868 693 q 536 903 693 903 q 291 797 379 903 q 203 496 203 692 q 291 193 203 300 q 536 86 379 86 m 494 1074 l 308 1286 l 432 1286 l 574 1074 l 494 1074 z "},"Ở":{"ha":1072,"x_min":86,"x_max":986,"o":"m 536 -11 q 297 50 397 -11 q 141 225 196 111 q 86 494 86 339 q 140 765 86 651 q 297 939 194 878 q 540 1000 399 1000 q 640 994 590 1000 q 731 989 689 989 q 850 1025 815 990 q 885 1143 885 1060 l 885 1164 l 986 1164 l 986 1126 q 960 1015 986 1063 q 885 943 933 968 q 769 918 836 918 l 769 939 q 931 766 875 879 q 986 496 986 653 q 931 225 986 339 q 775 50 876 111 q 536 -11 674 -11 m 536 86 q 781 192 693 86 q 868 496 868 299 q 781 798 868 693 q 536 903 693 903 q 291 797 379 903 q 203 496 203 692 q 291 193 203 300 q 536 86 379 86 m 572 1088 l 572 1074 l 497 1074 l 497 1099 q 511 1136 497 1122 q 544 1159 525 1150 q 577 1177 563 1168 q 592 1199 592 1186 q 577 1218 592 1211 q 535 1225 563 1225 q 494 1222 515 1225 q 449 1208 474 1218 l 429 1268 q 483 1285 454 1279 q 543 1292 513 1292 q 644 1267 608 1292 q 681 1203 681 1242 q 664 1160 681 1175 q 626 1135 647 1144 q 589 1115 606 1125 q 572 1088 572 1104 z "},"Ỡ":{"ha":1072,"x_min":86,"x_max":986,"o":"m 536 -11 q 297 50 397 -11 q 141 225 196 111 q 86 494 86 339 q 140 765 86 651 q 297 939 194 878 q 540 1000 399 1000 q 640 994 590 1000 q 731 989 689 989 q 850 1025 815 990 q 885 1143 885 1060 l 885 1164 l 986 1164 l 986 1126 q 960 1015 986 1063 q 885 943 933 968 q 769 918 836 918 l 769 939 q 931 766 875 879 q 986 496 986 653 q 931 225 986 339 q 775 50 876 111 q 536 -11 674 -11 m 536 86 q 781 192 693 86 q 868 496 868 299 q 781 798 868 693 q 536 903 693 903 q 291 797 379 903 q 203 496 203 692 q 291 193 203 300 q 536 86 379 86 m 308 1103 q 343 1222 308 1181 q 433 1264 378 1264 q 508 1244 472 1264 q 574 1203 543 1224 q 632 1183 606 1183 q 681 1206 664 1183 q 697 1260 697 1229 l 760 1260 q 725 1140 760 1182 q 635 1099 690 1099 q 560 1119 596 1099 q 494 1159 525 1139 q 436 1179 463 1179 q 388 1156 404 1179 q 371 1103 371 1133 l 308 1103 z "},"Ő":{"ha":1072,"x_min":86,"x_max":986,"o":"m 536 -11 q 297 50 397 -11 q 141 225 196 111 q 86 494 86 339 q 140 765 86 651 q 295 939 194 878 q 536 1000 396 1000 q 776 939 675 1000 q 932 765 878 878 q 986 496 986 651 q 931 225 986 339 q 776 50 876 111 q 536 -11 675 -11 m 536 86 q 781 192 693 86 q 868 496 868 299 q 781 798 868 693 q 536 903 693 903 q 291 797 379 903 q 203 496 203 692 q 291 193 203 300 q 536 86 379 86 m 588 1074 l 688 1286 l 785 1286 l 649 1074 l 588 1074 m 419 1074 l 518 1286 l 618 1286 l 481 1074 l 419 1074 z "},"Ȏ":{"ha":1072,"x_min":86,"x_max":986,"o":"m 536 -11 q 297 50 397 -11 q 141 225 196 111 q 86 494 86 339 q 140 765 86 651 q 295 939 194 878 q 536 1000 396 1000 q 776 939 675 1000 q 932 765 878 878 q 986 496 986 651 q 931 225 986 339 q 776 50 876 111 q 536 -11 675 -11 m 536 86 q 781 192 693 86 q 868 496 868 299 q 781 798 868 693 q 536 903 693 903 q 291 797 379 903 q 203 496 203 692 q 291 193 203 300 q 536 86 379 86 m 535 1271 q 669 1237 607 1271 q 763 1122 731 1203 l 692 1092 q 620 1170 658 1150 q 535 1190 582 1190 q 449 1170 488 1190 q 376 1092 410 1150 l 306 1122 q 400 1237 339 1203 q 535 1271 461 1271 z "},"Ō":{"ha":1072,"x_min":86,"x_max":986,"o":"m 536 -11 q 297 50 397 -11 q 141 225 196 111 q 86 494 86 339 q 140 765 86 651 q 295 939 194 878 q 536 1000 396 1000 q 776 939 675 1000 q 932 765 878 878 q 986 496 986 651 q 931 225 986 339 q 776 50 876 111 q 536 -11 675 -11 m 536 86 q 781 192 693 86 q 868 496 868 299 q 781 798 868 693 q 536 903 693 903 q 291 797 379 903 q 203 496 203 692 q 291 193 203 300 q 536 86 379 86 m 324 1138 l 324 1224 l 744 1224 l 744 1138 l 324 1138 z "},"Ṓ":{"ha":1072,"x_min":86,"x_max":986,"o":"m 536 -11 q 297 50 397 -11 q 141 225 196 111 q 86 494 86 339 q 140 765 86 651 q 295 939 194 878 q 536 1000 396 1000 q 776 939 675 1000 q 932 765 878 878 q 986 496 986 651 q 931 225 986 339 q 776 50 876 111 q 536 -11 675 -11 m 536 86 q 781 192 693 86 q 868 496 868 299 q 781 798 868 693 q 536 903 693 903 q 291 797 379 903 q 203 496 203 692 q 291 193 203 300 q 536 86 379 86 m 324 1138 l 324 1224 l 744 1224 l 744 1138 l 324 1138 m 574 1299 l 494 1299 l 636 1511 l 760 1511 l 574 1299 z "},"Ṑ":{"ha":1072,"x_min":86,"x_max":986,"o":"m 536 -11 q 297 50 397 -11 q 141 225 196 111 q 86 494 86 339 q 140 765 86 651 q 295 939 194 878 q 536 1000 396 1000 q 776 939 675 1000 q 932 765 878 878 q 986 496 986 651 q 931 225 986 339 q 776 50 876 111 q 536 -11 675 -11 m 536 86 q 781 192 693 86 q 868 496 868 299 q 781 798 868 693 q 536 903 693 903 q 291 797 379 903 q 203 496 203 692 q 291 193 203 300 q 536 86 379 86 m 324 1138 l 324 1224 l 744 1224 l 744 1138 l 324 1138 m 494 1299 l 308 1511 l 432 1511 l 574 1299 l 494 1299 z "},"Ǫ":{"ha":1072,"x_min":86,"x_max":986,"o":"m 669 6 q 567 -108 567 -24 q 592 -173 567 -150 q 660 -196 617 -196 q 698 -190 678 -196 q 740 -172 718 -183 l 763 -239 q 643 -271 713 -271 q 524 -229 571 -271 q 478 -124 478 -187 q 499 -44 478 -81 q 557 15 519 -7 l 569 -11 q 313 40 422 -19 q 145 216 204 100 q 86 494 86 332 q 140 765 86 651 q 296 939 194 878 q 536 1000 397 1000 q 776 939 675 1000 q 931 765 876 878 q 986 496 986 651 q 903 175 986 303 q 669 6 821 47 m 203 496 q 291 193 203 300 q 536 86 379 86 q 781 192 693 86 q 868 496 868 299 q 781 798 868 693 q 536 903 693 903 q 291 797 379 903 q 203 496 203 692 z "},"Ø":{"ha":1072,"x_min":86,"x_max":986,"o":"m 536 -11 q 297 50 397 -11 q 141 225 196 111 q 86 494 86 339 q 140 765 86 651 q 295 939 194 878 q 536 1000 396 1000 q 776 939 675 1000 q 932 765 878 878 q 986 496 986 651 q 931 225 986 339 q 776 50 876 111 q 536 -11 675 -11 m 263 -65 l 183 -19 l 810 1054 l 888 1008 l 263 -65 m 536 86 q 781 192 693 86 q 868 496 868 299 q 781 798 868 693 q 536 903 693 903 q 291 797 379 903 q 203 496 203 692 q 291 193 203 300 q 536 86 379 86 z "},"Ǿ":{"ha":1072,"x_min":86,"x_max":986,"o":"m 536 -11 q 297 50 397 -11 q 141 225 196 111 q 86 494 86 339 q 140 765 86 651 q 295 939 194 878 q 536 1000 396 1000 q 776 939 675 1000 q 932 765 878 878 q 986 496 986 651 q 931 225 986 339 q 776 50 876 111 q 536 -11 675 -11 m 263 -65 l 183 -19 l 810 1054 l 888 1008 l 263 -65 m 536 86 q 781 192 693 86 q 868 496 868 299 q 781 798 868 693 q 536 903 693 903 q 291 797 379 903 q 203 496 203 692 q 291 193 203 300 q 536 86 379 86 m 574 1074 l 494 1074 l 636 1286 l 760 1286 l 574 1074 z "},"Õ":{"ha":1072,"x_min":86,"x_max":986,"o":"m 536 -11 q 297 50 397 -11 q 141 225 196 111 q 86 494 86 339 q 140 765 86 651 q 295 939 194 878 q 536 1000 396 1000 q 776 939 675 1000 q 932 765 878 878 q 986 496 986 651 q 931 225 986 339 q 776 50 876 111 q 536 -11 675 -11 m 536 86 q 781 192 693 86 q 868 496 868 299 q 781 798 868 693 q 536 903 693 903 q 291 797 379 903 q 203 496 203 692 q 291 193 203 300 q 536 86 379 86 m 308 1103 q 343 1222 308 1181 q 433 1264 378 1264 q 508 1244 472 1264 q 574 1203 543 1224 q 632 1183 606 1183 q 681 1206 664 1183 q 697 1260 697 1229 l 760 1260 q 725 1140 760 1182 q 635 1099 690 1099 q 560 1119 596 1099 q 494 1159 525 1139 q 436 1179 463 1179 q 388 1156 404 1179 q 371 1103 371 1133 l 308 1103 z "},"Ṍ":{"ha":1072,"x_min":86,"x_max":986,"o":"m 536 -11 q 297 50 397 -11 q 141 225 196 111 q 86 494 86 339 q 140 765 86 651 q 295 939 194 878 q 536 1000 396 1000 q 776 939 675 1000 q 932 765 878 878 q 986 496 986 651 q 931 225 986 339 q 776 50 876 111 q 536 -11 675 -11 m 536 86 q 781 192 693 86 q 868 496 868 299 q 781 798 868 693 q 536 903 693 903 q 291 797 379 903 q 203 496 203 692 q 291 193 203 300 q 536 86 379 86 m 308 1103 q 343 1222 308 1181 q 433 1264 378 1264 q 508 1244 472 1264 q 574 1203 543 1224 q 632 1183 606 1183 q 681 1206 664 1183 q 697 1260 697 1229 l 760 1260 q 725 1140 760 1182 q 635 1099 690 1099 q 560 1119 596 1099 q 494 1159 525 1139 q 436 1179 463 1179 q 388 1156 404 1179 q 371 1103 371 1133 l 308 1103 m 574 1299 l 494 1299 l 636 1511 l 760 1511 l 574 1299 z "},"Ṏ":{"ha":1072,"x_min":86,"x_max":986,"o":"m 536 -11 q 297 50 397 -11 q 141 225 196 111 q 86 494 86 339 q 140 765 86 651 q 295 939 194 878 q 536 1000 396 1000 q 776 939 675 1000 q 932 765 878 878 q 986 496 986 651 q 931 225 986 339 q 776 50 876 111 q 536 -11 675 -11 m 536 86 q 781 192 693 86 q 868 496 868 299 q 781 798 868 693 q 536 903 693 903 q 291 797 379 903 q 203 496 203 692 q 291 193 203 300 q 536 86 379 86 m 308 1103 q 343 1222 308 1181 q 433 1264 378 1264 q 508 1244 472 1264 q 574 1203 543 1224 q 632 1183 606 1183 q 681 1206 664 1183 q 697 1260 697 1229 l 760 1260 q 725 1140 760 1182 q 635 1099 690 1099 q 560 1119 596 1099 q 494 1159 525 1139 q 436 1179 463 1179 q 388 1156 404 1179 q 371 1103 371 1133 l 308 1103 m 592 1465 l 717 1465 l 717 1346 l 592 1346 l 592 1465 m 351 1465 l 476 1465 l 476 1346 l 351 1346 l 351 1465 z "},"Ȭ":{"ha":1072,"x_min":86,"x_max":986,"o":"m 536 -11 q 297 50 397 -11 q 141 225 196 111 q 86 494 86 339 q 140 765 86 651 q 295 939 194 878 q 536 1000 396 1000 q 776 939 675 1000 q 932 765 878 878 q 986 496 986 651 q 931 225 986 339 q 776 50 876 111 q 536 -11 675 -11 m 536 86 q 781 192 693 86 q 868 496 868 299 q 781 798 868 693 q 536 903 693 903 q 291 797 379 903 q 203 496 203 692 q 291 193 203 300 q 536 86 379 86 m 308 1103 q 343 1222 308 1181 q 433 1264 378 1264 q 508 1244 472 1264 q 574 1203 543 1224 q 632 1183 606 1183 q 681 1206 664 1183 q 697 1260 697 1229 l 760 1260 q 725 1140 760 1182 q 635 1099 690 1099 q 560 1119 596 1099 q 494 1159 525 1139 q 436 1179 463 1179 q 388 1156 404 1179 q 371 1103 371 1133 l 308 1103 m 324 1363 l 324 1449 l 744 1449 l 744 1363 l 324 1363 z "},"Œ":{"ha":1467,"x_min":86,"x_max":1397,"o":"m 776 0 l 776 97 l 772 129 l 772 868 l 776 892 l 776 989 l 1397 989 l 1397 894 l 885 894 l 885 550 l 1369 550 l 1369 454 l 885 454 l 885 94 l 1397 94 l 1397 0 l 776 0 m 801 794 q 691 875 758 847 q 536 903 624 903 q 290 796 376 903 q 203 496 203 689 q 290 194 203 301 q 536 86 378 86 q 801 196 713 86 l 801 86 q 528 -11 700 -11 q 294 51 393 -11 q 140 226 194 113 q 86 494 86 340 q 140 763 86 650 q 294 938 194 876 q 528 1000 393 1000 q 801 906 699 1000 l 801 794 z "},"P":{"ha":904,"x_min":122,"x_max":840,"o":"m 122 0 l 122 989 l 517 989 q 755 915 669 989 q 840 713 840 842 q 754 510 840 585 q 517 435 668 435 l 236 435 l 236 0 l 122 0 m 236 529 l 507 529 q 672 577 617 529 q 728 713 728 625 q 672 847 728 800 q 507 894 617 894 l 236 894 l 236 529 z "},"Þ":{"ha":904,"x_min":122,"x_max":840,"o":"m 217 235 l 217 329 l 511 329 q 675 372 622 329 q 728 504 728 415 q 675 635 728 593 q 511 676 622 676 l 217 676 l 217 771 l 524 771 q 758 701 675 771 q 840 504 840 632 q 757 306 840 376 q 524 235 674 235 l 217 235 m 122 0 l 122 989 l 235 989 l 235 0 l 122 0 z "},"Q":{"ha":1072,"x_min":86,"x_max":986,"o":"m 803 -265 q 685 -150 743 -221 q 583 -6 626 -79 l 694 32 q 779 -93 731 -39 q 882 -193 828 -147 l 803 -265 m 536 -11 q 297 50 397 -11 q 141 225 196 111 q 86 494 86 339 q 140 765 86 651 q 295 939 194 878 q 536 1000 396 1000 q 776 939 675 1000 q 932 765 878 878 q 986 496 986 651 q 931 225 986 339 q 776 50 876 111 q 536 -11 675 -11 m 536 86 q 781 192 693 86 q 868 496 868 299 q 781 798 868 693 q 536 903 693 903 q 291 797 379 903 q 203 496 203 692 q 291 193 203 300 q 536 86 379 86 z "},"R":{"ha":963,"x_min":122,"x_max":899,"o":"m 122 0 l 122 989 l 515 989 q 760 918 675 989 q 846 714 846 847 q 759 513 846 586 q 515 440 672 440 l 618 460 q 711 430 672 460 q 774 335 750 400 l 899 0 l 778 0 l 656 329 q 591 412 632 392 q 482 432 550 432 l 235 432 l 235 0 l 122 0 m 235 526 l 506 526 q 677 574 621 526 q 733 713 733 621 q 678 849 733 804 q 506 894 622 894 l 235 894 l 235 526 z "},"Ŕ":{"ha":963,"x_min":122,"x_max":899,"o":"m 122 0 l 122 989 l 515 989 q 760 918 675 989 q 846 714 846 847 q 759 513 846 586 q 515 440 672 440 l 618 460 q 711 430 672 460 q 774 335 750 400 l 899 0 l 778 0 l 656 329 q 591 412 632 392 q 482 432 550 432 l 235 432 l 235 0 l 122 0 m 235 526 l 506 526 q 677 574 621 526 q 733 713 733 621 q 678 849 733 804 q 506 894 622 894 l 235 894 l 235 526 m 517 1074 l 438 1074 l 579 1286 l 703 1286 l 517 1074 z "},"Ř":{"ha":963,"x_min":122,"x_max":899,"o":"m 122 0 l 122 989 l 515 989 q 760 918 675 989 q 846 714 846 847 q 759 513 846 586 q 515 440 672 440 l 618 460 q 711 430 672 460 q 774 335 750 400 l 899 0 l 778 0 l 656 329 q 591 412 632 392 q 482 432 550 432 l 235 432 l 235 0 l 122 0 m 235 526 l 506 526 q 677 574 621 526 q 733 713 733 621 q 678 849 733 804 q 506 894 622 894 l 235 894 l 235 526 m 579 1286 l 682 1286 l 515 1074 l 439 1074 l 272 1286 l 375 1286 l 478 1140 l 579 1286 z "},"Ŗ":{"ha":963,"x_min":122,"x_max":899,"o":"m 122 0 l 122 989 l 515 989 q 760 918 675 989 q 846 714 846 847 q 759 513 846 586 q 515 440 672 440 l 618 460 q 711 430 672 460 q 774 335 750 400 l 899 0 l 778 0 l 656 329 q 591 412 632 392 q 482 432 550 432 l 235 432 l 235 0 l 122 0 m 235 526 l 506 526 q 677 574 621 526 q 733 713 733 621 q 678 849 733 804 q 506 894 622 894 l 235 894 l 235 526 m 546 -101 l 546 -182 q 531 -279 546 -235 q 474 -364 517 -324 l 422 -325 q 464 -262 454 -292 q 474 -199 474 -232 l 506 -217 l 408 -217 l 408 -101 l 546 -101 z "},"Ȑ":{"ha":963,"x_min":122,"x_max":899,"o":"m 122 0 l 122 989 l 515 989 q 760 918 675 989 q 846 714 846 847 q 759 513 846 586 q 515 440 672 440 l 618 460 q 711 430 672 460 q 774 335 750 400 l 899 0 l 778 0 l 656 329 q 591 412 632 392 q 482 432 550 432 l 235 432 l 235 0 l 122 0 m 235 526 l 506 526 q 677 574 621 526 q 733 713 733 621 q 678 849 733 804 q 506 894 622 894 l 235 894 l 235 526 m 531 1074 l 393 1286 l 493 1286 l 592 1074 l 531 1074 m 363 1074 l 226 1286 l 324 1286 l 424 1074 l 363 1074 z "},"Ṛ":{"ha":963,"x_min":122,"x_max":899,"o":"m 122 0 l 122 989 l 515 989 q 760 918 675 989 q 846 714 846 847 q 759 513 846 586 q 515 440 672 440 l 618 460 q 711 430 672 460 q 774 335 750 400 l 899 0 l 778 0 l 656 329 q 591 412 632 392 q 482 432 550 432 l 235 432 l 235 0 l 122 0 m 235 526 l 506 526 q 677 574 621 526 q 733 713 733 621 q 678 849 733 804 q 506 894 622 894 l 235 894 l 235 526 m 413 -132 l 542 -132 l 542 -256 l 413 -256 l 413 -132 z "},"Ȓ":{"ha":963,"x_min":122,"x_max":899,"o":"m 122 0 l 122 989 l 515 989 q 760 918 675 989 q 846 714 846 847 q 759 513 846 586 q 515 440 672 440 l 618 460 q 711 430 672 460 q 774 335 750 400 l 899 0 l 778 0 l 656 329 q 591 412 632 392 q 482 432 550 432 l 235 432 l 235 0 l 122 0 m 235 526 l 506 526 q 677 574 621 526 q 733 713 733 621 q 678 849 733 804 q 506 894 622 894 l 235 894 l 235 526 m 478 1271 q 612 1237 550 1271 q 706 1122 674 1203 l 635 1092 q 563 1170 601 1150 q 478 1190 525 1190 q 392 1170 431 1190 q 319 1092 353 1150 l 249 1122 q 343 1237 282 1203 q 478 1271 404 1271 z "},"Ṟ":{"ha":963,"x_min":122,"x_max":899,"o":"m 122 0 l 122 989 l 515 989 q 760 918 675 989 q 846 714 846 847 q 759 513 846 586 q 515 440 672 440 l 618 460 q 711 430 672 460 q 774 335 750 400 l 899 0 l 778 0 l 656 329 q 591 412 632 392 q 482 432 550 432 l 235 432 l 235 0 l 122 0 m 235 526 l 506 526 q 677 574 621 526 q 733 713 733 621 q 678 849 733 804 q 506 894 622 894 l 235 894 l 235 526 m 267 -236 l 267 -153 l 688 -153 l 688 -236 l 267 -236 z "},"S":{"ha":865,"x_min":67,"x_max":801,"o":"m 436 -11 q 293 2 360 -11 q 169 44 226 15 q 67 114 113 72 l 110 201 q 260 113 185 139 q 438 86 336 86 q 621 133 556 86 q 686 264 686 179 q 653 347 686 315 q 565 397 621 378 q 438 432 508 415 q 303 467 367 447 q 190 518 239 488 q 113 596 140 549 q 85 714 85 643 q 129 863 85 799 q 254 964 174 928 q 444 1000 335 1000 q 575 985 513 1000 q 691 943 638 971 q 786 875 744 915 l 742 788 q 601 875 674 847 q 444 903 529 903 q 264 854 329 903 q 199 718 199 806 q 228 631 199 664 q 310 577 257 597 q 431 540 363 557 q 569 504 503 524 q 688 456 636 485 q 771 383 740 428 q 801 268 801 338 q 757 121 801 183 q 631 24 713 58 q 436 -11 549 -11 z "},"Ś":{"ha":865,"x_min":67,"x_max":801,"o":"m 436 -11 q 293 2 360 -11 q 169 44 226 15 q 67 114 113 72 l 110 201 q 260 113 185 139 q 438 86 336 86 q 621 133 556 86 q 686 264 686 179 q 653 347 686 315 q 565 397 621 378 q 438 432 508 415 q 303 467 367 447 q 190 518 239 488 q 113 596 140 549 q 85 714 85 643 q 129 863 85 799 q 254 964 174 928 q 444 1000 335 1000 q 575 985 513 1000 q 691 943 638 971 q 786 875 744 915 l 742 788 q 601 875 674 847 q 444 903 529 903 q 264 854 329 903 q 199 718 199 806 q 228 631 199 664 q 310 577 257 597 q 431 540 363 557 q 569 504 503 524 q 688 456 636 485 q 771 383 740 428 q 801 268 801 338 q 757 121 801 183 q 631 24 713 58 q 436 -11 549 -11 m 472 1074 l 393 1074 l 535 1286 l 658 1286 l 472 1074 z "},"Ṥ":{"ha":865,"x_min":67,"x_max":801,"o":"m 436 -11 q 293 2 360 -11 q 169 44 226 15 q 67 114 113 72 l 110 201 q 260 113 185 139 q 438 86 336 86 q 621 133 556 86 q 686 264 686 179 q 653 347 686 315 q 565 397 621 378 q 438 432 508 415 q 303 467 367 447 q 190 518 239 488 q 113 596 140 549 q 85 714 85 643 q 129 863 85 799 q 254 964 174 928 q 444 1000 335 1000 q 575 985 513 1000 q 691 943 638 971 q 786 875 744 915 l 742 788 q 601 875 674 847 q 444 903 529 903 q 264 854 329 903 q 199 718 199 806 q 228 631 199 664 q 310 577 257 597 q 431 540 363 557 q 569 504 503 524 q 688 456 636 485 q 771 383 740 428 q 801 268 801 338 q 757 121 801 183 q 631 24 713 58 q 436 -11 549 -11 m 483 1074 l 404 1074 l 546 1286 l 669 1286 l 483 1074 m 207 1285 l 344 1285 l 344 1157 l 207 1157 l 207 1285 z "},"Š":{"ha":865,"x_min":67,"x_max":801,"o":"m 436 -11 q 293 2 360 -11 q 169 44 226 15 q 67 114 113 72 l 110 201 q 260 113 185 139 q 438 86 336 86 q 621 133 556 86 q 686 264 686 179 q 653 347 686 315 q 565 397 621 378 q 438 432 508 415 q 303 467 367 447 q 190 518 239 488 q 113 596 140 549 q 85 714 85 643 q 129 863 85 799 q 254 964 174 928 q 444 1000 335 1000 q 575 985 513 1000 q 691 943 638 971 q 786 875 744 915 l 742 788 q 601 875 674 847 q 444 903 529 903 q 264 854 329 903 q 199 718 199 806 q 228 631 199 664 q 310 577 257 597 q 431 540 363 557 q 569 504 503 524 q 688 456 636 485 q 771 383 740 428 q 801 268 801 338 q 757 121 801 183 q 631 24 713 58 q 436 -11 549 -11 m 535 1286 l 638 1286 l 471 1074 l 394 1074 l 228 1286 l 331 1286 l 433 1140 l 535 1286 z "},"Ṧ":{"ha":865,"x_min":67,"x_max":801,"o":"m 436 -11 q 293 2 360 -11 q 169 44 226 15 q 67 114 113 72 l 110 201 q 260 113 185 139 q 438 86 336 86 q 621 133 556 86 q 686 264 686 179 q 653 347 686 315 q 565 397 621 378 q 438 432 508 415 q 303 467 367 447 q 190 518 239 488 q 113 596 140 549 q 85 714 85 643 q 129 863 85 799 q 254 964 174 928 q 444 1000 335 1000 q 575 985 513 1000 q 691 943 638 971 q 786 875 744 915 l 742 788 q 601 875 674 847 q 444 903 529 903 q 264 854 329 903 q 199 718 199 806 q 228 631 199 664 q 310 577 257 597 q 431 540 363 557 q 569 504 503 524 q 688 456 636 485 q 771 383 740 428 q 801 268 801 338 q 757 121 801 183 q 631 24 713 58 q 436 -11 549 -11 m 535 1286 l 638 1286 l 471 1074 l 394 1074 l 228 1286 l 331 1286 l 433 1140 l 535 1286 m 364 1469 l 501 1469 l 501 1342 l 364 1342 l 364 1469 z "},"Ş":{"ha":865,"x_min":67,"x_max":801,"o":"m 436 -11 q 293 2 360 -11 q 169 44 226 15 q 67 114 113 72 l 110 201 q 260 113 185 139 q 438 86 336 86 q 621 133 556 86 q 686 264 686 179 q 653 347 686 315 q 565 397 621 378 q 438 432 508 415 q 303 467 367 447 q 190 518 239 488 q 113 596 140 549 q 85 714 85 643 q 129 863 85 799 q 254 964 174 928 q 444 1000 335 1000 q 575 985 513 1000 q 691 943 638 971 q 786 875 744 915 l 742 788 q 601 875 674 847 q 444 903 529 903 q 264 854 329 903 q 199 718 199 806 q 228 631 199 664 q 310 577 257 597 q 431 540 363 557 q 569 504 503 524 q 688 456 636 485 q 771 383 740 428 q 801 268 801 338 q 757 121 801 183 q 631 24 713 58 q 436 -11 549 -11 m 435 -271 q 372 -265 407 -271 q 311 -244 338 -258 l 329 -183 q 384 -199 358 -194 q 435 -203 410 -203 q 493 -190 474 -203 q 513 -154 513 -176 q 464 -117 513 -117 q 430 -120 446 -117 q 400 -129 414 -124 l 372 -107 l 388 28 l 467 28 l 456 -74 l 421 -71 q 456 -60 439 -64 q 490 -57 474 -57 q 564 -81 531 -57 q 597 -154 597 -104 q 555 -237 597 -204 q 435 -271 513 -271 z "},"Ŝ":{"ha":865,"x_min":67,"x_max":801,"o":"m 436 -11 q 293 2 360 -11 q 169 44 226 15 q 67 114 113 72 l 110 201 q 260 113 185 139 q 438 86 336 86 q 621 133 556 86 q 686 264 686 179 q 653 347 686 315 q 565 397 621 378 q 438 432 508 415 q 303 467 367 447 q 190 518 239 488 q 113 596 140 549 q 85 714 85 643 q 129 863 85 799 q 254 964 174 928 q 444 1000 335 1000 q 575 985 513 1000 q 691 943 638 971 q 786 875 744 915 l 742 788 q 601 875 674 847 q 444 903 529 903 q 264 854 329 903 q 199 718 199 806 q 228 631 199 664 q 310 577 257 597 q 431 540 363 557 q 569 504 503 524 q 688 456 636 485 q 771 383 740 428 q 801 268 801 338 q 757 121 801 183 q 631 24 713 58 q 436 -11 549 -11 m 331 1074 l 228 1074 l 394 1286 l 471 1286 l 638 1074 l 535 1074 l 433 1218 l 331 1074 z "},"Ș":{"ha":865,"x_min":67,"x_max":801,"o":"m 436 -11 q 293 2 360 -11 q 169 44 226 15 q 67 114 113 72 l 110 201 q 260 113 185 139 q 438 86 336 86 q 621 133 556 86 q 686 264 686 179 q 653 347 686 315 q 565 397 621 378 q 438 432 508 415 q 303 467 367 447 q 190 518 239 488 q 113 596 140 549 q 85 714 85 643 q 129 863 85 799 q 254 964 174 928 q 444 1000 335 1000 q 575 985 513 1000 q 691 943 638 971 q 786 875 744 915 l 742 788 q 601 875 674 847 q 444 903 529 903 q 264 854 329 903 q 199 718 199 806 q 228 631 199 664 q 310 577 257 597 q 431 540 363 557 q 569 504 503 524 q 688 456 636 485 q 771 383 740 428 q 801 268 801 338 q 757 121 801 183 q 631 24 713 58 q 436 -11 549 -11 m 506 -101 l 506 -182 q 491 -279 506 -235 q 433 -364 476 -324 l 382 -325 q 424 -262 414 -292 q 433 -199 433 -232 l 465 -217 l 368 -217 l 368 -101 l 506 -101 z "},"Ṡ":{"ha":865,"x_min":67,"x_max":801,"o":"m 436 -11 q 293 2 360 -11 q 169 44 226 15 q 67 114 113 72 l 110 201 q 260 113 185 139 q 438 86 336 86 q 621 133 556 86 q 686 264 686 179 q 653 347 686 315 q 565 397 621 378 q 438 432 508 415 q 303 467 367 447 q 190 518 239 488 q 113 596 140 549 q 85 714 85 643 q 129 863 85 799 q 254 964 174 928 q 444 1000 335 1000 q 575 985 513 1000 q 691 943 638 971 q 786 875 744 915 l 742 788 q 601 875 674 847 q 444 903 529 903 q 264 854 329 903 q 199 718 199 806 q 228 631 199 664 q 310 577 257 597 q 431 540 363 557 q 569 504 503 524 q 688 456 636 485 q 771 383 740 428 q 801 268 801 338 q 757 121 801 183 q 631 24 713 58 q 436 -11 549 -11 m 364 1244 l 501 1244 l 501 1117 l 364 1117 l 364 1244 z "},"Ṣ":{"ha":865,"x_min":67,"x_max":801,"o":"m 436 -11 q 293 2 360 -11 q 169 44 226 15 q 67 114 113 72 l 110 201 q 260 113 185 139 q 438 86 336 86 q 621 133 556 86 q 686 264 686 179 q 653 347 686 315 q 565 397 621 378 q 438 432 508 415 q 303 467 367 447 q 190 518 239 488 q 113 596 140 549 q 85 714 85 643 q 129 863 85 799 q 254 964 174 928 q 444 1000 335 1000 q 575 985 513 1000 q 691 943 638 971 q 786 875 744 915 l 742 788 q 601 875 674 847 q 444 903 529 903 q 264 854 329 903 q 199 718 199 806 q 228 631 199 664 q 310 577 257 597 q 431 540 363 557 q 569 504 503 524 q 688 456 636 485 q 771 383 740 428 q 801 268 801 338 q 757 121 801 183 q 631 24 713 58 q 436 -11 549 -11 m 372 -132 l 501 -132 l 501 -256 l 372 -256 l 372 -132 z "},"Ṩ":{"ha":865,"x_min":67,"x_max":801,"o":"m 436 -11 q 293 2 360 -11 q 169 44 226 15 q 67 114 113 72 l 110 201 q 260 113 185 139 q 438 86 336 86 q 621 133 556 86 q 686 264 686 179 q 653 347 686 315 q 565 397 621 378 q 438 432 508 415 q 303 467 367 447 q 190 518 239 488 q 113 596 140 549 q 85 714 85 643 q 129 863 85 799 q 254 964 174 928 q 444 1000 335 1000 q 575 985 513 1000 q 691 943 638 971 q 786 875 744 915 l 742 788 q 601 875 674 847 q 444 903 529 903 q 264 854 329 903 q 199 718 199 806 q 228 631 199 664 q 310 577 257 597 q 431 540 363 557 q 569 504 503 524 q 688 456 636 485 q 771 383 740 428 q 801 268 801 338 q 757 121 801 183 q 631 24 713 58 q 436 -11 549 -11 m 372 -132 l 501 -132 l 501 -256 l 372 -256 l 372 -132 m 364 1244 l 501 1244 l 501 1117 l 364 1117 l 364 1244 z "},"ẞ":{"ha":965,"x_min":122,"x_max":883,"o":"m 122 0 l 122 640 q 216 908 122 817 q 493 999 310 999 q 665 966 593 999 q 777 874 738 933 q 817 735 817 815 q 769 585 817 646 q 639 504 722 525 l 647 521 q 822 439 761 504 q 883 271 883 374 q 844 126 883 189 q 737 26 806 63 q 578 -10 668 -10 q 439 13 504 -10 q 322 81 374 35 l 361 168 q 469 105 418 125 q 572 86 519 85 q 718 138 665 88 q 771 275 771 188 q 712 409 771 364 q 536 454 653 454 l 357 454 l 357 550 l 493 550 q 649 596 594 550 q 704 728 704 642 q 648 856 704 810 q 492 901 592 901 q 299 835 363 901 q 235 635 235 769 l 235 0 l 122 0 z "},"Ə":{"ha":1042,"x_min":86,"x_max":956,"o":"m 525 -11 q 290 49 389 -11 q 139 222 192 110 q 86 492 86 335 l 86 550 l 892 550 l 892 453 l 172 453 l 203 496 q 286 193 201 300 q 522 86 371 86 q 756 193 674 86 q 839 496 839 300 q 747 797 839 692 q 488 903 656 903 q 322 874 399 903 q 178 788 244 846 l 133 875 q 233 942 176 914 q 354 985 289 971 q 489 1000 419 1000 q 737 939 632 1000 q 899 765 842 878 q 956 496 956 653 q 903 226 956 340 q 753 51 850 113 q 525 -11 656 -11 z "},"T":{"ha":838,"x_min":17,"x_max":821,"o":"m 361 0 l 361 892 l 17 892 l 17 989 l 821 989 l 821 892 l 476 892 l 476 0 l 361 0 z "},"Ŧ":{"ha":838,"x_min":17,"x_max":821,"o":"m 161 456 l 161 547 l 676 547 l 676 456 l 161 456 m 361 0 l 361 892 l 17 892 l 17 989 l 821 989 l 821 892 l 476 892 l 476 0 l 361 0 z "},"Ť":{"ha":838,"x_min":17,"x_max":821,"o":"m 361 0 l 361 892 l 17 892 l 17 989 l 821 989 l 821 892 l 476 892 l 476 0 l 361 0 m 521 1286 l 624 1286 l 457 1074 l 381 1074 l 214 1286 l 317 1286 l 419 1140 l 521 1286 z "},"Ţ":{"ha":838,"x_min":17,"x_max":821,"o":"m 361 0 l 361 892 l 17 892 l 17 989 l 821 989 l 821 892 l 476 892 l 476 0 l 361 0 m 421 -271 q 358 -265 393 -271 q 297 -244 324 -258 l 315 -183 q 370 -199 344 -194 q 421 -203 396 -203 q 479 -190 460 -203 q 499 -154 499 -176 q 450 -117 499 -117 q 416 -120 432 -117 q 386 -129 400 -124 l 358 -107 l 374 28 l 453 28 l 442 -74 l 407 -71 q 442 -60 425 -64 q 476 -57 460 -57 q 550 -81 517 -57 q 583 -154 583 -104 q 541 -237 583 -204 q 421 -271 499 -271 z "},"Ț":{"ha":838,"x_min":17,"x_max":821,"o":"m 361 0 l 361 892 l 17 892 l 17 989 l 821 989 l 821 892 l 476 892 l 476 0 l 361 0 m 488 -101 l 488 -182 q 473 -279 488 -235 q 415 -364 458 -324 l 364 -325 q 406 -262 396 -292 q 415 -199 415 -232 l 447 -217 l 350 -217 l 350 -101 l 488 -101 z "},"Ṭ":{"ha":838,"x_min":17,"x_max":821,"o":"m 361 0 l 361 892 l 17 892 l 17 989 l 821 989 l 821 892 l 476 892 l 476 0 l 361 0 m 354 -132 l 483 -132 l 483 -256 l 354 -256 l 354 -132 z "},"Ṯ":{"ha":838,"x_min":17,"x_max":821,"o":"m 361 0 l 361 892 l 17 892 l 17 989 l 821 989 l 821 892 l 476 892 l 476 0 l 361 0 m 208 -236 l 208 -153 l 629 -153 l 629 -236 l 208 -236 z "},"U":{"ha":1015,"x_min":115,"x_max":900,"o":"m 508 -11 q 215 90 315 -11 q 115 388 115 190 l 115 989 l 228 989 l 228 378 q 299 159 228 232 q 508 86 369 86 q 715 160 644 86 q 786 378 786 233 l 786 989 l 900 989 l 900 388 q 800 90 900 192 q 508 -11 700 -11 z "},"Ú":{"ha":1015,"x_min":115,"x_max":900,"o":"m 508 -11 q 215 90 315 -11 q 115 388 115 190 l 115 989 l 228 989 l 228 378 q 299 159 228 232 q 508 86 369 86 q 715 160 644 86 q 786 378 786 233 l 786 989 l 900 989 l 900 388 q 800 90 900 192 q 508 -11 700 -11 m 547 1074 l 468 1074 l 610 1286 l 733 1286 l 547 1074 z "},"Ŭ":{"ha":1015,"x_min":115,"x_max":900,"o":"m 508 -11 q 215 90 315 -11 q 115 388 115 190 l 115 989 l 228 989 l 228 378 q 299 159 228 232 q 508 86 369 86 q 715 160 644 86 q 786 378 786 233 l 786 989 l 900 989 l 900 388 q 800 90 900 192 q 508 -11 700 -11 m 508 1090 q 373 1124 435 1090 q 279 1239 311 1157 l 350 1269 q 422 1190 383 1210 q 508 1171 461 1171 q 594 1190 556 1171 q 665 1269 632 1210 l 736 1239 q 642 1124 703 1157 q 508 1090 581 1090 z "},"Û":{"ha":1015,"x_min":115,"x_max":900,"o":"m 508 -11 q 215 90 315 -11 q 115 388 115 190 l 115 989 l 228 989 l 228 378 q 299 159 228 232 q 508 86 369 86 q 715 160 644 86 q 786 378 786 233 l 786 989 l 900 989 l 900 388 q 800 90 900 192 q 508 -11 700 -11 m 406 1074 l 303 1074 l 469 1286 l 546 1286 l 713 1074 l 610 1074 l 508 1218 l 406 1074 z "},"Ȕ":{"ha":1015,"x_min":115,"x_max":900,"o":"m 508 -11 q 215 90 315 -11 q 115 388 115 190 l 115 989 l 228 989 l 228 378 q 299 159 228 232 q 508 86 369 86 q 715 160 644 86 q 786 378 786 233 l 786 989 l 900 989 l 900 388 q 800 90 900 192 q 508 -11 700 -11 m 561 1074 l 424 1286 l 524 1286 l 622 1074 l 561 1074 m 393 1074 l 257 1286 l 354 1286 l 454 1074 l 393 1074 z "},"Ü":{"ha":1015,"x_min":115,"x_max":900,"o":"m 508 -11 q 215 90 315 -11 q 115 388 115 190 l 115 989 l 228 989 l 228 378 q 299 159 228 232 q 508 86 369 86 q 715 160 644 86 q 786 378 786 233 l 786 989 l 900 989 l 900 388 q 800 90 900 192 q 508 -11 700 -11 m 565 1240 l 690 1240 l 690 1121 l 565 1121 l 565 1240 m 325 1240 l 450 1240 l 450 1121 l 325 1121 l 325 1240 z "},"Ụ":{"ha":1015,"x_min":115,"x_max":900,"o":"m 508 -11 q 215 90 315 -11 q 115 388 115 190 l 115 989 l 228 989 l 228 378 q 299 159 228 232 q 508 86 369 86 q 715 160 644 86 q 786 378 786 233 l 786 989 l 900 989 l 900 388 q 800 90 900 192 q 508 -11 700 -11 m 443 -132 l 572 -132 l 572 -256 l 443 -256 l 443 -132 z "},"Ù":{"ha":1015,"x_min":115,"x_max":900,"o":"m 508 -11 q 215 90 315 -11 q 115 388 115 190 l 115 989 l 228 989 l 228 378 q 299 159 228 232 q 508 86 369 86 q 715 160 644 86 q 786 378 786 233 l 786 989 l 900 989 l 900 388 q 800 90 900 192 q 508 -11 700 -11 m 468 1074 l 282 1286 l 406 1286 l 547 1074 l 468 1074 z "},"Ủ":{"ha":1015,"x_min":115,"x_max":900,"o":"m 508 -11 q 215 90 315 -11 q 115 388 115 190 l 115 989 l 228 989 l 228 378 q 299 159 228 232 q 508 86 369 86 q 715 160 644 86 q 786 378 786 233 l 786 989 l 900 989 l 900 388 q 800 90 900 192 q 508 -11 700 -11 m 546 1088 l 546 1074 l 471 1074 l 471 1099 q 485 1136 471 1122 q 517 1159 499 1150 q 551 1177 536 1168 q 565 1199 565 1186 q 551 1218 565 1211 q 508 1225 536 1225 q 468 1222 489 1225 q 422 1208 447 1218 l 403 1268 q 457 1285 428 1279 q 517 1292 486 1292 q 618 1267 582 1292 q 654 1203 654 1242 q 638 1160 654 1175 q 600 1135 621 1144 q 563 1115 579 1125 q 546 1088 546 1104 z "},"Ư":{"ha":1015,"x_min":115,"x_max":1064,"o":"m 964 1164 l 1064 1164 l 1064 1126 q 1008 976 1064 1031 q 851 918 951 921 l 900 964 l 900 388 q 800 90 900 192 q 508 -11 700 -11 q 215 90 315 -11 q 115 388 115 190 l 115 989 l 228 989 l 228 378 q 299 159 228 232 q 508 86 369 86 q 715 160 644 86 q 786 378 786 233 l 786 989 l 819 989 q 931 1025 897 990 q 964 1143 964 1060 l 964 1164 z "},"Ứ":{"ha":1015,"x_min":115,"x_max":1064,"o":"m 964 1164 l 1064 1164 l 1064 1126 q 1008 976 1064 1031 q 851 918 951 921 l 900 964 l 900 388 q 800 90 900 192 q 508 -11 700 -11 q 215 90 315 -11 q 115 388 115 190 l 115 989 l 228 989 l 228 378 q 299 159 228 232 q 508 86 369 86 q 715 160 644 86 q 786 378 786 233 l 786 989 l 819 989 q 931 1025 897 990 q 964 1143 964 1060 l 964 1164 m 547 1074 l 468 1074 l 610 1286 l 733 1286 l 547 1074 z "},"Ự":{"ha":1015,"x_min":115,"x_max":1064,"o":"m 964 1164 l 1064 1164 l 1064 1126 q 1008 976 1064 1031 q 851 918 951 921 l 900 964 l 900 388 q 800 90 900 192 q 508 -11 700 -11 q 215 90 315 -11 q 115 388 115 190 l 115 989 l 228 989 l 228 378 q 299 159 228 232 q 508 86 369 86 q 715 160 644 86 q 786 378 786 233 l 786 989 l 819 989 q 931 1025 897 990 q 964 1143 964 1060 l 964 1164 m 443 -132 l 572 -132 l 572 -256 l 443 -256 l 443 -132 z "},"Ừ":{"ha":1015,"x_min":115,"x_max":1064,"o":"m 964 1164 l 1064 1164 l 1064 1126 q 1008 976 1064 1031 q 851 918 951 921 l 900 964 l 900 388 q 800 90 900 192 q 508 -11 700 -11 q 215 90 315 -11 q 115 388 115 190 l 115 989 l 228 989 l 228 378 q 299 159 228 232 q 508 86 369 86 q 715 160 644 86 q 786 378 786 233 l 786 989 l 819 989 q 931 1025 897 990 q 964 1143 964 1060 l 964 1164 m 468 1074 l 282 1286 l 406 1286 l 547 1074 l 468 1074 z "},"Ử":{"ha":1015,"x_min":115,"x_max":1064,"o":"m 964 1164 l 1064 1164 l 1064 1126 q 1008 976 1064 1031 q 851 918 951 921 l 900 964 l 900 388 q 800 90 900 192 q 508 -11 700 -11 q 215 90 315 -11 q 115 388 115 190 l 115 989 l 228 989 l 228 378 q 299 159 228 232 q 508 86 369 86 q 715 160 644 86 q 786 378 786 233 l 786 989 l 819 989 q 931 1025 897 990 q 964 1143 964 1060 l 964 1164 m 546 1088 l 546 1074 l 471 1074 l 471 1099 q 485 1136 471 1122 q 517 1159 499 1150 q 551 1177 536 1168 q 565 1199 565 1186 q 551 1218 565 1211 q 508 1225 536 1225 q 468 1222 489 1225 q 422 1208 447 1218 l 403 1268 q 457 1285 428 1279 q 517 1292 486 1292 q 618 1267 582 1292 q 654 1203 654 1242 q 638 1160 654 1175 q 600 1135 621 1144 q 563 1115 579 1125 q 546 1088 546 1104 z "},"Ữ":{"ha":1015,"x_min":115,"x_max":1064,"o":"m 964 1164 l 1064 1164 l 1064 1126 q 1008 976 1064 1031 q 851 918 951 921 l 900 964 l 900 388 q 800 90 900 192 q 508 -11 700 -11 q 215 90 315 -11 q 115 388 115 190 l 115 989 l 228 989 l 228 378 q 299 159 228 232 q 508 86 369 86 q 715 160 644 86 q 786 378 786 233 l 786 989 l 819 989 q 931 1025 897 990 q 964 1143 964 1060 l 964 1164 m 282 1103 q 317 1222 282 1181 q 407 1264 351 1264 q 481 1244 446 1264 q 548 1203 517 1224 q 606 1183 579 1183 q 654 1206 638 1183 q 671 1260 671 1229 l 733 1260 q 699 1140 733 1182 q 608 1099 664 1099 q 534 1119 569 1099 q 467 1159 499 1139 q 410 1179 436 1179 q 361 1156 378 1179 q 344 1103 344 1133 l 282 1103 z "},"Ű":{"ha":1015,"x_min":115,"x_max":900,"o":"m 508 -11 q 215 90 315 -11 q 115 388 115 190 l 115 989 l 228 989 l 228 378 q 299 159 228 232 q 508 86 369 86 q 715 160 644 86 q 786 378 786 233 l 786 989 l 900 989 l 900 388 q 800 90 900 192 q 508 -11 700 -11 m 561 1074 l 661 1286 l 758 1286 l 622 1074 l 561 1074 m 393 1074 l 492 1286 l 592 1286 l 454 1074 l 393 1074 z "},"Ȗ":{"ha":1015,"x_min":115,"x_max":900,"o":"m 508 -11 q 215 90 315 -11 q 115 388 115 190 l 115 989 l 228 989 l 228 378 q 299 159 228 232 q 508 86 369 86 q 715 160 644 86 q 786 378 786 233 l 786 989 l 900 989 l 900 388 q 800 90 900 192 q 508 -11 700 -11 m 508 1271 q 642 1237 581 1271 q 736 1122 704 1203 l 665 1092 q 594 1170 632 1150 q 508 1190 556 1190 q 422 1170 461 1190 q 350 1092 383 1150 l 279 1122 q 374 1237 313 1203 q 508 1271 435 1271 z "},"Ū":{"ha":1015,"x_min":115,"x_max":900,"o":"m 508 -11 q 215 90 315 -11 q 115 388 115 190 l 115 989 l 228 989 l 228 378 q 299 159 228 232 q 508 86 369 86 q 715 160 644 86 q 786 378 786 233 l 786 989 l 900 989 l 900 388 q 800 90 900 192 q 508 -11 700 -11 m 297 1138 l 297 1224 l 718 1224 l 718 1138 l 297 1138 z "},"Ṻ":{"ha":1015,"x_min":115,"x_max":900,"o":"m 508 -11 q 215 90 315 -11 q 115 388 115 190 l 115 989 l 228 989 l 228 378 q 299 159 228 232 q 508 86 369 86 q 715 160 644 86 q 786 378 786 233 l 786 989 l 900 989 l 900 388 q 800 90 900 192 q 508 -11 700 -11 m 297 1138 l 297 1224 l 718 1224 l 718 1138 l 297 1138 m 565 1465 l 690 1465 l 690 1346 l 565 1346 l 565 1465 m 325 1465 l 450 1465 l 450 1346 l 325 1346 l 325 1465 z "},"Ų":{"ha":1015,"x_min":115,"x_max":900,"o":"m 786 989 l 900 989 l 900 388 q 840 138 900 233 q 660 8 779 43 q 575 -38 601 -10 q 549 -108 549 -67 q 573 -173 549 -150 q 639 -196 597 -196 q 679 -190 658 -196 q 721 -172 700 -183 l 743 -239 q 624 -271 693 -271 q 506 -229 551 -271 q 460 -124 460 -187 q 484 -41 460 -76 q 554 15 508 -6 l 571 -11 l 508 -11 q 215 90 315 -11 q 115 388 115 190 l 115 989 l 228 989 l 228 378 q 299 159 228 232 q 508 86 369 86 q 715 160 644 86 q 786 378 786 233 l 786 989 z "},"Ů":{"ha":1015,"x_min":115,"x_max":900,"o":"m 508 -11 q 215 90 315 -11 q 115 388 115 190 l 115 989 l 228 989 l 228 378 q 299 159 228 232 q 508 86 369 86 q 715 160 644 86 q 786 378 786 233 l 786 989 l 900 989 l 900 388 q 800 90 900 192 q 508 -11 700 -11 m 508 1067 q 408 1107 449 1067 q 367 1206 367 1147 q 408 1304 367 1264 q 508 1344 449 1344 q 608 1304 567 1344 q 649 1206 649 1264 q 608 1107 649 1147 q 508 1067 567 1067 m 508 1135 q 556 1155 538 1135 q 575 1206 575 1175 q 556 1255 575 1235 q 508 1275 538 1275 q 459 1255 478 1275 q 440 1206 440 1235 q 459 1155 440 1175 q 508 1135 478 1135 z "},"Ũ":{"ha":1015,"x_min":115,"x_max":900,"o":"m 508 -11 q 215 90 315 -11 q 115 388 115 190 l 115 989 l 228 989 l 228 378 q 299 159 228 232 q 508 86 369 86 q 715 160 644 86 q 786 378 786 233 l 786 989 l 900 989 l 900 388 q 800 90 900 192 q 508 -11 700 -11 m 282 1103 q 317 1222 282 1181 q 407 1264 351 1264 q 481 1244 446 1264 q 548 1203 517 1224 q 606 1183 579 1183 q 654 1206 638 1183 q 671 1260 671 1229 l 733 1260 q 699 1140 733 1182 q 608 1099 664 1099 q 534 1119 569 1099 q 467 1159 499 1139 q 410 1179 436 1179 q 361 1156 378 1179 q 344 1103 344 1133 l 282 1103 z "},"Ṹ":{"ha":1015,"x_min":115,"x_max":900,"o":"m 508 -11 q 215 90 315 -11 q 115 388 115 190 l 115 989 l 228 989 l 228 378 q 299 159 228 232 q 508 86 369 86 q 715 160 644 86 q 786 378 786 233 l 786 989 l 900 989 l 900 388 q 800 90 900 192 q 508 -11 700 -11 m 282 1103 q 317 1222 282 1181 q 407 1264 351 1264 q 481 1244 446 1264 q 548 1203 517 1224 q 606 1183 579 1183 q 654 1206 638 1183 q 671 1260 671 1229 l 733 1260 q 699 1140 733 1182 q 608 1099 664 1099 q 534 1119 569 1099 q 467 1159 499 1139 q 410 1179 436 1179 q 361 1156 378 1179 q 344 1103 344 1133 l 282 1103 m 547 1299 l 468 1299 l 610 1511 l 733 1511 l 547 1299 z "},"V":{"ha":968,"x_min":3,"x_max":967,"o":"m 435 0 l 3 989 l 124 989 l 508 92 l 463 92 l 849 989 l 967 989 l 535 0 l 435 0 z "},"W":{"ha":1544,"x_min":46,"x_max":1497,"o":"m 393 0 l 46 989 l 163 989 l 465 97 l 421 97 l 731 989 l 818 988 l 1122 97 l 1079 97 l 1385 989 l 1497 989 l 1151 0 l 1054 0 l 757 853 l 788 853 l 489 0 l 393 0 z "},"Ẃ":{"ha":1544,"x_min":46,"x_max":1497,"o":"m 393 0 l 46 989 l 163 989 l 465 97 l 421 97 l 731 989 l 818 988 l 1122 97 l 1079 97 l 1385 989 l 1497 989 l 1151 0 l 1054 0 l 757 853 l 788 853 l 489 0 l 393 0 m 810 1074 l 731 1074 l 872 1286 l 996 1286 l 810 1074 z "},"Ŵ":{"ha":1544,"x_min":46,"x_max":1497,"o":"m 393 0 l 46 989 l 163 989 l 465 97 l 421 97 l 731 989 l 818 988 l 1122 97 l 1079 97 l 1385 989 l 1497 989 l 1151 0 l 1054 0 l 757 853 l 788 853 l 489 0 l 393 0 m 668 1074 l 565 1074 l 732 1286 l 808 1286 l 975 1074 l 872 1074 l 771 1218 l 668 1074 z "},"Ẅ":{"ha":1544,"x_min":46,"x_max":1497,"o":"m 393 0 l 46 989 l 163 989 l 465 97 l 421 97 l 731 989 l 818 988 l 1122 97 l 1079 97 l 1385 989 l 1497 989 l 1151 0 l 1054 0 l 757 853 l 788 853 l 489 0 l 393 0 m 828 1240 l 953 1240 l 953 1121 l 828 1121 l 828 1240 m 588 1240 l 713 1240 l 713 1121 l 588 1121 l 588 1240 z "},"Ẁ":{"ha":1544,"x_min":46,"x_max":1497,"o":"m 393 0 l 46 989 l 163 989 l 465 97 l 421 97 l 731 989 l 818 988 l 1122 97 l 1079 97 l 1385 989 l 1497 989 l 1151 0 l 1054 0 l 757 853 l 788 853 l 489 0 l 393 0 m 731 1074 l 544 1286 l 668 1286 l 810 1074 l 731 1074 z "},"X":{"ha":906,"x_min":11,"x_max":894,"o":"m 147 0 l 11 0 l 388 507 l 454 592 l 743 989 l 878 989 l 518 506 l 453 419 l 147 0 m 760 0 l 453 419 l 388 507 l 29 989 l 165 989 l 454 592 l 518 506 l 894 0 l 760 0 z "},"Y":{"ha":843,"x_min":-25,"x_max":867,"o":"m 364 0 l 364 444 l 389 364 l -25 989 l 108 989 l 442 472 l 403 472 l 736 989 l 867 989 l 454 364 l 478 444 l 478 0 l 364 0 z "},"Ý":{"ha":843,"x_min":-25,"x_max":867,"o":"m 364 0 l 364 444 l 389 364 l -25 989 l 108 989 l 442 472 l 403 472 l 736 989 l 867 989 l 454 364 l 478 444 l 478 0 l 364 0 m 460 1074 l 381 1074 l 522 1286 l 646 1286 l 460 1074 z "},"Ŷ":{"ha":843,"x_min":-25,"x_max":867,"o":"m 364 0 l 364 444 l 389 364 l -25 989 l 108 989 l 442 472 l 403 472 l 736 989 l 867 989 l 454 364 l 478 444 l 478 0 l 364 0 m 318 1074 l 215 1074 l 382 1286 l 458 1286 l 625 1074 l 522 1074 l 421 1218 l 318 1074 z "},"Ÿ":{"ha":843,"x_min":-25,"x_max":867,"o":"m 364 0 l 364 444 l 389 364 l -25 989 l 108 989 l 442 472 l 403 472 l 736 989 l 867 989 l 454 364 l 478 444 l 478 0 l 364 0 m 478 1240 l 603 1240 l 603 1121 l 478 1121 l 478 1240 m 238 1240 l 363 1240 l 363 1121 l 238 1121 l 238 1240 z "},"Ẏ":{"ha":843,"x_min":-25,"x_max":867,"o":"m 364 0 l 364 444 l 389 364 l -25 989 l 108 989 l 442 472 l 403 472 l 736 989 l 867 989 l 454 364 l 478 444 l 478 0 l 364 0 m 351 1244 l 489 1244 l 489 1117 l 351 1117 l 351 1244 z "},"Ỵ":{"ha":843,"x_min":-25,"x_max":867,"o":"m 364 0 l 364 444 l 389 364 l -25 989 l 108 989 l 442 472 l 403 472 l 736 989 l 867 989 l 454 364 l 478 444 l 478 0 l 364 0 m 356 -132 l 485 -132 l 485 -256 l 356 -256 l 356 -132 z "},"Ỳ":{"ha":843,"x_min":-25,"x_max":867,"o":"m 364 0 l 364 444 l 389 364 l -25 989 l 108 989 l 442 472 l 403 472 l 736 989 l 867 989 l 454 364 l 478 444 l 478 0 l 364 0 m 381 1074 l 194 1286 l 318 1286 l 460 1074 l 381 1074 z "},"Ỷ":{"ha":843,"x_min":-25,"x_max":867,"o":"m 364 0 l 364 444 l 389 364 l -25 989 l 108 989 l 442 472 l 403 472 l 736 989 l 867 989 l 454 364 l 478 444 l 478 0 l 364 0 m 458 1088 l 458 1074 l 383 1074 l 383 1099 q 397 1136 383 1122 q 430 1159 411 1150 q 463 1177 449 1168 q 478 1199 478 1186 q 463 1218 478 1211 q 421 1225 449 1225 q 381 1222 401 1225 q 335 1208 360 1218 l 315 1268 q 369 1285 340 1279 q 429 1292 399 1292 q 531 1267 494 1292 q 567 1203 567 1242 q 550 1160 567 1175 q 513 1135 533 1144 q 475 1115 492 1125 q 458 1088 458 1104 z "},"Ȳ":{"ha":843,"x_min":-25,"x_max":867,"o":"m 364 0 l 364 444 l 389 364 l -25 989 l 108 989 l 442 472 l 403 472 l 736 989 l 867 989 l 454 364 l 478 444 l 478 0 l 364 0 m 210 1138 l 210 1224 l 631 1224 l 631 1138 l 210 1138 z "},"Ỹ":{"ha":843,"x_min":-25,"x_max":867,"o":"m 364 0 l 364 444 l 389 364 l -25 989 l 108 989 l 442 472 l 403 472 l 736 989 l 867 989 l 454 364 l 478 444 l 478 0 l 364 0 m 194 1103 q 229 1222 194 1181 q 319 1264 264 1264 q 394 1244 358 1264 q 460 1203 429 1224 q 518 1183 492 1183 q 567 1206 550 1183 q 583 1260 583 1229 l 646 1260 q 611 1140 646 1182 q 521 1099 576 1099 q 447 1119 482 1099 q 380 1159 411 1139 q 322 1179 349 1179 q 274 1156 290 1179 q 257 1103 257 1133 l 194 1103 z "},"Z":{"ha":828,"x_min":63,"x_max":775,"o":"m 63 0 l 63 85 l 669 951 l 667 893 l 63 893 l 63 989 l 761 989 l 761 906 l 154 38 l 157 96 l 775 96 l 775 0 l 63 0 z "},"Ź":{"ha":828,"x_min":63,"x_max":775,"o":"m 63 0 l 63 85 l 669 951 l 667 893 l 63 893 l 63 989 l 761 989 l 761 906 l 154 38 l 157 96 l 775 96 l 775 0 l 63 0 m 451 1074 l 372 1074 l 514 1286 l 638 1286 l 451 1074 z "},"Ž":{"ha":828,"x_min":63,"x_max":775,"o":"m 63 0 l 63 85 l 669 951 l 667 893 l 63 893 l 63 989 l 761 989 l 761 906 l 154 38 l 157 96 l 775 96 l 775 0 l 63 0 m 514 1286 l 617 1286 l 450 1074 l 374 1074 l 207 1286 l 310 1286 l 413 1140 l 514 1286 z "},"Ż":{"ha":828,"x_min":63,"x_max":775,"o":"m 63 0 l 63 85 l 669 951 l 667 893 l 63 893 l 63 989 l 761 989 l 761 906 l 154 38 l 157 96 l 775 96 l 775 0 l 63 0 m 343 1244 l 481 1244 l 481 1117 l 343 1117 l 343 1244 z "},"Ẓ":{"ha":828,"x_min":63,"x_max":775,"o":"m 63 0 l 63 85 l 669 951 l 667 893 l 63 893 l 63 989 l 761 989 l 761 906 l 154 38 l 157 96 l 775 96 l 775 0 l 63 0 m 354 -132 l 483 -132 l 483 -256 l 354 -256 l 354 -132 z "},"a":{"ha":833,"x_min":67,"x_max":724,"o":"m 376 -10 q 213 34 283 -10 q 105 159 143 78 q 67 350 67 240 q 106 542 67 460 q 215 669 144 624 q 376 715 285 715 q 539 668 472 715 q 629 533 606 621 l 613 522 l 613 699 l 724 699 l 724 0 l 613 0 l 613 181 l 629 172 q 539 38 606 85 q 376 -10 472 -10 m 399 83 q 557 153 501 83 q 613 353 613 224 q 556 551 613 482 q 399 621 500 621 q 238 549 296 621 q 181 350 181 478 q 238 153 181 222 q 399 83 296 83 z "},"á":{"ha":833,"x_min":67,"x_max":724,"o":"m 376 -10 q 213 34 283 -10 q 105 159 143 78 q 67 350 67 240 q 106 542 67 460 q 215 669 144 624 q 376 715 285 715 q 539 668 472 715 q 629 533 606 621 l 613 522 l 613 699 l 724 699 l 724 0 l 613 0 l 613 181 l 629 172 q 539 38 606 85 q 376 -10 472 -10 m 399 83 q 557 153 501 83 q 613 353 613 224 q 556 551 613 482 q 399 621 500 621 q 238 549 296 621 q 181 350 181 478 q 238 153 181 222 q 399 83 296 83 m 457 789 l 378 789 l 517 1072 l 647 1072 l 457 789 z "},"ă":{"ha":833,"x_min":67,"x_max":724,"o":"m 376 -10 q 213 34 283 -10 q 105 159 143 78 q 67 350 67 240 q 106 542 67 460 q 215 669 144 624 q 376 715 285 715 q 539 668 472 715 q 629 533 606 621 l 613 522 l 613 699 l 724 699 l 724 0 l 613 0 l 613 181 l 629 172 q 539 38 606 85 q 376 -10 472 -10 m 399 83 q 557 153 501 83 q 613 353 613 224 q 556 551 613 482 q 399 621 500 621 q 238 549 296 621 q 181 350 181 478 q 238 153 181 222 q 399 83 296 83 m 418 831 q 324 849 369 831 q 243 906 279 867 q 186 1008 207 944 l 257 1039 q 331 942 290 969 q 418 914 371 914 q 505 942 465 914 q 578 1039 544 969 l 649 1008 q 593 906 629 944 q 511 849 557 867 q 418 831 465 831 z "},"ắ":{"ha":833,"x_min":67,"x_max":724,"o":"m 376 -10 q 213 34 283 -10 q 105 159 143 78 q 67 350 67 240 q 106 542 67 460 q 215 669 144 624 q 376 715 285 715 q 539 668 472 715 q 629 533 606 621 l 613 522 l 613 699 l 724 699 l 724 0 l 613 0 l 613 181 l 629 172 q 539 38 606 85 q 376 -10 472 -10 m 399 83 q 557 153 501 83 q 613 353 613 224 q 556 551 613 482 q 399 621 500 621 q 238 549 296 621 q 181 350 181 478 q 238 153 181 222 q 399 83 296 83 m 418 782 q 283 816 344 782 q 189 931 221 850 l 254 958 q 328 879 288 900 q 418 858 369 858 q 506 879 465 858 q 581 958 547 900 l 646 931 q 551 816 613 850 q 418 782 490 782 m 456 933 l 379 933 l 519 1132 l 639 1132 l 456 933 z "},"ặ":{"ha":833,"x_min":67,"x_max":724,"o":"m 376 -10 q 213 34 283 -10 q 105 159 143 78 q 67 350 67 240 q 106 542 67 460 q 215 669 144 624 q 376 715 285 715 q 539 668 472 715 q 629 533 606 621 l 613 522 l 613 699 l 724 699 l 724 0 l 613 0 l 613 181 l 629 172 q 539 38 606 85 q 376 -10 472 -10 m 399 83 q 557 153 501 83 q 613 353 613 224 q 556 551 613 482 q 399 621 500 621 q 238 549 296 621 q 181 350 181 478 q 238 153 181 222 q 399 83 296 83 m 353 -132 l 482 -132 l 482 -256 l 353 -256 l 353 -132 m 418 831 q 324 849 369 831 q 243 906 279 867 q 186 1008 207 944 l 257 1039 q 331 942 290 969 q 418 914 371 914 q 505 942 465 914 q 578 1039 544 969 l 649 1008 q 593 906 629 944 q 511 849 557 867 q 418 831 465 831 z "},"ằ":{"ha":833,"x_min":67,"x_max":724,"o":"m 376 -10 q 213 34 283 -10 q 105 159 143 78 q 67 350 67 240 q 106 542 67 460 q 215 669 144 624 q 376 715 285 715 q 539 668 472 715 q 629 533 606 621 l 613 522 l 613 699 l 724 699 l 724 0 l 613 0 l 613 181 l 629 172 q 539 38 606 85 q 376 -10 472 -10 m 399 83 q 557 153 501 83 q 613 353 613 224 q 556 551 613 482 q 399 621 500 621 q 238 549 296 621 q 181 350 181 478 q 238 153 181 222 q 399 83 296 83 m 418 782 q 283 816 344 782 q 189 931 222 850 l 254 958 q 328 879 288 900 q 418 858 369 858 q 506 879 465 858 q 581 958 547 900 l 646 931 q 552 816 614 850 q 418 782 490 782 m 379 933 l 196 1132 l 315 1132 l 456 933 l 379 933 z "},"ẳ":{"ha":833,"x_min":67,"x_max":724,"o":"m 376 -10 q 213 34 283 -10 q 105 159 143 78 q 67 350 67 240 q 106 542 67 460 q 215 669 144 624 q 376 715 285 715 q 539 668 472 715 q 629 533 606 621 l 613 522 l 613 699 l 724 699 l 724 0 l 613 0 l 613 181 l 629 172 q 539 38 606 85 q 376 -10 472 -10 m 399 83 q 557 153 501 83 q 613 353 613 224 q 556 551 613 482 q 399 621 500 621 q 238 549 296 621 q 181 350 181 478 q 238 153 181 222 q 399 83 296 83 m 418 782 q 283 816 344 782 q 189 931 222 850 l 254 958 q 328 879 288 900 q 418 858 369 858 q 506 879 465 858 q 581 958 547 900 l 646 931 q 552 816 614 850 q 418 782 490 782 m 456 946 l 456 933 l 381 933 l 381 957 q 394 994 381 981 q 427 1014 408 1007 q 460 1028 446 1021 q 475 1046 475 1035 q 460 1065 475 1057 q 418 1072 446 1072 q 378 1069 399 1072 q 332 1054 357 1065 l 313 1115 q 367 1133 338 1126 q 426 1139 396 1139 q 528 1115 492 1139 q 564 1050 564 1090 q 547 1011 564 1025 q 510 989 531 997 q 472 972 489 981 q 456 946 456 963 z "},"ẵ":{"ha":833,"x_min":67,"x_max":724,"o":"m 376 -10 q 213 34 283 -10 q 105 159 143 78 q 67 350 67 240 q 106 542 67 460 q 215 669 144 624 q 376 715 285 715 q 539 668 472 715 q 629 533 606 621 l 613 522 l 613 699 l 724 699 l 724 0 l 613 0 l 613 181 l 629 172 q 539 38 606 85 q 376 -10 472 -10 m 399 83 q 557 153 501 83 q 613 353 613 224 q 556 551 613 482 q 399 621 500 621 q 238 549 296 621 q 181 350 181 478 q 238 153 181 222 q 399 83 296 83 m 418 782 q 283 816 344 782 q 189 931 222 850 l 254 958 q 328 879 288 900 q 418 858 369 858 q 506 879 465 858 q 581 958 547 900 l 646 931 q 552 816 614 850 q 418 782 490 782 m 192 999 q 208 1074 192 1042 q 251 1125 224 1107 q 317 1143 279 1143 q 391 1124 356 1143 q 458 1088 426 1106 q 515 1069 489 1069 q 564 1090 547 1069 q 581 1139 581 1111 l 643 1139 q 627 1063 643 1094 q 583 1013 611 1031 q 518 994 556 994 q 444 1013 479 994 q 377 1049 408 1031 q 319 1067 346 1067 q 271 1046 288 1067 q 254 999 254 1025 l 192 999 z "},"ǎ":{"ha":833,"x_min":67,"x_max":724,"o":"m 376 -10 q 213 34 283 -10 q 105 159 143 78 q 67 350 67 240 q 106 542 67 460 q 215 669 144 624 q 376 715 285 715 q 539 668 472 715 q 629 533 606 621 l 613 522 l 613 699 l 724 699 l 724 0 l 613 0 l 613 181 l 629 172 q 539 38 606 85 q 376 -10 472 -10 m 399 83 q 557 153 501 83 q 613 353 613 224 q 556 551 613 482 q 399 621 500 621 q 238 549 296 621 q 181 350 181 478 q 238 153 181 222 q 399 83 296 83 m 518 1072 l 622 1072 l 457 789 l 378 789 l 213 1072 l 317 1072 l 418 871 l 518 1072 z "},"â":{"ha":833,"x_min":67,"x_max":724,"o":"m 376 -10 q 213 34 283 -10 q 105 159 143 78 q 67 350 67 240 q 106 542 67 460 q 215 669 144 624 q 376 715 285 715 q 539 668 472 715 q 629 533 606 621 l 613 522 l 613 699 l 724 699 l 724 0 l 613 0 l 613 181 l 629 172 q 539 38 606 85 q 376 -10 472 -10 m 399 83 q 557 153 501 83 q 613 353 613 224 q 556 551 613 482 q 399 621 500 621 q 238 549 296 621 q 181 350 181 478 q 238 153 181 222 q 399 83 296 83 m 317 789 l 213 789 l 378 1072 l 457 1072 l 622 789 l 518 789 l 418 989 l 317 789 z "},"ấ":{"ha":833,"x_min":67,"x_max":783,"o":"m 376 -10 q 213 34 283 -10 q 105 159 143 78 q 67 350 67 240 q 106 542 67 460 q 215 669 144 624 q 376 715 285 715 q 539 668 472 715 q 629 533 606 621 l 613 522 l 613 699 l 724 699 l 724 0 l 613 0 l 613 181 l 629 172 q 539 38 606 85 q 376 -10 472 -10 m 399 83 q 557 153 501 83 q 613 353 613 224 q 556 551 613 482 q 399 621 500 621 q 238 549 296 621 q 181 350 181 478 q 238 153 181 222 q 399 83 296 83 m 315 789 l 213 789 l 379 994 l 456 994 l 622 789 l 519 789 l 418 928 l 315 789 m 606 933 l 536 933 l 664 1132 l 783 1132 l 606 933 z "},"ậ":{"ha":833,"x_min":67,"x_max":724,"o":"m 376 -10 q 213 34 283 -10 q 105 159 143 78 q 67 350 67 240 q 106 542 67 460 q 215 669 144 624 q 376 715 285 715 q 539 668 472 715 q 629 533 606 621 l 613 522 l 613 699 l 724 699 l 724 0 l 613 0 l 613 181 l 629 172 q 539 38 606 85 q 376 -10 472 -10 m 399 83 q 557 153 501 83 q 613 353 613 224 q 556 551 613 482 q 399 621 500 621 q 238 549 296 621 q 181 350 181 478 q 238 153 181 222 q 399 83 296 83 m 353 -132 l 482 -132 l 482 -256 l 353 -256 l 353 -132 m 317 789 l 213 789 l 378 1072 l 457 1072 l 622 789 l 518 789 l 418 989 l 317 789 z "},"ầ":{"ha":833,"x_min":67,"x_max":724,"o":"m 376 -10 q 213 34 283 -10 q 105 159 143 78 q 67 350 67 240 q 106 542 67 460 q 215 669 144 624 q 376 715 285 715 q 539 668 472 715 q 629 533 606 621 l 613 522 l 613 699 l 724 699 l 724 0 l 613 0 l 613 181 l 629 172 q 539 38 606 85 q 376 -10 472 -10 m 399 83 q 557 153 501 83 q 613 353 613 224 q 556 551 613 482 q 399 621 500 621 q 238 549 296 621 q 181 350 181 478 q 238 153 181 222 q 399 83 296 83 m 315 789 l 213 789 l 379 994 l 456 994 l 622 789 l 519 789 l 418 928 l 315 789 m 596 933 l 439 1132 l 557 1132 l 665 933 l 596 933 z "},"ẩ":{"ha":833,"x_min":67,"x_max":724,"o":"m 376 -10 q 213 34 283 -10 q 105 159 143 78 q 67 350 67 240 q 106 542 67 460 q 215 669 144 624 q 376 715 285 715 q 539 668 472 715 q 629 533 606 621 l 613 522 l 613 699 l 724 699 l 724 0 l 613 0 l 613 181 l 629 172 q 539 38 606 85 q 376 -10 472 -10 m 399 83 q 557 153 501 83 q 613 353 613 224 q 556 551 613 482 q 399 621 500 621 q 238 549 296 621 q 181 350 181 478 q 238 153 181 222 q 399 83 296 83 m 315 789 l 213 789 l 379 994 l 456 994 l 622 789 l 519 789 l 418 928 l 315 789 m 610 946 l 610 933 l 535 933 l 535 957 q 549 994 535 981 q 581 1014 563 1007 q 615 1028 600 1021 q 629 1046 629 1035 q 615 1065 629 1057 q 572 1072 600 1072 q 532 1069 553 1072 q 486 1054 511 1065 l 467 1115 q 521 1133 492 1126 q 581 1139 550 1139 q 683 1115 646 1139 q 719 1050 719 1090 q 703 1011 719 1025 q 665 989 686 997 q 626 972 643 981 q 610 946 610 963 z "},"ẫ":{"ha":833,"x_min":67,"x_max":724,"o":"m 376 -10 q 213 34 283 -10 q 105 159 143 78 q 67 350 67 240 q 106 542 67 460 q 215 669 144 624 q 376 715 285 715 q 539 668 472 715 q 629 533 606 621 l 613 522 l 613 699 l 724 699 l 724 0 l 613 0 l 613 181 l 629 172 q 539 38 606 85 q 376 -10 472 -10 m 399 83 q 557 153 501 83 q 613 353 613 224 q 556 551 613 482 q 399 621 500 621 q 238 549 296 621 q 181 350 181 478 q 238 153 181 222 q 399 83 296 83 m 315 789 l 213 789 l 379 994 l 456 994 l 622 789 l 519 789 l 418 928 l 315 789 m 192 1015 q 208 1087 192 1056 q 251 1136 224 1118 q 317 1154 279 1154 q 391 1139 356 1154 q 458 1109 426 1124 q 515 1094 489 1094 q 564 1114 547 1094 q 581 1156 581 1133 l 643 1156 q 627 1085 643 1115 q 583 1036 611 1054 q 518 1018 556 1018 q 444 1033 479 1018 q 377 1063 408 1049 q 319 1078 346 1078 q 271 1058 288 1078 q 254 1015 254 1039 l 192 1015 z "},"ȁ":{"ha":833,"x_min":67,"x_max":724,"o":"m 376 -10 q 213 34 283 -10 q 105 159 143 78 q 67 350 67 240 q 106 542 67 460 q 215 669 144 624 q 376 715 285 715 q 539 668 472 715 q 629 533 606 621 l 613 522 l 613 699 l 724 699 l 724 0 l 613 0 l 613 181 l 629 172 q 539 38 606 85 q 376 -10 472 -10 m 399 83 q 557 153 501 83 q 613 353 613 224 q 556 551 613 482 q 399 621 500 621 q 238 549 296 621 q 181 350 181 478 q 238 153 181 222 q 399 83 296 83 m 474 789 l 363 1072 l 467 1072 l 531 789 l 474 789 m 304 789 l 193 1072 l 299 1072 l 361 789 l 304 789 z "},"ä":{"ha":833,"x_min":67,"x_max":724,"o":"m 376 -10 q 213 34 283 -10 q 105 159 143 78 q 67 350 67 240 q 106 542 67 460 q 215 669 144 624 q 376 715 285 715 q 539 668 472 715 q 629 533 606 621 l 613 522 l 613 699 l 724 699 l 724 0 l 613 0 l 613 181 l 629 172 q 539 38 606 85 q 376 -10 472 -10 m 399 83 q 557 153 501 83 q 613 353 613 224 q 556 551 613 482 q 399 621 500 621 q 238 549 296 621 q 181 350 181 478 q 238 153 181 222 q 399 83 296 83 m 475 990 l 600 990 l 600 871 l 475 871 l 475 990 m 235 990 l 360 990 l 360 871 l 235 871 l 235 990 z "},"ȧ":{"ha":833,"x_min":67,"x_max":724,"o":"m 376 -10 q 213 34 283 -10 q 105 159 143 78 q 67 350 67 240 q 106 542 67 460 q 215 669 144 624 q 376 715 285 715 q 539 668 472 715 q 629 533 606 621 l 613 522 l 613 699 l 724 699 l 724 0 l 613 0 l 613 181 l 629 172 q 539 38 606 85 q 376 -10 472 -10 m 399 83 q 557 153 501 83 q 613 353 613 224 q 556 551 613 482 q 399 621 500 621 q 238 549 296 621 q 181 350 181 478 q 238 153 181 222 q 399 83 296 83 m 349 994 l 486 994 l 486 867 l 349 867 l 349 994 z "},"ạ":{"ha":833,"x_min":67,"x_max":724,"o":"m 376 -10 q 213 34 283 -10 q 105 159 143 78 q 67 350 67 240 q 106 542 67 460 q 215 669 144 624 q 376 715 285 715 q 539 668 472 715 q 629 533 606 621 l 613 522 l 613 699 l 724 699 l 724 0 l 613 0 l 613 181 l 629 172 q 539 38 606 85 q 376 -10 472 -10 m 399 83 q 557 153 501 83 q 613 353 613 224 q 556 551 613 482 q 399 621 500 621 q 238 549 296 621 q 181 350 181 478 q 238 153 181 222 q 399 83 296 83 m 353 -132 l 482 -132 l 482 -256 l 353 -256 l 353 -132 z "},"à":{"ha":833,"x_min":67,"x_max":724,"o":"m 376 -10 q 213 34 283 -10 q 105 159 143 78 q 67 350 67 240 q 106 542 67 460 q 215 669 144 624 q 376 715 285 715 q 539 668 472 715 q 629 533 606 621 l 613 522 l 613 699 l 724 699 l 724 0 l 613 0 l 613 181 l 629 172 q 539 38 606 85 q 376 -10 472 -10 m 399 83 q 557 153 501 83 q 613 353 613 224 q 556 551 613 482 q 399 621 500 621 q 238 549 296 621 q 181 350 181 478 q 238 153 181 222 q 399 83 296 83 m 378 789 l 188 1072 l 318 1072 l 457 789 l 378 789 z "},"ả":{"ha":833,"x_min":67,"x_max":724,"o":"m 376 -10 q 213 34 283 -10 q 105 159 143 78 q 67 350 67 240 q 106 542 67 460 q 215 669 144 624 q 376 715 285 715 q 539 668 472 715 q 629 533 606 621 l 613 522 l 613 699 l 724 699 l 724 0 l 613 0 l 613 181 l 629 172 q 539 38 606 85 q 376 -10 472 -10 m 399 83 q 557 153 501 83 q 613 353 613 224 q 556 551 613 482 q 399 621 500 621 q 238 549 296 621 q 181 350 181 478 q 238 153 181 222 q 399 83 296 83 m 457 813 l 457 789 l 383 789 l 383 828 q 397 876 383 856 q 428 912 410 896 q 459 942 446 928 q 472 972 472 957 q 458 998 472 989 q 415 1007 443 1007 q 376 1003 396 1007 q 333 992 357 1000 l 313 1053 q 369 1072 340 1065 q 425 1078 397 1078 q 528 1049 492 1078 q 564 981 564 1021 q 548 926 564 947 q 510 890 532 906 q 473 857 489 874 q 457 813 457 840 z "},"ȃ":{"ha":833,"x_min":67,"x_max":724,"o":"m 376 -10 q 213 34 283 -10 q 105 159 143 78 q 67 350 67 240 q 106 542 67 460 q 215 669 144 624 q 376 715 285 715 q 539 668 472 715 q 629 533 606 621 l 613 522 l 613 699 l 724 699 l 724 0 l 613 0 l 613 181 l 629 172 q 539 38 606 85 q 376 -10 472 -10 m 399 83 q 557 153 501 83 q 613 353 613 224 q 556 551 613 482 q 399 621 500 621 q 238 549 296 621 q 181 350 181 478 q 238 153 181 222 q 399 83 296 83 m 418 1036 q 510 1018 465 1036 q 592 961 556 1000 q 649 860 628 922 l 578 829 q 505 926 544 899 q 418 953 465 953 q 331 926 371 953 q 257 829 290 899 l 186 858 q 242 961 206 922 q 324 1018 278 1000 q 418 1036 369 1036 z "},"ā":{"ha":833,"x_min":67,"x_max":724,"o":"m 376 -10 q 213 34 283 -10 q 105 159 143 78 q 67 350 67 240 q 106 542 67 460 q 215 669 144 624 q 376 715 285 715 q 539 668 472 715 q 629 533 606 621 l 613 522 l 613 699 l 724 699 l 724 0 l 613 0 l 613 181 l 629 172 q 539 38 606 85 q 376 -10 472 -10 m 399 83 q 557 153 501 83 q 613 353 613 224 q 556 551 613 482 q 399 621 500 621 q 238 549 296 621 q 181 350 181 478 q 238 153 181 222 q 399 83 296 83 m 207 888 l 207 974 l 628 974 l 628 888 l 207 888 z "},"ą":{"ha":833,"x_min":67,"x_max":789,"o":"m 724 0 l 717 0 q 624 -31 660 0 q 588 -111 588 -62 q 613 -178 588 -154 q 682 -203 638 -203 q 765 -176 719 -203 l 789 -244 q 732 -268 764 -260 q 665 -276 700 -276 q 545 -234 592 -276 q 499 -125 499 -192 q 545 -10 499 -58 q 672 54 592 38 l 646 0 l 613 0 l 613 154 l 629 172 q 539 38 606 85 q 376 -10 472 -10 q 213 35 282 -10 q 105 160 143 79 q 67 350 67 240 q 106 541 67 458 q 214 669 144 624 q 376 715 283 715 q 539 668 472 715 q 629 533 606 621 l 613 522 l 613 699 l 724 699 l 724 0 m 399 83 q 557 153 501 83 q 613 353 613 224 q 556 551 613 482 q 399 621 500 621 q 238 549 296 621 q 181 350 181 478 q 238 153 181 222 q 399 83 296 83 z "},"å":{"ha":833,"x_min":67,"x_max":724,"o":"m 376 -10 q 213 34 283 -10 q 105 159 143 78 q 67 350 67 240 q 106 542 67 460 q 215 669 144 624 q 376 715 285 715 q 539 668 472 715 q 629 533 606 621 l 613 522 l 613 699 l 724 699 l 724 0 l 613 0 l 613 181 l 629 172 q 539 38 606 85 q 376 -10 472 -10 m 399 83 q 557 153 501 83 q 613 353 613 224 q 556 551 613 482 q 399 621 500 621 q 238 549 296 621 q 181 350 181 478 q 238 153 181 222 q 399 83 296 83 m 418 792 q 317 831 358 792 q 276 931 276 871 q 317 1029 276 989 q 418 1069 358 1069 q 489 1051 457 1069 q 540 1001 521 1032 q 558 931 558 969 q 517 831 558 871 q 418 792 476 792 m 418 860 q 466 880 447 860 q 485 931 485 900 q 466 980 485 960 q 418 1000 447 1000 q 369 980 388 1000 q 350 931 350 960 q 369 880 350 900 q 418 860 388 860 z "},"ǻ":{"ha":833,"x_min":67,"x_max":726,"o":"m 376 -10 q 213 34 283 -10 q 105 159 143 78 q 67 350 67 240 q 106 542 67 460 q 215 669 144 624 q 376 715 285 715 q 539 668 472 715 q 629 533 606 621 l 613 522 l 613 699 l 724 699 l 724 0 l 613 0 l 613 181 l 629 172 q 539 38 606 85 q 376 -10 472 -10 m 399 83 q 557 153 501 83 q 613 353 613 224 q 556 551 613 482 q 399 621 500 621 q 238 549 296 621 q 181 350 181 478 q 238 153 181 222 q 399 83 296 83 m 418 794 q 316 835 358 794 q 274 936 274 876 q 316 1038 274 996 q 418 1079 358 1079 q 519 1038 476 1079 q 563 936 563 996 q 519 835 563 876 q 418 794 476 794 m 418 864 q 467 885 447 864 q 488 936 488 907 q 467 988 488 967 q 418 1008 447 1008 q 368 988 388 1008 q 349 936 349 967 q 368 885 349 907 q 418 864 388 864 m 528 997 l 465 1018 l 604 1221 l 726 1217 l 528 997 z "},"ã":{"ha":833,"x_min":67,"x_max":724,"o":"m 376 -10 q 213 34 283 -10 q 105 159 143 78 q 67 350 67 240 q 106 542 67 460 q 215 669 144 624 q 376 715 285 715 q 539 668 472 715 q 629 533 606 621 l 613 522 l 613 699 l 724 699 l 724 0 l 613 0 l 613 181 l 629 172 q 539 38 606 85 q 376 -10 472 -10 m 399 83 q 557 153 501 83 q 613 353 613 224 q 556 551 613 482 q 399 621 500 621 q 238 549 296 621 q 181 350 181 478 q 238 153 181 222 q 399 83 296 83 m 192 854 q 226 972 192 931 q 317 1014 261 1014 q 391 994 356 1014 q 458 953 426 974 q 515 933 489 933 q 564 956 547 933 q 581 1010 581 979 l 643 1010 q 608 892 643 933 q 518 850 574 850 q 444 870 479 850 q 377 910 408 890 q 319 931 346 931 q 271 907 288 931 q 254 854 254 883 l 192 854 z "},"æ":{"ha":1224,"x_min":85,"x_max":1161,"o":"m 890 -10 q 652 84 739 -10 q 561 349 565 178 q 597 540 558 457 q 708 669 636 622 q 872 715 779 715 q 1027 674 963 715 q 1126 555 1092 632 q 1161 372 1161 478 l 1161 353 l 633 353 l 633 426 l 1096 426 l 1061 375 q 1015 563 1064 497 q 871 628 965 628 q 715 556 772 628 q 658 351 658 483 q 718 153 658 224 q 893 83 778 83 q 1004 104 949 83 q 1113 165 1060 125 l 1149 83 q 1033 16 1103 42 q 890 -10 963 -10 m 342 -10 q 211 18 269 -10 q 119 94 153 46 q 85 208 86 143 q 124 334 85 286 q 252 404 163 382 q 492 426 342 426 l 561 426 l 561 354 l 497 354 q 319 340 383 354 q 227 294 254 325 q 200 215 200 264 q 243 116 200 153 q 353 79 286 79 q 455 107 411 79 q 523 184 499 135 q 547 296 547 233 l 547 449 q 512 581 547 540 q 394 622 476 622 q 272 603 332 622 q 151 547 213 585 l 114 629 q 197 675 150 656 q 294 705 243 694 q 393 715 346 715 q 588 649 524 715 q 651 449 651 582 l 651 256 l 613 254 q 531 60 604 131 q 342 -10 458 -10 z "},"ǽ":{"ha":1224,"x_min":85,"x_max":1161,"o":"m 890 -10 q 652 84 739 -10 q 561 349 565 178 q 597 540 558 457 q 708 669 636 622 q 872 715 779 715 q 1027 674 963 715 q 1126 555 1092 632 q 1161 372 1161 478 l 1161 353 l 633 353 l 633 426 l 1096 426 l 1061 375 q 1015 563 1064 497 q 871 628 965 628 q 715 556 772 628 q 658 351 658 483 q 718 153 658 224 q 893 83 778 83 q 1004 104 949 83 q 1113 165 1060 125 l 1149 83 q 1033 16 1103 42 q 890 -10 963 -10 m 342 -10 q 211 18 269 -10 q 119 94 153 46 q 85 208 86 143 q 124 334 85 286 q 252 404 163 382 q 492 426 342 426 l 561 426 l 561 354 l 497 354 q 319 340 383 354 q 227 294 254 325 q 200 215 200 264 q 243 116 200 153 q 353 79 286 79 q 455 107 411 79 q 523 184 499 135 q 547 296 547 233 l 547 449 q 512 581 547 540 q 394 622 476 622 q 272 603 332 622 q 151 547 213 585 l 114 629 q 197 675 150 656 q 294 705 243 694 q 393 715 346 715 q 588 649 524 715 q 651 449 651 582 l 651 256 l 613 254 q 531 60 604 131 q 342 -10 458 -10 m 643 789 l 564 789 l 703 1072 l 833 1072 l 643 789 z "},"b":{"ha":833,"x_min":108,"x_max":768,"o":"m 108 0 l 108 1022 l 221 1022 l 221 519 l 206 533 q 296 667 229 619 q 457 715 363 715 q 619 671 550 715 q 728 546 689 626 q 768 356 768 465 q 728 163 768 246 q 619 35 689 81 q 457 -10 549 -10 q 296 38 363 -10 q 206 172 229 85 l 221 188 l 221 0 l 108 0 m 436 83 q 594 155 538 83 q 651 356 651 226 q 594 551 651 482 q 436 621 538 621 q 276 551 332 621 q 221 353 221 481 q 276 153 221 224 q 436 83 332 83 z "},"c":{"ha":688,"x_min":67,"x_max":653,"o":"m 401 -10 q 224 35 299 -10 q 108 160 149 79 q 67 350 67 240 q 108 541 67 458 q 226 669 150 624 q 407 715 303 715 q 544 691 478 715 q 653 624 610 667 l 615 540 q 515 601 564 581 q 413 621 465 621 q 245 550 307 621 q 183 350 183 479 q 244 153 183 222 q 413 83 306 83 q 514 103 464 83 q 615 164 564 124 l 653 81 q 541 15 608 39 q 401 -10 474 -10 z "},"ć":{"ha":688,"x_min":67,"x_max":653,"o":"m 401 -10 q 224 35 299 -10 q 108 160 149 79 q 67 350 67 240 q 108 541 67 458 q 226 669 150 624 q 407 715 303 715 q 544 691 478 715 q 653 624 610 667 l 615 540 q 515 601 564 581 q 413 621 465 621 q 245 550 307 621 q 183 350 183 479 q 244 153 183 222 q 413 83 306 83 q 514 103 464 83 q 615 164 564 124 l 653 81 q 541 15 608 39 q 401 -10 474 -10 m 440 789 l 361 789 l 500 1072 l 631 1072 l 440 789 z "},"č":{"ha":688,"x_min":67,"x_max":653,"o":"m 401 -10 q 224 35 299 -10 q 108 160 149 79 q 67 350 67 240 q 108 541 67 458 q 226 669 150 624 q 407 715 303 715 q 544 691 478 715 q 653 624 610 667 l 615 540 q 515 601 564 581 q 413 621 465 621 q 245 550 307 621 q 183 350 183 479 q 244 153 183 222 q 413 83 306 83 q 514 103 464 83 q 615 164 564 124 l 653 81 q 541 15 608 39 q 401 -10 474 -10 m 501 1072 l 606 1072 l 440 789 l 361 789 l 196 1072 l 300 1072 l 401 871 l 501 1072 z "},"ç":{"ha":688,"x_min":67,"x_max":653,"o":"m 401 -10 q 224 35 299 -10 q 108 160 149 79 q 67 350 67 240 q 108 541 67 458 q 226 669 150 624 q 407 715 303 715 q 544 691 478 715 q 653 624 610 667 l 615 540 q 515 601 564 581 q 413 621 465 621 q 245 550 307 621 q 183 350 183 479 q 244 153 183 222 q 413 83 306 83 q 514 103 464 83 q 615 164 564 124 l 653 81 q 541 15 608 39 q 401 -10 474 -10 m 393 -271 q 331 -265 365 -271 q 269 -244 296 -258 l 288 -183 q 342 -199 317 -194 q 393 -203 368 -203 q 451 -190 432 -203 q 471 -154 471 -176 q 422 -117 471 -117 q 388 -120 404 -117 q 358 -129 372 -124 l 331 -107 l 346 28 l 425 28 l 414 -74 l 379 -71 q 415 -60 397 -64 q 449 -57 432 -57 q 522 -81 489 -57 q 556 -154 556 -104 q 513 -237 556 -204 q 393 -271 471 -271 z "},"ḉ":{"ha":688,"x_min":67,"x_max":653,"o":"m 401 -10 q 224 35 299 -10 q 108 160 149 79 q 67 350 67 240 q 108 541 67 458 q 226 669 150 624 q 407 715 303 715 q 544 691 478 715 q 653 624 610 667 l 615 540 q 515 601 564 581 q 413 621 465 621 q 245 550 307 621 q 183 350 183 479 q 244 153 183 222 q 413 83 306 83 q 514 103 464 83 q 615 164 564 124 l 653 81 q 541 15 608 39 q 401 -10 474 -10 m 393 -271 q 331 -265 365 -271 q 269 -244 296 -258 l 288 -183 q 342 -199 317 -194 q 393 -203 368 -203 q 451 -190 432 -203 q 471 -154 471 -176 q 422 -117 471 -117 q 388 -120 404 -117 q 358 -129 372 -124 l 331 -107 l 346 28 l 425 28 l 414 -74 l 379 -71 q 415 -60 397 -64 q 449 -57 432 -57 q 522 -81 489 -57 q 556 -154 556 -104 q 513 -237 556 -204 q 393 -271 471 -271 m 440 789 l 361 789 l 500 1072 l 631 1072 l 440 789 z "},"ĉ":{"ha":688,"x_min":67,"x_max":653,"o":"m 401 -10 q 224 35 299 -10 q 108 160 149 79 q 67 350 67 240 q 108 541 67 458 q 226 669 150 624 q 407 715 303 715 q 544 691 478 715 q 653 624 610 667 l 615 540 q 515 601 564 581 q 413 621 465 621 q 245 550 307 621 q 183 350 183 479 q 244 153 183 222 q 413 83 306 83 q 514 103 464 83 q 615 164 564 124 l 653 81 q 541 15 608 39 q 401 -10 474 -10 m 300 789 l 196 789 l 361 1072 l 440 1072 l 606 789 l 501 789 l 401 989 l 300 789 z "},"ċ":{"ha":688,"x_min":67,"x_max":653,"o":"m 401 -10 q 224 35 299 -10 q 108 160 149 79 q 67 350 67 240 q 108 541 67 458 q 226 669 150 624 q 407 715 303 715 q 544 691 478 715 q 653 624 610 667 l 615 540 q 515 601 564 581 q 413 621 465 621 q 245 550 307 621 q 183 350 183 479 q 244 153 183 222 q 413 83 306 83 q 514 103 464 83 q 615 164 564 124 l 653 81 q 541 15 608 39 q 401 -10 474 -10 m 332 994 l 469 994 l 469 867 l 332 867 l 332 994 z "},"d":{"ha":833,"x_min":67,"x_max":724,"o":"m 724 0 l 613 0 l 613 188 l 629 172 q 539 38 606 85 q 376 -10 472 -10 q 215 35 285 -10 q 106 163 144 81 q 67 356 67 246 q 105 546 67 465 q 213 671 143 626 q 376 715 283 715 q 539 667 472 715 q 629 533 606 619 l 611 519 l 611 1022 l 724 1022 l 724 0 m 399 83 q 556 153 500 83 q 613 353 613 224 q 557 551 613 481 q 399 621 501 621 q 238 551 296 621 q 181 356 181 482 q 238 155 181 226 q 399 83 296 83 z "},"ð":{"ha":800,"x_min":67,"x_max":733,"o":"m 394 -10 q 222 31 296 -10 q 108 147 149 72 q 67 321 67 221 q 107 496 67 421 q 220 612 147 571 q 390 653 293 653 q 573 595 503 653 q 668 426 643 538 l 626 429 q 580 670 628 565 q 442 845 532 775 q 225 950 351 915 l 254 1033 q 462 946 372 1003 q 612 809 551 889 q 703 629 672 729 q 733 413 733 529 q 647 98 733 206 q 394 -10 560 -10 m 397 83 q 555 147 497 83 q 613 321 613 210 q 556 497 613 435 q 397 560 499 560 q 238 497 296 560 q 181 321 181 435 q 237 145 181 207 q 397 83 293 83 m 256 725 l 232 796 l 707 967 l 729 896 l 256 725 z "},"ď":{"ha":833,"x_min":67,"x_max":863,"o":"m 825 750 l 772 750 l 772 1022 l 863 1022 l 825 750 m 724 0 l 613 0 l 613 188 l 629 172 q 539 38 606 85 q 376 -10 472 -10 q 215 35 285 -10 q 106 163 144 81 q 67 356 67 246 q 105 546 67 465 q 213 671 143 626 q 376 715 283 715 q 539 667 472 715 q 629 533 606 619 l 611 519 l 611 1022 l 724 1022 l 724 0 m 399 83 q 556 153 500 83 q 613 353 613 224 q 557 551 613 481 q 399 621 501 621 q 238 551 296 621 q 181 356 181 482 q 238 155 181 226 q 399 83 296 83 z "},"đ":{"ha":833,"x_min":67,"x_max":857,"o":"m 335 808 l 335 893 l 857 893 l 857 808 l 335 808 m 724 0 l 613 0 l 613 188 l 629 172 q 539 38 606 85 q 376 -10 472 -10 q 215 35 285 -10 q 106 163 144 81 q 67 356 67 246 q 105 546 67 465 q 213 671 143 626 q 376 715 283 715 q 539 667 472 715 q 629 533 606 619 l 611 519 l 611 1022 l 724 1022 l 724 0 m 399 83 q 556 153 500 83 q 613 353 613 224 q 557 551 613 481 q 399 621 501 621 q 238 551 296 621 q 181 356 181 482 q 238 155 181 226 q 399 83 296 83 z "},"ḍ":{"ha":833,"x_min":67,"x_max":724,"o":"m 724 0 l 613 0 l 613 188 l 629 172 q 539 38 606 85 q 376 -10 472 -10 q 215 35 285 -10 q 106 163 144 81 q 67 356 67 246 q 105 546 67 465 q 213 671 143 626 q 376 715 283 715 q 539 667 472 715 q 629 533 606 619 l 611 519 l 611 1022 l 724 1022 l 724 0 m 399 83 q 556 153 500 83 q 613 353 613 224 q 557 551 613 481 q 399 621 501 621 q 238 551 296 621 q 181 356 181 482 q 238 155 181 226 q 399 83 296 83 m 354 -132 l 483 -132 l 483 -256 l 354 -256 l 354 -132 z "},"ḏ":{"ha":833,"x_min":67,"x_max":724,"o":"m 724 0 l 613 0 l 613 188 l 629 172 q 539 38 606 85 q 376 -10 472 -10 q 215 35 285 -10 q 106 163 144 81 q 67 356 67 246 q 105 546 67 465 q 213 671 143 626 q 376 715 283 715 q 539 667 472 715 q 629 533 606 619 l 611 519 l 611 1022 l 724 1022 l 724 0 m 399 83 q 556 153 500 83 q 613 353 613 224 q 557 551 613 481 q 399 621 501 621 q 238 551 296 621 q 181 356 181 482 q 238 155 181 226 q 399 83 296 83 m 208 -236 l 208 -153 l 629 -153 l 629 -236 l 208 -236 z "},"ǆ":{"ha":1553,"x_min":67,"x_max":1493,"o":"m 724 0 l 613 0 l 613 188 l 629 172 q 539 38 606 85 q 376 -10 472 -10 q 215 35 285 -10 q 106 163 144 81 q 67 356 67 246 q 105 546 67 465 q 213 671 143 626 q 376 715 283 715 q 539 667 472 715 q 629 533 606 619 l 611 519 l 611 1022 l 724 1022 l 724 0 m 399 83 q 556 153 500 83 q 613 353 613 224 q 557 551 613 481 q 399 621 501 621 q 238 551 296 621 q 181 356 181 482 q 238 155 181 226 q 399 83 296 83 z "},"e":{"ha":756,"x_min":67,"x_max":693,"o":"m 681 83 q 563 15 635 40 q 417 -10 492 -10 q 230 33 308 -10 q 109 158 151 76 q 67 351 67 239 q 108 542 67 460 q 224 669 150 624 q 396 715 299 715 q 556 674 489 715 q 658 557 622 633 q 693 374 693 481 l 693 353 l 165 353 l 165 426 l 629 426 l 593 375 q 545 563 596 497 q 397 628 494 628 q 238 556 296 628 q 181 358 181 485 q 241 153 181 222 q 418 83 301 83 q 535 103 479 83 q 643 165 592 124 l 681 83 z "},"é":{"ha":756,"x_min":67,"x_max":693,"o":"m 681 83 q 563 15 635 40 q 417 -10 492 -10 q 230 33 308 -10 q 109 158 151 76 q 67 351 67 239 q 108 542 67 460 q 224 669 150 624 q 396 715 299 715 q 556 674 489 715 q 658 557 622 633 q 693 374 693 481 l 693 353 l 165 353 l 165 426 l 629 426 l 593 375 q 545 563 596 497 q 397 628 494 628 q 238 556 296 628 q 181 358 181 485 q 241 153 181 222 q 418 83 301 83 q 535 103 479 83 q 643 165 592 124 l 681 83 m 435 789 l 356 789 l 494 1072 l 625 1072 l 435 789 z "},"ĕ":{"ha":756,"x_min":67,"x_max":693,"o":"m 681 83 q 563 15 635 40 q 417 -10 492 -10 q 230 33 308 -10 q 109 158 151 76 q 67 351 67 239 q 108 542 67 460 q 224 669 150 624 q 396 715 299 715 q 556 674 489 715 q 658 557 622 633 q 693 374 693 481 l 693 353 l 165 353 l 165 426 l 629 426 l 593 375 q 545 563 596 497 q 397 628 494 628 q 238 556 296 628 q 181 358 181 485 q 241 153 181 222 q 418 83 301 83 q 535 103 479 83 q 643 165 592 124 l 681 83 m 396 831 q 302 849 347 831 q 221 906 257 867 q 164 1008 185 944 l 235 1039 q 308 942 268 969 q 396 914 349 914 q 483 942 443 914 q 556 1039 522 969 l 626 1008 q 571 906 607 944 q 489 849 535 867 q 396 831 443 831 z "},"ě":{"ha":756,"x_min":67,"x_max":693,"o":"m 681 83 q 563 15 635 40 q 417 -10 492 -10 q 230 33 308 -10 q 109 158 151 76 q 67 351 67 239 q 108 542 67 460 q 224 669 150 624 q 396 715 299 715 q 556 674 489 715 q 658 557 622 633 q 693 374 693 481 l 693 353 l 165 353 l 165 426 l 629 426 l 593 375 q 545 563 596 497 q 397 628 494 628 q 238 556 296 628 q 181 358 181 485 q 241 153 181 222 q 418 83 301 83 q 535 103 479 83 q 643 165 592 124 l 681 83 m 496 1072 l 600 1072 l 435 789 l 356 789 l 190 1072 l 294 1072 l 396 871 l 496 1072 z "},"ḝ":{"ha":756,"x_min":67,"x_max":693,"o":"m 681 83 q 563 15 635 40 q 417 -10 492 -10 q 230 33 308 -10 q 109 158 151 76 q 67 351 67 239 q 108 542 67 460 q 224 669 150 624 q 396 715 299 715 q 556 674 489 715 q 658 557 622 633 q 693 374 693 481 l 693 353 l 165 353 l 165 426 l 629 426 l 593 375 q 545 563 596 497 q 397 628 494 628 q 238 556 296 628 q 181 358 181 485 q 241 153 181 222 q 418 83 301 83 q 535 103 479 83 q 643 165 592 124 l 681 83 m 413 -271 q 350 -265 385 -271 q 289 -244 315 -258 l 307 -183 q 362 -199 336 -194 q 413 -203 388 -203 q 471 -190 451 -203 q 490 -154 490 -176 q 442 -117 490 -117 q 408 -120 424 -117 q 378 -129 392 -124 l 350 -107 l 365 28 l 444 28 l 433 -74 l 399 -71 q 434 -60 417 -64 q 468 -57 451 -57 q 542 -81 508 -57 q 575 -154 575 -104 q 533 -237 575 -204 q 413 -271 490 -271 m 396 831 q 302 849 347 831 q 221 906 257 867 q 164 1008 185 944 l 235 1039 q 308 942 268 969 q 396 914 349 914 q 483 942 443 914 q 556 1039 522 969 l 626 1008 q 571 906 607 944 q 489 849 535 867 q 396 831 443 831 z "},"ê":{"ha":756,"x_min":67,"x_max":693,"o":"m 681 83 q 563 15 635 40 q 417 -10 492 -10 q 230 33 308 -10 q 109 158 151 76 q 67 351 67 239 q 108 542 67 460 q 224 669 150 624 q 396 715 299 715 q 556 674 489 715 q 658 557 622 633 q 693 374 693 481 l 693 353 l 165 353 l 165 426 l 629 426 l 593 375 q 545 563 596 497 q 397 628 494 628 q 238 556 296 628 q 181 358 181 485 q 241 153 181 222 q 418 83 301 83 q 535 103 479 83 q 643 165 592 124 l 681 83 m 294 789 l 190 789 l 356 1072 l 435 1072 l 600 789 l 496 789 l 396 989 l 294 789 z "},"ế":{"ha":756,"x_min":67,"x_max":761,"o":"m 681 83 q 563 15 635 40 q 417 -10 492 -10 q 230 33 308 -10 q 109 158 151 76 q 67 351 67 239 q 108 542 67 460 q 224 669 150 624 q 396 715 299 715 q 556 674 489 715 q 658 557 622 633 q 693 374 693 481 l 693 353 l 165 353 l 165 426 l 629 426 l 593 375 q 545 563 596 497 q 397 628 494 628 q 238 556 296 628 q 181 358 181 485 q 241 153 181 222 q 418 83 301 83 q 535 103 479 83 q 643 165 592 124 l 681 83 m 293 789 l 190 789 l 357 994 l 433 994 l 600 789 l 497 789 l 396 928 l 293 789 m 583 933 l 514 933 l 642 1132 l 761 1132 l 583 933 z "},"ệ":{"ha":756,"x_min":67,"x_max":693,"o":"m 681 83 q 563 15 635 40 q 417 -10 492 -10 q 230 33 308 -10 q 109 158 151 76 q 67 351 67 239 q 108 542 67 460 q 224 669 150 624 q 396 715 299 715 q 556 674 489 715 q 658 557 622 633 q 693 374 693 481 l 693 353 l 165 353 l 165 426 l 629 426 l 593 375 q 545 563 596 497 q 397 628 494 628 q 238 556 296 628 q 181 358 181 485 q 241 153 181 222 q 418 83 301 83 q 535 103 479 83 q 643 165 592 124 l 681 83 m 350 -132 l 479 -132 l 479 -256 l 350 -256 l 350 -132 m 294 789 l 190 789 l 356 1072 l 435 1072 l 600 789 l 496 789 l 396 989 l 294 789 z "},"ề":{"ha":756,"x_min":67,"x_max":693,"o":"m 681 83 q 563 15 635 40 q 417 -10 492 -10 q 230 33 308 -10 q 109 158 151 76 q 67 351 67 239 q 108 542 67 460 q 224 669 150 624 q 396 715 299 715 q 556 674 489 715 q 658 557 622 633 q 693 374 693 481 l 693 353 l 165 353 l 165 426 l 629 426 l 593 375 q 545 563 596 497 q 397 628 494 628 q 238 556 296 628 q 181 358 181 485 q 241 153 181 222 q 418 83 301 83 q 535 103 479 83 q 643 165 592 124 l 681 83 m 293 789 l 190 789 l 357 994 l 433 994 l 600 789 l 497 789 l 396 928 l 293 789 m 574 933 l 417 1132 l 535 1132 l 643 933 l 574 933 z "},"ể":{"ha":756,"x_min":67,"x_max":697,"o":"m 681 83 q 563 15 635 40 q 417 -10 492 -10 q 230 33 308 -10 q 109 158 151 76 q 67 351 67 239 q 108 542 67 460 q 224 669 150 624 q 396 715 299 715 q 556 674 489 715 q 658 557 622 633 q 693 374 693 481 l 693 353 l 165 353 l 165 426 l 629 426 l 593 375 q 545 563 596 497 q 397 628 494 628 q 238 556 296 628 q 181 358 181 485 q 241 153 181 222 q 418 83 301 83 q 535 103 479 83 q 643 165 592 124 l 681 83 m 293 789 l 190 789 l 357 994 l 433 994 l 600 789 l 497 789 l 396 928 l 293 789 m 588 946 l 588 933 l 513 933 l 513 957 q 526 994 513 981 q 559 1014 540 1007 q 592 1028 578 1021 q 607 1046 607 1035 q 592 1065 607 1057 q 550 1072 578 1072 q 510 1069 531 1072 q 464 1054 489 1065 l 444 1115 q 499 1133 469 1126 q 558 1139 528 1139 q 660 1115 624 1139 q 697 1050 697 1090 q 681 1011 697 1025 q 642 989 664 997 q 604 972 621 981 q 588 946 588 963 z "},"ễ":{"ha":756,"x_min":67,"x_max":693,"o":"m 681 83 q 563 15 635 40 q 417 -10 492 -10 q 230 33 308 -10 q 109 158 151 76 q 67 351 67 239 q 108 542 67 460 q 224 669 150 624 q 396 715 299 715 q 556 674 489 715 q 658 557 622 633 q 693 374 693 481 l 693 353 l 165 353 l 165 426 l 629 426 l 593 375 q 545 563 596 497 q 397 628 494 628 q 238 556 296 628 q 181 358 181 485 q 241 153 181 222 q 418 83 301 83 q 535 103 479 83 q 643 165 592 124 l 681 83 m 293 789 l 190 789 l 357 994 l 433 994 l 600 789 l 497 789 l 396 928 l 293 789 m 169 1015 q 185 1087 169 1056 q 229 1136 201 1118 q 294 1154 257 1154 q 369 1139 333 1154 q 435 1109 404 1124 q 493 1094 467 1094 q 542 1114 525 1094 q 558 1156 558 1133 l 621 1156 q 605 1085 621 1115 q 561 1036 589 1054 q 496 1018 533 1018 q 422 1033 457 1018 q 355 1063 386 1049 q 297 1078 324 1078 q 249 1058 265 1078 q 232 1015 232 1039 l 169 1015 z "},"ȅ":{"ha":756,"x_min":67,"x_max":693,"o":"m 681 83 q 563 15 635 40 q 417 -10 492 -10 q 230 33 308 -10 q 109 158 151 76 q 67 351 67 239 q 108 542 67 460 q 224 669 150 624 q 396 715 299 715 q 556 674 489 715 q 658 557 622 633 q 693 374 693 481 l 693 353 l 165 353 l 165 426 l 629 426 l 593 375 q 545 563 596 497 q 397 628 494 628 q 238 556 296 628 q 181 358 181 485 q 241 153 181 222 q 418 83 301 83 q 535 103 479 83 q 643 165 592 124 l 681 83 m 451 789 l 340 1072 l 444 1072 l 508 789 l 451 789 m 282 789 l 171 1072 l 276 1072 l 339 789 l 282 789 z "},"ë":{"ha":756,"x_min":67,"x_max":693,"o":"m 681 83 q 563 15 635 40 q 417 -10 492 -10 q 230 33 308 -10 q 109 158 151 76 q 67 351 67 239 q 108 542 67 460 q 224 669 150 624 q 396 715 299 715 q 556 674 489 715 q 658 557 622 633 q 693 374 693 481 l 693 353 l 165 353 l 165 426 l 629 426 l 593 375 q 545 563 596 497 q 397 628 494 628 q 238 556 296 628 q 181 358 181 485 q 241 153 181 222 q 418 83 301 83 q 535 103 479 83 q 643 165 592 124 l 681 83 m 453 990 l 578 990 l 578 871 l 453 871 l 453 990 m 213 990 l 338 990 l 338 871 l 213 871 l 213 990 z "},"ė":{"ha":756,"x_min":67,"x_max":693,"o":"m 681 83 q 563 15 635 40 q 417 -10 492 -10 q 230 33 308 -10 q 109 158 151 76 q 67 351 67 239 q 108 542 67 460 q 224 669 150 624 q 396 715 299 715 q 556 674 489 715 q 658 557 622 633 q 693 374 693 481 l 693 353 l 165 353 l 165 426 l 629 426 l 593 375 q 545 563 596 497 q 397 628 494 628 q 238 556 296 628 q 181 358 181 485 q 241 153 181 222 q 418 83 301 83 q 535 103 479 83 q 643 165 592 124 l 681 83 m 326 994 l 464 994 l 464 867 l 326 867 l 326 994 z "},"ẹ":{"ha":756,"x_min":67,"x_max":693,"o":"m 681 83 q 563 15 635 40 q 417 -10 492 -10 q 230 33 308 -10 q 109 158 151 76 q 67 351 67 239 q 108 542 67 460 q 224 669 150 624 q 396 715 299 715 q 556 674 489 715 q 658 557 622 633 q 693 374 693 481 l 693 353 l 165 353 l 165 426 l 629 426 l 593 375 q 545 563 596 497 q 397 628 494 628 q 238 556 296 628 q 181 358 181 485 q 241 153 181 222 q 418 83 301 83 q 535 103 479 83 q 643 165 592 124 l 681 83 m 350 -132 l 479 -132 l 479 -256 l 350 -256 l 350 -132 z "},"è":{"ha":756,"x_min":67,"x_max":693,"o":"m 681 83 q 563 15 635 40 q 417 -10 492 -10 q 230 33 308 -10 q 109 158 151 76 q 67 351 67 239 q 108 542 67 460 q 224 669 150 624 q 396 715 299 715 q 556 674 489 715 q 658 557 622 633 q 693 374 693 481 l 693 353 l 165 353 l 165 426 l 629 426 l 593 375 q 545 563 596 497 q 397 628 494 628 q 238 556 296 628 q 181 358 181 485 q 241 153 181 222 q 418 83 301 83 q 535 103 479 83 q 643 165 592 124 l 681 83 m 356 789 l 165 1072 l 296 1072 l 435 789 l 356 789 z "},"ẻ":{"ha":756,"x_min":67,"x_max":693,"o":"m 681 83 q 563 15 635 40 q 417 -10 492 -10 q 230 33 308 -10 q 109 158 151 76 q 67 351 67 239 q 108 542 67 460 q 224 669 150 624 q 396 715 299 715 q 556 674 489 715 q 658 557 622 633 q 693 374 693 481 l 693 353 l 165 353 l 165 426 l 629 426 l 593 375 q 545 563 596 497 q 397 628 494 628 q 238 556 296 628 q 181 358 181 485 q 241 153 181 222 q 418 83 301 83 q 535 103 479 83 q 643 165 592 124 l 681 83 m 435 813 l 435 789 l 361 789 l 361 828 q 374 876 361 856 q 406 912 388 896 q 437 942 424 928 q 450 972 450 957 q 435 998 450 989 q 393 1007 421 1007 q 354 1003 374 1007 q 311 992 335 1000 l 290 1053 q 347 1072 318 1065 q 403 1078 375 1078 q 506 1049 469 1078 q 542 981 542 1021 q 526 926 542 947 q 488 890 510 906 q 451 857 467 874 q 435 813 435 840 z "},"ȇ":{"ha":756,"x_min":67,"x_max":693,"o":"m 681 83 q 563 15 635 40 q 417 -10 492 -10 q 230 33 308 -10 q 109 158 151 76 q 67 351 67 239 q 108 542 67 460 q 224 669 150 624 q 396 715 299 715 q 556 674 489 715 q 658 557 622 633 q 693 374 693 481 l 693 353 l 165 353 l 165 426 l 629 426 l 593 375 q 545 563 596 497 q 397 628 494 628 q 238 556 296 628 q 181 358 181 485 q 241 153 181 222 q 418 83 301 83 q 535 103 479 83 q 643 165 592 124 l 681 83 m 396 1036 q 488 1018 443 1036 q 569 961 533 1000 q 626 860 606 922 l 556 829 q 483 926 522 899 q 396 953 443 953 q 308 926 349 953 q 235 829 268 899 l 164 858 q 219 961 183 922 q 301 1018 256 1000 q 396 1036 347 1036 z "},"ē":{"ha":756,"x_min":67,"x_max":693,"o":"m 681 83 q 563 15 635 40 q 417 -10 492 -10 q 230 33 308 -10 q 109 158 151 76 q 67 351 67 239 q 108 542 67 460 q 224 669 150 624 q 396 715 299 715 q 556 674 489 715 q 658 557 622 633 q 693 374 693 481 l 693 353 l 165 353 l 165 426 l 629 426 l 593 375 q 545 563 596 497 q 397 628 494 628 q 238 556 296 628 q 181 358 181 485 q 241 153 181 222 q 418 83 301 83 q 535 103 479 83 q 643 165 592 124 l 681 83 m 185 888 l 185 974 l 606 974 l 606 888 l 185 888 z "},"ḗ":{"ha":756,"x_min":67,"x_max":693,"o":"m 681 83 q 563 15 635 40 q 417 -10 492 -10 q 230 33 308 -10 q 109 158 151 76 q 67 351 67 239 q 108 542 67 460 q 224 669 150 624 q 396 715 299 715 q 556 674 489 715 q 658 557 622 633 q 693 374 693 481 l 693 353 l 165 353 l 165 426 l 629 426 l 593 375 q 545 563 596 497 q 397 628 494 628 q 238 556 296 628 q 181 358 181 485 q 241 153 181 222 q 418 83 301 83 q 535 103 479 83 q 643 165 592 124 l 681 83 m 185 888 l 185 974 l 606 974 l 606 888 l 185 888 m 435 1061 l 356 1061 l 494 1344 l 625 1344 l 435 1061 z "},"ḕ":{"ha":756,"x_min":67,"x_max":693,"o":"m 681 83 q 563 15 635 40 q 417 -10 492 -10 q 230 33 308 -10 q 109 158 151 76 q 67 351 67 239 q 108 542 67 460 q 224 669 150 624 q 396 715 299 715 q 556 674 489 715 q 658 557 622 633 q 693 374 693 481 l 693 353 l 165 353 l 165 426 l 629 426 l 593 375 q 545 563 596 497 q 397 628 494 628 q 238 556 296 628 q 181 358 181 485 q 241 153 181 222 q 418 83 301 83 q 535 103 479 83 q 643 165 592 124 l 681 83 m 185 888 l 185 974 l 606 974 l 606 888 l 185 888 m 356 1061 l 165 1344 l 296 1344 l 435 1061 l 356 1061 z "},"ę":{"ha":756,"x_min":67,"x_max":693,"o":"m 560 -276 q 438 -235 485 -276 q 392 -126 392 -193 q 415 -44 392 -82 q 479 18 438 -7 l 504 4 q 459 -7 478 -4 q 417 -10 440 -10 q 230 33 308 -10 q 109 158 151 76 q 67 351 67 239 q 108 542 67 460 q 224 669 150 624 q 396 715 299 715 q 556 674 489 715 q 658 557 622 633 q 693 374 693 481 l 693 353 l 165 353 l 165 426 l 629 426 l 593 375 q 545 563 596 497 q 397 628 494 628 q 238 556 296 628 q 181 358 181 485 q 241 153 181 222 q 418 83 301 83 q 535 103 479 83 q 643 165 592 124 l 681 85 q 657 64 671 74 q 608 36 643 54 q 509 -35 538 -1 q 481 -111 481 -69 q 506 -178 481 -154 q 574 -203 531 -203 q 658 -176 613 -203 l 681 -244 q 625 -268 656 -260 q 560 -276 594 -276 z "},"ẽ":{"ha":756,"x_min":67,"x_max":693,"o":"m 681 83 q 563 15 635 40 q 417 -10 492 -10 q 230 33 308 -10 q 109 158 151 76 q 67 351 67 239 q 108 542 67 460 q 224 669 150 624 q 396 715 299 715 q 556 674 489 715 q 658 557 622 633 q 693 374 693 481 l 693 353 l 165 353 l 165 426 l 629 426 l 593 375 q 545 563 596 497 q 397 628 494 628 q 238 556 296 628 q 181 358 181 485 q 241 153 181 222 q 418 83 301 83 q 535 103 479 83 q 643 165 592 124 l 681 83 m 169 854 q 204 972 169 931 q 294 1014 239 1014 q 369 994 333 1014 q 435 953 404 974 q 493 933 467 933 q 542 956 525 933 q 558 1010 558 979 l 621 1010 q 586 892 621 933 q 496 850 551 850 q 422 870 457 850 q 355 910 386 890 q 297 931 324 931 q 249 907 265 931 q 232 854 232 883 l 169 854 z "},"ə":{"ha":756,"x_min":63,"x_max":689,"o":"m 74 621 q 199 690 125 665 q 347 715 274 715 q 528 672 451 715 q 647 547 606 628 q 689 354 689 465 q 649 161 689 243 q 538 35 610 79 q 368 -10 465 -10 q 144 81 225 -10 q 63 333 63 171 l 63 353 l 589 353 l 590 278 l 128 278 l 167 331 q 215 142 164 208 q 365 76 267 76 q 524 147 468 76 q 578 349 579 218 q 517 553 578 483 q 343 622 457 622 q 229 601 286 622 q 113 539 172 581 l 74 621 z "},"f":{"ha":468,"x_min":10,"x_max":449,"o":"m 10 610 l 10 699 l 429 699 l 429 610 l 10 610 m 449 919 q 376 931 410 931 q 316 919 343 931 q 274 876 289 907 q 258 792 258 846 l 258 0 l 146 0 l 146 806 q 201 973 146 918 q 354 1028 257 1028 q 401 1025 378 1028 q 449 1015 425 1022 l 449 919 z "},"g":{"ha":839,"x_min":67,"x_max":731,"o":"m 415 -310 q 140 -237 257 -310 l 160 -146 q 283 -200 225 -183 q 415 -217 342 -217 q 567 -163 515 -217 q 619 -4 619 -110 l 619 185 l 635 203 q 583 106 618 147 q 496 43 547 65 q 379 21 444 21 q 216 65 286 21 q 106 186 146 108 q 67 368 67 264 q 106 550 67 472 q 216 672 146 628 q 379 715 286 715 q 544 667 476 715 q 635 533 611 619 l 618 549 l 618 699 l 731 699 l 731 6 q 651 -231 731 -151 q 415 -310 571 -310 m 401 115 q 560 183 503 115 q 618 368 618 250 q 560 553 618 486 q 401 621 503 621 q 240 553 299 621 q 181 368 181 486 q 240 182 181 249 q 401 115 299 115 z "},"ğ":{"ha":839,"x_min":67,"x_max":731,"o":"m 415 -310 q 140 -237 257 -310 l 160 -146 q 283 -200 225 -183 q 415 -217 342 -217 q 567 -163 515 -217 q 619 -4 619 -110 l 619 185 l 635 203 q 583 106 618 147 q 496 43 547 65 q 379 21 444 21 q 216 65 286 21 q 106 186 146 108 q 67 368 67 264 q 106 550 67 472 q 216 672 146 628 q 379 715 286 715 q 544 667 476 715 q 635 533 611 619 l 618 549 l 618 699 l 731 699 l 731 6 q 651 -231 731 -151 q 415 -310 571 -310 m 401 115 q 560 183 503 115 q 618 368 618 250 q 560 553 618 486 q 401 621 503 621 q 240 553 299 621 q 181 368 181 486 q 240 182 181 249 q 401 115 299 115 m 422 831 q 328 849 374 831 q 247 906 283 867 q 190 1008 211 944 l 261 1039 q 335 942 294 969 q 422 914 375 914 q 509 942 469 914 q 582 1039 549 969 l 653 1008 q 597 906 633 944 q 515 849 561 867 q 422 831 469 831 z "},"ǧ":{"ha":839,"x_min":67,"x_max":731,"o":"m 415 -310 q 140 -237 257 -310 l 160 -146 q 283 -200 225 -183 q 415 -217 342 -217 q 567 -163 515 -217 q 619 -4 619 -110 l 619 185 l 635 203 q 583 106 618 147 q 496 43 547 65 q 379 21 444 21 q 216 65 286 21 q 106 186 146 108 q 67 368 67 264 q 106 550 67 472 q 216 672 146 628 q 379 715 286 715 q 544 667 476 715 q 635 533 611 619 l 618 549 l 618 699 l 731 699 l 731 6 q 651 -231 731 -151 q 415 -310 571 -310 m 401 115 q 560 183 503 115 q 618 368 618 250 q 560 553 618 486 q 401 621 503 621 q 240 553 299 621 q 181 368 181 486 q 240 182 181 249 q 401 115 299 115 m 522 1072 l 626 1072 l 461 789 l 382 789 l 217 1072 l 321 1072 l 422 871 l 522 1072 z "},"ĝ":{"ha":839,"x_min":67,"x_max":731,"o":"m 415 -310 q 140 -237 257 -310 l 160 -146 q 283 -200 225 -183 q 415 -217 342 -217 q 567 -163 515 -217 q 619 -4 619 -110 l 619 185 l 635 203 q 583 106 618 147 q 496 43 547 65 q 379 21 444 21 q 216 65 286 21 q 106 186 146 108 q 67 368 67 264 q 106 550 67 472 q 216 672 146 628 q 379 715 286 715 q 544 667 476 715 q 635 533 611 619 l 618 549 l 618 699 l 731 699 l 731 6 q 651 -231 731 -151 q 415 -310 571 -310 m 401 115 q 560 183 503 115 q 618 368 618 250 q 560 553 618 486 q 401 621 503 621 q 240 553 299 621 q 181 368 181 486 q 240 182 181 249 q 401 115 299 115 m 321 789 l 217 789 l 382 1072 l 461 1072 l 626 789 l 522 789 l 422 989 l 321 789 z "},"ģ":{"ha":839,"x_min":67,"x_max":731,"o":"m 415 -310 q 140 -237 257 -310 l 160 -146 q 283 -200 225 -183 q 415 -217 342 -217 q 567 -163 515 -217 q 619 -4 619 -110 l 619 185 l 635 203 q 583 106 618 147 q 496 43 547 65 q 379 21 444 21 q 216 65 286 21 q 106 186 146 108 q 67 368 67 264 q 106 550 67 472 q 216 672 146 628 q 379 715 286 715 q 544 667 476 715 q 635 533 611 619 l 618 549 l 618 699 l 731 699 l 731 6 q 651 -231 731 -151 q 415 -310 571 -310 m 401 115 q 560 183 503 115 q 618 368 618 250 q 560 553 618 486 q 401 621 503 621 q 240 553 299 621 q 181 368 181 486 q 240 182 181 249 q 401 115 299 115 m 353 829 l 353 910 q 367 1007 353 963 q 424 1092 382 1051 l 475 1053 q 434 990 443 1019 q 425 925 425 960 l 392 944 l 490 944 l 490 829 l 353 829 z "},"ġ":{"ha":839,"x_min":67,"x_max":731,"o":"m 415 -310 q 140 -237 257 -310 l 160 -146 q 283 -200 225 -183 q 415 -217 342 -217 q 567 -163 515 -217 q 619 -4 619 -110 l 619 185 l 635 203 q 583 106 618 147 q 496 43 547 65 q 379 21 444 21 q 216 65 286 21 q 106 186 146 108 q 67 368 67 264 q 106 550 67 472 q 216 672 146 628 q 379 715 286 715 q 544 667 476 715 q 635 533 611 619 l 618 549 l 618 699 l 731 699 l 731 6 q 651 -231 731 -151 q 415 -310 571 -310 m 401 115 q 560 183 503 115 q 618 368 618 250 q 560 553 618 486 q 401 621 503 621 q 240 553 299 621 q 181 368 181 486 q 240 182 181 249 q 401 115 299 115 m 353 994 l 490 994 l 490 867 l 353 867 l 353 994 z "},"ḡ":{"ha":839,"x_min":67,"x_max":731,"o":"m 415 -310 q 140 -237 257 -310 l 160 -146 q 283 -200 225 -183 q 415 -217 342 -217 q 567 -163 515 -217 q 619 -4 619 -110 l 619 185 l 635 203 q 583 106 618 147 q 496 43 547 65 q 379 21 444 21 q 216 65 286 21 q 106 186 146 108 q 67 368 67 264 q 106 550 67 472 q 216 672 146 628 q 379 715 286 715 q 544 667 476 715 q 635 533 611 619 l 618 549 l 618 699 l 731 699 l 731 6 q 651 -231 731 -151 q 415 -310 571 -310 m 401 115 q 560 183 503 115 q 618 368 618 250 q 560 553 618 486 q 401 621 503 621 q 240 553 299 621 q 181 368 181 486 q 240 182 181 249 q 401 115 299 115 m 211 888 l 211 974 l 632 974 l 632 888 l 211 888 z "},"h":{"ha":813,"x_min":108,"x_max":708,"o":"m 108 0 l 108 1022 l 221 1022 l 221 557 l 203 543 q 300 672 232 628 q 457 715 368 715 q 708 439 708 715 l 708 0 l 596 0 l 596 433 q 557 576 596 531 q 435 621 518 621 q 279 561 338 621 q 221 400 221 501 l 221 0 l 108 0 z "},"ħ":{"ha":813,"x_min":-24,"x_max":708,"o":"m 108 0 l 108 1022 l 221 1022 l 221 557 l 203 543 q 300 672 232 628 q 457 715 368 715 q 708 439 708 715 l 708 0 l 596 0 l 596 433 q 557 576 596 531 q 435 621 518 621 q 279 561 338 621 q 221 400 221 501 l 221 0 l 108 0 m -24 808 l -24 893 l 499 893 l 499 808 l -24 808 z "},"ḫ":{"ha":813,"x_min":108,"x_max":708,"o":"m 108 0 l 108 1022 l 221 1022 l 221 557 l 203 543 q 300 672 232 628 q 457 715 368 715 q 708 439 708 715 l 708 0 l 596 0 l 596 433 q 557 576 596 531 q 435 621 518 621 q 279 561 338 621 q 221 400 221 501 l 221 0 l 108 0 m 408 -296 q 315 -278 360 -296 q 233 -222 269 -260 q 176 -119 197 -183 l 247 -89 q 321 -185 281 -157 q 408 -212 361 -212 q 495 -185 456 -212 q 568 -89 535 -157 l 639 -118 q 583 -221 619 -182 q 501 -278 547 -260 q 408 -296 456 -296 z "},"ĥ":{"ha":813,"x_min":-39,"x_max":708,"o":"m 108 0 l 108 1022 l 221 1022 l 221 557 l 203 543 q 300 672 232 628 q 457 715 368 715 q 708 439 708 715 l 708 0 l 596 0 l 596 433 q 557 576 596 531 q 435 621 518 621 q 279 561 338 621 q 221 400 221 501 l 221 0 l 108 0 m 64 1107 l -39 1107 l 128 1319 l 204 1319 l 371 1107 l 268 1107 l 167 1251 l 64 1107 z "},"ḥ":{"ha":813,"x_min":108,"x_max":708,"o":"m 108 0 l 108 1022 l 221 1022 l 221 557 l 203 543 q 300 672 232 628 q 457 715 368 715 q 708 439 708 715 l 708 0 l 596 0 l 596 433 q 557 576 596 531 q 435 621 518 621 q 279 561 338 621 q 221 400 221 501 l 221 0 l 108 0 m 343 -132 l 472 -132 l 472 -256 l 343 -256 l 343 -132 z "},"i":{"ha":331,"x_min":97,"x_max":235,"o":"m 108 0 l 108 699 l 221 699 l 221 0 l 108 0 m 97 994 l 235 994 l 235 867 l 97 867 l 97 994 z "},"ı":{"ha":331,"x_min":108,"x_max":221,"o":"m 108 0 l 108 699 l 221 699 l 221 0 l 108 0 z "},"í":{"ha":331,"x_min":108,"x_max":396,"o":"m 108 0 l 108 699 l 221 699 l 221 0 l 108 0 m 206 789 l 126 789 l 265 1072 l 396 1072 l 206 789 z "},"ĭ":{"ha":331,"x_min":-65,"x_max":397,"o":"m 108 0 l 108 699 l 221 699 l 221 0 l 108 0 m 167 831 q 73 849 118 831 q -8 906 28 867 q -65 1008 -44 944 l 6 1039 q 79 942 39 969 q 167 914 119 914 q 253 942 214 914 q 326 1039 293 969 l 397 1008 q 342 906 378 944 q 260 849 306 867 q 167 831 214 831 z "},"î":{"ha":331,"x_min":-39,"x_max":371,"o":"m 108 0 l 108 699 l 221 699 l 221 0 l 108 0 m 65 789 l -39 789 l 126 1072 l 206 1072 l 371 789 l 267 789 l 167 989 l 65 789 z "},"ȉ":{"ha":331,"x_min":-58,"x_max":279,"o":"m 108 0 l 108 699 l 221 699 l 221 0 l 108 0 m 222 789 l 111 1072 l 215 1072 l 279 789 l 222 789 m 53 789 l -58 1072 l 47 1072 l 110 789 l 53 789 z "},"ï":{"ha":331,"x_min":-17,"x_max":349,"o":"m 108 0 l 108 699 l 221 699 l 221 0 l 108 0 m 224 990 l 349 990 l 349 871 l 224 871 l 224 990 m -17 990 l 108 990 l 108 871 l -17 871 l -17 990 z "},"ḯ":{"ha":331,"x_min":-17,"x_max":396,"o":"m 108 0 l 108 699 l 221 699 l 221 0 l 108 0 m 224 990 l 349 990 l 349 871 l 224 871 l 224 990 m -17 990 l 108 990 l 108 871 l -17 871 l -17 990 m 206 1061 l 126 1061 l 265 1344 l 396 1344 l 206 1061 z "},"ị":{"ha":331,"x_min":97,"x_max":235,"o":"m 108 0 l 108 699 l 221 699 l 221 0 l 108 0 m 97 994 l 235 994 l 235 867 l 97 867 l 97 994 m 99 -132 l 228 -132 l 228 -256 l 99 -256 l 99 -132 z "},"ì":{"ha":331,"x_min":-64,"x_max":221,"o":"m 108 0 l 108 699 l 221 699 l 221 0 l 108 0 m 126 789 l -64 1072 l 67 1072 l 206 789 l 126 789 z "},"ỉ":{"ha":331,"x_min":61,"x_max":313,"o":"m 108 0 l 108 699 l 221 699 l 221 0 l 108 0 m 206 813 l 206 789 l 132 789 l 132 828 q 145 876 132 856 q 176 912 158 896 q 208 942 194 928 q 221 972 221 957 q 206 998 221 989 q 164 1007 192 1007 q 125 1003 144 1007 q 82 992 106 1000 l 61 1053 q 117 1072 89 1065 q 174 1078 146 1078 q 276 1049 240 1078 q 313 981 313 1021 q 297 926 313 947 q 259 890 281 906 q 222 857 238 874 q 206 813 206 840 z "},"ȋ":{"ha":331,"x_min":-65,"x_max":397,"o":"m 108 0 l 108 699 l 221 699 l 221 0 l 108 0 m 167 1036 q 259 1018 214 1036 q 340 961 304 1000 q 397 860 376 922 l 326 829 q 253 926 293 899 q 167 953 214 953 q 79 926 119 953 q 6 829 39 899 l -65 858 q -10 961 -46 922 q 72 1018 26 1000 q 167 1036 118 1036 z "},"ī":{"ha":331,"x_min":-44,"x_max":376,"o":"m 108 0 l 108 699 l 221 699 l 221 0 l 108 0 m -44 888 l -44 974 l 376 974 l 376 888 l -44 888 z "},"į":{"ha":331,"x_min":-4,"x_max":286,"o":"m 163 -276 q 42 -234 89 -276 q -4 -125 -4 -192 q 40 -13 -4 -62 q 169 54 85 36 l 143 0 l 108 0 l 108 699 l 221 699 l 221 0 l 214 0 q 117 -33 151 0 q 83 -111 83 -65 q 110 -179 83 -156 q 181 -203 138 -203 q 219 -197 197 -203 q 263 -176 240 -190 l 286 -244 q 231 -267 263 -258 q 163 -276 199 -276 m 96 1000 l 235 1000 l 235 872 l 96 872 l 96 1000 z "},"ĩ":{"ha":331,"x_min":-60,"x_max":392,"o":"m 108 0 l 108 699 l 221 699 l 221 0 l 108 0 m -60 854 q -25 972 -60 931 q 65 1014 10 1014 q 140 994 104 1014 q 206 953 175 974 q 264 933 238 933 q 313 956 296 933 q 329 1010 329 979 l 392 1010 q 357 892 392 933 q 267 850 322 850 q 192 870 228 850 q 126 910 157 890 q 68 931 94 931 q 19 907 36 931 q 3 854 3 883 l -60 854 z "},"j":{"ha":331,"x_min":-76,"x_max":233,"o":"m -76 -197 q -40 -206 -56 -203 q -8 -208 -24 -208 q 51 -197 24 -208 q 93 -155 78 -185 q 108 -69 108 -125 l 108 699 l 221 699 l 221 -83 q 165 -251 221 -196 q 15 -306 110 -306 q -31 -303 -7 -306 q -76 -293 -54 -300 l -76 -197 m 96 994 l 233 994 l 233 867 l 96 867 l 96 994 z "},"ȷ":{"ha":331,"x_min":-76,"x_max":221,"o":"m -76 -197 q -40 -206 -56 -203 q -8 -208 -24 -208 q 51 -197 24 -208 q 93 -155 78 -185 q 108 -69 108 -125 l 108 699 l 221 699 l 221 -83 q 165 -251 221 -196 q 15 -306 110 -306 q -31 -303 -7 -306 q -76 -293 -54 -300 l -76 -197 z "},"ĵ":{"ha":331,"x_min":-76,"x_max":369,"o":"m -76 -197 q -40 -206 -56 -203 q -8 -208 -24 -208 q 51 -197 24 -208 q 93 -155 78 -185 q 108 -69 108 -125 l 108 699 l 221 699 l 221 -83 q 165 -251 221 -196 q 15 -306 110 -306 q -31 -303 -7 -306 q -76 -293 -54 -300 l -76 -197 m 64 789 l -40 789 l 125 1072 l 204 1072 l 369 789 l 265 789 l 165 989 l 64 789 z "},"k":{"ha":715,"x_min":108,"x_max":726,"o":"m 579 0 l 199 357 l 550 697 l 693 697 l 304 325 l 308 396 l 726 0 l 579 0 m 108 0 l 108 1022 l 221 1022 l 221 0 l 108 0 z "},"ķ":{"ha":715,"x_min":108,"x_max":726,"o":"m 579 0 l 199 357 l 550 697 l 693 697 l 304 325 l 308 396 l 726 0 l 579 0 m 108 0 l 108 1022 l 221 1022 l 221 0 l 108 0 m 425 -101 l 425 -182 q 410 -279 425 -235 q 353 -364 396 -324 l 301 -325 q 343 -262 333 -292 q 353 -199 353 -232 l 385 -217 l 288 -217 l 288 -101 l 425 -101 z "},"ĸ":{"ha":715,"x_min":108,"x_max":726,"o":"m 579 0 l 199 357 l 550 697 l 693 697 l 304 325 l 308 396 l 726 0 l 579 0 m 108 0 l 108 699 l 221 699 l 221 0 l 108 0 z "},"l":{"ha":331,"x_min":108,"x_max":221,"o":"m 108 0 l 108 1022 l 221 1022 l 221 0 l 108 0 z "},"ĺ":{"ha":331,"x_min":108,"x_max":392,"o":"m 108 0 l 108 1022 l 221 1022 l 221 0 l 108 0 m 206 1107 l 126 1107 l 268 1319 l 392 1319 l 206 1107 z "},"ľ":{"ha":331,"x_min":108,"x_max":364,"o":"m 326 750 l 274 750 l 274 1022 l 364 1022 l 326 750 m 108 0 l 108 1022 l 221 1022 l 221 0 l 108 0 z "},"ļ":{"ha":331,"x_min":97,"x_max":235,"o":"m 108 0 l 108 1022 l 221 1022 l 221 0 l 108 0 m 235 -101 l 235 -182 q 220 -279 235 -235 q 163 -364 206 -324 l 111 -325 q 153 -262 143 -292 q 163 -199 163 -232 l 194 -217 l 97 -217 l 97 -101 l 235 -101 z "},"ŀ":{"ha":371,"x_min":108,"x_max":414,"o":"m 108 0 l 108 1022 l 221 1022 l 221 0 l 108 0 m 271 564 l 414 564 l 414 432 l 271 432 l 271 564 z "},"ḷ":{"ha":331,"x_min":101,"x_max":231,"o":"m 108 0 l 108 1022 l 221 1022 l 221 0 l 108 0 m 101 -132 l 231 -132 l 231 -256 l 101 -256 l 101 -132 z "},"ǉ":{"ha":661,"x_min":108,"x_max":564,"o":"m 108 0 l 108 1022 l 221 1022 l 221 0 l 108 0 m 254 -197 q 291 -206 275 -203 q 322 -208 307 -208 q 381 -197 354 -208 q 424 -155 408 -185 q 439 -69 439 -125 l 439 699 l 551 699 l 551 -83 q 496 -251 551 -196 q 346 -306 440 -306 q 300 -303 324 -306 q 254 -293 276 -300 l 254 -197 m 426 994 l 564 994 l 564 867 l 426 867 l 426 994 z "},"ḻ":{"ha":331,"x_min":-44,"x_max":376,"o":"m 108 0 l 108 1022 l 221 1022 l 221 0 l 108 0 m -44 -236 l -44 -153 l 376 -153 l 376 -236 l -44 -236 z "},"ł":{"ha":401,"x_min":-10,"x_max":413,"o":"m 36 363 l -10 443 l 365 661 l 413 579 l 36 363 m 144 0 l 144 1022 l 257 1022 l 257 0 l 144 0 z "},"m":{"ha":1221,"x_min":97,"x_max":1115,"o":"m 108 0 l 108 503 q 106 601 108 551 q 97 699 104 650 l 204 699 l 217 554 l 203 544 q 290 671 228 626 q 436 715 351 715 q 594 665 538 715 q 665 513 650 615 l 632 531 q 722 665 654 615 q 883 715 789 715 q 1057 647 999 715 q 1115 439 1115 578 l 1115 0 l 1003 0 l 1003 433 q 968 576 1003 531 q 858 621 933 621 q 720 561 771 621 q 669 399 669 501 l 669 0 l 557 0 l 557 433 q 522 576 557 531 q 411 621 486 621 q 272 561 322 621 q 221 399 221 501 l 221 0 l 108 0 z "},"ṃ":{"ha":1221,"x_min":97,"x_max":1115,"o":"m 108 0 l 108 503 q 106 601 108 551 q 97 699 104 650 l 204 699 l 217 554 l 203 544 q 290 671 228 626 q 436 715 351 715 q 594 665 538 715 q 665 513 650 615 l 632 531 q 722 665 654 615 q 883 715 789 715 q 1057 647 999 715 q 1115 439 1115 578 l 1115 0 l 1003 0 l 1003 433 q 968 576 1003 531 q 858 621 933 621 q 720 561 771 621 q 669 399 669 501 l 669 0 l 557 0 l 557 433 q 522 576 557 531 q 411 621 486 621 q 272 561 322 621 q 221 399 221 501 l 221 0 l 108 0 m 547 -132 l 676 -132 l 676 -256 l 547 -256 l 547 -132 z "},"n":{"ha":813,"x_min":97,"x_max":708,"o":"m 108 0 l 108 503 q 106 601 108 551 q 97 699 104 650 l 204 699 l 217 554 l 203 543 q 300 672 232 628 q 457 715 368 715 q 708 439 708 715 l 708 0 l 596 0 l 596 433 q 557 576 596 531 q 435 621 518 621 q 279 561 338 621 q 221 400 221 501 l 221 0 l 108 0 z "},"ń":{"ha":813,"x_min":97,"x_max":708,"o":"m 108 0 l 108 503 q 106 601 108 551 q 97 699 104 650 l 204 699 l 217 554 l 203 543 q 300 672 232 628 q 457 715 368 715 q 708 439 708 715 l 708 0 l 596 0 l 596 433 q 557 576 596 531 q 435 621 518 621 q 279 561 338 621 q 221 400 221 501 l 221 0 l 108 0 m 447 789 l 368 789 l 507 1072 l 638 1072 l 447 789 z "},"ŉ":{"ha":813,"x_min":97,"x_max":708,"o":"m 275 1057 l 275 976 q 260 879 275 924 q 204 794 246 835 l 153 833 q 194 897 185 867 q 203 960 203 926 l 236 942 l 138 942 l 138 1057 l 275 1057 m 108 0 l 108 503 q 106 601 108 551 q 97 699 104 650 l 204 699 l 217 554 l 203 543 q 300 672 232 628 q 457 715 368 715 q 708 439 708 715 l 708 0 l 596 0 l 596 433 q 557 576 596 531 q 435 621 518 621 q 279 561 338 621 q 221 400 221 501 l 221 0 l 108 0 z "},"ň":{"ha":813,"x_min":97,"x_max":708,"o":"m 108 0 l 108 503 q 106 601 108 551 q 97 699 104 650 l 204 699 l 217 554 l 203 543 q 300 672 232 628 q 457 715 368 715 q 708 439 708 715 l 708 0 l 596 0 l 596 433 q 557 576 596 531 q 435 621 518 621 q 279 561 338 621 q 221 400 221 501 l 221 0 l 108 0 m 508 1072 l 613 1072 l 447 789 l 368 789 l 203 1072 l 307 1072 l 408 871 l 508 1072 z "},"ņ":{"ha":813,"x_min":97,"x_max":708,"o":"m 108 0 l 108 503 q 106 601 108 551 q 97 699 104 650 l 204 699 l 217 554 l 203 543 q 300 672 232 628 q 457 715 368 715 q 708 439 708 715 l 708 0 l 596 0 l 596 433 q 557 576 596 531 q 435 621 518 621 q 279 561 338 621 q 221 400 221 501 l 221 0 l 108 0 m 476 -101 l 476 -182 q 462 -279 476 -235 q 404 -364 447 -324 l 353 -325 q 394 -262 385 -292 q 404 -199 404 -232 l 436 -217 l 339 -217 l 339 -101 l 476 -101 z "},"ṅ":{"ha":813,"x_min":97,"x_max":708,"o":"m 108 0 l 108 503 q 106 601 108 551 q 97 699 104 650 l 204 699 l 217 554 l 203 543 q 300 672 232 628 q 457 715 368 715 q 708 439 708 715 l 708 0 l 596 0 l 596 433 q 557 576 596 531 q 435 621 518 621 q 279 561 338 621 q 221 400 221 501 l 221 0 l 108 0 m 339 994 l 476 994 l 476 867 l 339 867 l 339 994 z "},"ṇ":{"ha":813,"x_min":97,"x_max":708,"o":"m 108 0 l 108 503 q 106 601 108 551 q 97 699 104 650 l 204 699 l 217 554 l 203 543 q 300 672 232 628 q 457 715 368 715 q 708 439 708 715 l 708 0 l 596 0 l 596 433 q 557 576 596 531 q 435 621 518 621 q 279 561 338 621 q 221 400 221 501 l 221 0 l 108 0 m 343 -132 l 472 -132 l 472 -256 l 343 -256 l 343 -132 z "},"ŋ":{"ha":813,"x_min":97,"x_max":708,"o":"m 457 715 q 708 439 708 715 l 708 -54 q 683 -201 708 -146 q 611 -281 657 -257 q 503 -306 565 -306 q 456 -303 479 -306 q 411 -294 433 -300 l 411 -197 q 448 -206 432 -203 q 479 -208 464 -208 q 538 -195 511 -208 q 581 -146 565 -182 q 596 -40 596 -110 l 596 433 q 557 576 596 531 q 435 621 518 621 q 279 561 338 621 q 221 400 221 501 l 221 0 l 108 0 l 108 503 q 106 601 108 551 q 97 699 104 650 l 204 699 l 217 554 l 203 543 q 300 672 232 628 q 457 715 368 715 z "},"ǌ":{"ha":1143,"x_min":97,"x_max":1046,"o":"m 108 0 l 108 503 q 106 601 108 551 q 97 699 104 650 l 204 699 l 217 554 l 203 543 q 300 672 232 628 q 457 715 368 715 q 708 439 708 715 l 708 0 l 596 0 l 596 433 q 557 576 596 531 q 435 621 518 621 q 279 561 338 621 q 221 400 221 501 l 221 0 l 108 0 m 736 -197 q 773 -206 757 -203 q 804 -208 789 -208 q 863 -197 836 -208 q 906 -155 890 -185 q 921 -69 921 -125 l 921 699 l 1033 699 l 1033 -83 q 978 -251 1033 -196 q 828 -306 922 -306 q 782 -303 806 -306 q 736 -293 758 -300 l 736 -197 m 908 994 l 1046 994 l 1046 867 l 908 867 l 908 994 z "},"ṉ":{"ha":813,"x_min":97,"x_max":708,"o":"m 108 0 l 108 503 q 106 601 108 551 q 97 699 104 650 l 204 699 l 217 554 l 203 543 q 300 672 232 628 q 457 715 368 715 q 708 439 708 715 l 708 0 l 596 0 l 596 433 q 557 576 596 531 q 435 621 518 621 q 279 561 338 621 q 221 400 221 501 l 221 0 l 108 0 m 197 -236 l 197 -153 l 618 -153 l 618 -236 l 197 -236 z "},"ñ":{"ha":813,"x_min":97,"x_max":708,"o":"m 108 0 l 108 503 q 106 601 108 551 q 97 699 104 650 l 204 699 l 217 554 l 203 543 q 300 672 232 628 q 457 715 368 715 q 708 439 708 715 l 708 0 l 596 0 l 596 433 q 557 576 596 531 q 435 621 518 621 q 279 561 338 621 q 221 400 221 501 l 221 0 l 108 0 m 182 854 q 217 972 182 931 q 307 1014 251 1014 q 381 994 346 1014 q 448 953 417 974 q 506 933 479 933 q 554 956 538 933 q 571 1010 571 979 l 633 1010 q 599 892 633 933 q 508 850 564 850 q 434 870 469 850 q 367 910 399 890 q 310 931 336 931 q 261 907 278 931 q 244 854 244 883 l 182 854 z "},"o":{"ha":794,"x_min":67,"x_max":728,"o":"m 397 -10 q 223 35 297 -10 q 108 160 149 79 q 67 353 67 242 q 108 544 67 463 q 223 671 149 626 q 397 715 297 715 q 572 671 497 715 q 687 544 646 626 q 728 353 728 463 q 687 160 728 242 q 572 35 646 79 q 397 -10 497 -10 m 397 83 q 556 152 500 83 q 613 353 613 221 q 556 551 613 482 q 397 621 499 621 q 238 551 296 621 q 181 353 181 482 q 237 152 181 221 q 397 83 293 83 z "},"ó":{"ha":794,"x_min":67,"x_max":728,"o":"m 397 -10 q 223 35 297 -10 q 108 160 149 79 q 67 353 67 242 q 108 544 67 463 q 223 671 149 626 q 397 715 297 715 q 572 671 497 715 q 687 544 646 626 q 728 353 728 463 q 687 160 728 242 q 572 35 646 79 q 397 -10 497 -10 m 397 83 q 556 152 500 83 q 613 353 613 221 q 556 551 613 482 q 397 621 499 621 q 238 551 296 621 q 181 353 181 482 q 237 152 181 221 q 397 83 293 83 m 436 789 l 357 789 l 496 1072 l 626 1072 l 436 789 z "},"ŏ":{"ha":794,"x_min":67,"x_max":728,"o":"m 397 -10 q 223 35 297 -10 q 108 160 149 79 q 67 353 67 242 q 108 544 67 463 q 223 671 149 626 q 397 715 297 715 q 572 671 497 715 q 687 544 646 626 q 728 353 728 463 q 687 160 728 242 q 572 35 646 79 q 397 -10 497 -10 m 397 83 q 556 152 500 83 q 613 353 613 221 q 556 551 613 482 q 397 621 499 621 q 238 551 296 621 q 181 353 181 482 q 237 152 181 221 q 397 83 293 83 m 397 831 q 303 849 349 831 q 222 906 258 867 q 165 1008 186 944 l 236 1039 q 310 942 269 969 q 397 914 350 914 q 484 942 444 914 q 557 1039 524 969 l 628 1008 q 572 906 608 944 q 490 849 536 867 q 397 831 444 831 z "},"ô":{"ha":794,"x_min":67,"x_max":728,"o":"m 397 -10 q 223 35 297 -10 q 108 160 149 79 q 67 353 67 242 q 108 544 67 463 q 223 671 149 626 q 397 715 297 715 q 572 671 497 715 q 687 544 646 626 q 728 353 728 463 q 687 160 728 242 q 572 35 646 79 q 397 -10 497 -10 m 397 83 q 556 152 500 83 q 613 353 613 221 q 556 551 613 482 q 397 621 499 621 q 238 551 296 621 q 181 353 181 482 q 237 152 181 221 q 397 83 293 83 m 296 789 l 192 789 l 357 1072 l 436 1072 l 601 789 l 497 789 l 397 989 l 296 789 z "},"ố":{"ha":794,"x_min":67,"x_max":763,"o":"m 397 -10 q 223 35 297 -10 q 108 160 149 79 q 67 353 67 242 q 108 544 67 463 q 223 671 149 626 q 397 715 297 715 q 572 671 497 715 q 687 544 646 626 q 728 353 728 463 q 687 160 728 242 q 572 35 646 79 q 397 -10 497 -10 m 397 83 q 556 152 500 83 q 613 353 613 221 q 556 551 613 482 q 397 621 499 621 q 238 551 296 621 q 181 353 181 482 q 237 152 181 221 q 397 83 293 83 m 294 789 l 192 789 l 358 994 l 435 994 l 601 789 l 499 789 l 397 928 l 294 789 m 585 933 l 515 933 l 643 1132 l 763 1132 l 585 933 z "},"ộ":{"ha":794,"x_min":67,"x_max":728,"o":"m 397 -10 q 223 35 297 -10 q 108 160 149 79 q 67 353 67 242 q 108 544 67 463 q 223 671 149 626 q 397 715 297 715 q 572 671 497 715 q 687 544 646 626 q 728 353 728 463 q 687 160 728 242 q 572 35 646 79 q 397 -10 497 -10 m 397 83 q 556 152 500 83 q 613 353 613 221 q 556 551 613 482 q 397 621 499 621 q 238 551 296 621 q 181 353 181 482 q 237 152 181 221 q 397 83 293 83 m 332 -132 l 461 -132 l 461 -256 l 332 -256 l 332 -132 m 296 789 l 192 789 l 357 1072 l 436 1072 l 601 789 l 497 789 l 397 989 l 296 789 z "},"ồ":{"ha":794,"x_min":67,"x_max":728,"o":"m 397 -10 q 223 35 297 -10 q 108 160 149 79 q 67 353 67 242 q 108 544 67 463 q 223 671 149 626 q 397 715 297 715 q 572 671 497 715 q 687 544 646 626 q 728 353 728 463 q 687 160 728 242 q 572 35 646 79 q 397 -10 497 -10 m 397 83 q 556 152 500 83 q 613 353 613 221 q 556 551 613 482 q 397 621 499 621 q 238 551 296 621 q 181 353 181 482 q 237 152 181 221 q 397 83 293 83 m 294 789 l 192 789 l 358 994 l 435 994 l 601 789 l 499 789 l 397 928 l 294 789 m 575 933 l 418 1132 l 536 1132 l 644 933 l 575 933 z "},"ổ":{"ha":794,"x_min":67,"x_max":728,"o":"m 397 -10 q 223 35 297 -10 q 108 160 149 79 q 67 353 67 242 q 108 544 67 463 q 223 671 149 626 q 397 715 297 715 q 572 671 497 715 q 687 544 646 626 q 728 353 728 463 q 687 160 728 242 q 572 35 646 79 q 397 -10 497 -10 m 397 83 q 556 152 500 83 q 613 353 613 221 q 556 551 613 482 q 397 621 499 621 q 238 551 296 621 q 181 353 181 482 q 237 152 181 221 q 397 83 293 83 m 294 789 l 192 789 l 358 994 l 435 994 l 601 789 l 499 789 l 397 928 l 294 789 m 589 946 l 589 933 l 514 933 l 514 957 q 528 994 514 981 q 560 1014 542 1007 q 594 1028 579 1021 q 608 1046 608 1035 q 594 1065 608 1057 q 551 1072 579 1072 q 511 1069 532 1072 q 465 1054 490 1065 l 446 1115 q 500 1133 471 1126 q 560 1139 529 1139 q 662 1115 625 1139 q 699 1050 699 1090 q 682 1011 699 1025 q 644 989 665 997 q 606 972 622 981 q 589 946 589 963 z "},"ỗ":{"ha":794,"x_min":67,"x_max":728,"o":"m 397 -10 q 223 35 297 -10 q 108 160 149 79 q 67 353 67 242 q 108 544 67 463 q 223 671 149 626 q 397 715 297 715 q 572 671 497 715 q 687 544 646 626 q 728 353 728 463 q 687 160 728 242 q 572 35 646 79 q 397 -10 497 -10 m 397 83 q 556 152 500 83 q 613 353 613 221 q 556 551 613 482 q 397 621 499 621 q 238 551 296 621 q 181 353 181 482 q 237 152 181 221 q 397 83 293 83 m 294 789 l 192 789 l 358 994 l 435 994 l 601 789 l 499 789 l 397 928 l 294 789 m 171 1015 q 187 1087 171 1056 q 231 1136 203 1118 q 296 1154 258 1154 q 370 1139 335 1154 q 437 1109 406 1124 q 494 1094 468 1094 q 543 1114 526 1094 q 560 1156 560 1133 l 622 1156 q 606 1085 622 1115 q 563 1036 590 1054 q 497 1018 535 1018 q 423 1033 458 1018 q 356 1063 388 1049 q 299 1078 325 1078 q 250 1058 267 1078 q 233 1015 233 1039 l 171 1015 z "},"ȍ":{"ha":794,"x_min":67,"x_max":728,"o":"m 397 -10 q 223 35 297 -10 q 108 160 149 79 q 67 353 67 242 q 108 544 67 463 q 223 671 149 626 q 397 715 297 715 q 572 671 497 715 q 687 544 646 626 q 728 353 728 463 q 687 160 728 242 q 572 35 646 79 q 397 -10 497 -10 m 397 83 q 556 152 500 83 q 613 353 613 221 q 556 551 613 482 q 397 621 499 621 q 238 551 296 621 q 181 353 181 482 q 237 152 181 221 q 397 83 293 83 m 453 789 l 342 1072 l 446 1072 l 510 789 l 453 789 m 283 789 l 172 1072 l 278 1072 l 340 789 l 283 789 z "},"ö":{"ha":794,"x_min":67,"x_max":728,"o":"m 397 -10 q 223 35 297 -10 q 108 160 149 79 q 67 353 67 242 q 108 544 67 463 q 223 671 149 626 q 397 715 297 715 q 572 671 497 715 q 687 544 646 626 q 728 353 728 463 q 687 160 728 242 q 572 35 646 79 q 397 -10 497 -10 m 397 83 q 556 152 500 83 q 613 353 613 221 q 556 551 613 482 q 397 621 499 621 q 238 551 296 621 q 181 353 181 482 q 237 152 181 221 q 397 83 293 83 m 454 990 l 579 990 l 579 871 l 454 871 l 454 990 m 214 990 l 339 990 l 339 871 l 214 871 l 214 990 z "},"ȫ":{"ha":794,"x_min":67,"x_max":728,"o":"m 397 -10 q 223 35 297 -10 q 108 160 149 79 q 67 353 67 242 q 108 544 67 463 q 223 671 149 626 q 397 715 297 715 q 572 671 497 715 q 687 544 646 626 q 728 353 728 463 q 687 160 728 242 q 572 35 646 79 q 397 -10 497 -10 m 397 83 q 556 152 500 83 q 613 353 613 221 q 556 551 613 482 q 397 621 499 621 q 238 551 296 621 q 181 353 181 482 q 237 152 181 221 q 397 83 293 83 m 454 990 l 579 990 l 579 871 l 454 871 l 454 990 m 214 990 l 339 990 l 339 871 l 214 871 l 214 990 m 186 1160 l 186 1246 l 607 1246 l 607 1160 l 186 1160 z "},"ȱ":{"ha":794,"x_min":67,"x_max":728,"o":"m 397 -10 q 223 35 297 -10 q 108 160 149 79 q 67 353 67 242 q 108 544 67 463 q 223 671 149 626 q 397 715 297 715 q 572 671 497 715 q 687 544 646 626 q 728 353 728 463 q 687 160 728 242 q 572 35 646 79 q 397 -10 497 -10 m 397 83 q 556 152 500 83 q 613 353 613 221 q 556 551 613 482 q 397 621 499 621 q 238 551 296 621 q 181 353 181 482 q 237 152 181 221 q 397 83 293 83 m 328 994 l 465 994 l 465 867 l 328 867 l 328 994 m 186 1160 l 186 1246 l 607 1246 l 607 1160 l 186 1160 z "},"ọ":{"ha":794,"x_min":67,"x_max":728,"o":"m 397 -10 q 223 35 297 -10 q 108 160 149 79 q 67 353 67 242 q 108 544 67 463 q 223 671 149 626 q 397 715 297 715 q 572 671 497 715 q 687 544 646 626 q 728 353 728 463 q 687 160 728 242 q 572 35 646 79 q 397 -10 497 -10 m 397 83 q 556 152 500 83 q 613 353 613 221 q 556 551 613 482 q 397 621 499 621 q 238 551 296 621 q 181 353 181 482 q 237 152 181 221 q 397 83 293 83 m 332 -132 l 461 -132 l 461 -256 l 332 -256 l 332 -132 z "},"ò":{"ha":794,"x_min":67,"x_max":728,"o":"m 397 -10 q 223 35 297 -10 q 108 160 149 79 q 67 353 67 242 q 108 544 67 463 q 223 671 149 626 q 397 715 297 715 q 572 671 497 715 q 687 544 646 626 q 728 353 728 463 q 687 160 728 242 q 572 35 646 79 q 397 -10 497 -10 m 397 83 q 556 152 500 83 q 613 353 613 221 q 556 551 613 482 q 397 621 499 621 q 238 551 296 621 q 181 353 181 482 q 237 152 181 221 q 397 83 293 83 m 357 789 l 167 1072 l 297 1072 l 436 789 l 357 789 z "},"ỏ":{"ha":794,"x_min":67,"x_max":728,"o":"m 397 -10 q 223 35 297 -10 q 108 160 149 79 q 67 353 67 242 q 108 544 67 463 q 223 671 149 626 q 397 715 297 715 q 572 671 497 715 q 687 544 646 626 q 728 353 728 463 q 687 160 728 242 q 572 35 646 79 q 397 -10 497 -10 m 397 83 q 556 152 500 83 q 613 353 613 221 q 556 551 613 482 q 397 621 499 621 q 238 551 296 621 q 181 353 181 482 q 237 152 181 221 q 397 83 293 83 m 436 813 l 436 789 l 363 789 l 363 828 q 376 876 363 856 q 407 912 389 896 q 438 942 425 928 q 451 972 451 957 q 437 998 451 989 q 394 1007 422 1007 q 356 1003 375 1007 q 313 992 336 1000 l 292 1053 q 348 1072 319 1065 q 404 1078 376 1078 q 507 1049 471 1078 q 543 981 543 1021 q 527 926 543 947 q 490 890 511 906 q 452 857 468 874 q 436 813 436 840 z "},"ơ":{"ha":794,"x_min":67,"x_max":731,"o":"m 397 -10 q 223 35 297 -10 q 108 160 149 79 q 67 353 67 242 q 108 544 67 463 q 223 671 149 626 q 397 715 297 715 q 434 713 414 715 q 472 708 454 710 q 499 706 489 706 q 572 721 543 706 q 616 770 601 736 q 631 863 631 804 l 631 883 l 731 883 l 731 847 q 678 697 731 753 q 528 635 625 640 l 567 669 q 685 544 643 626 q 728 353 728 463 q 687 160 728 242 q 572 35 646 79 q 397 -10 497 -10 m 397 83 q 556 152 500 83 q 613 353 613 221 q 556 551 613 482 q 397 621 499 621 q 238 551 296 621 q 181 353 181 482 q 237 152 181 221 q 397 83 293 83 z "},"ớ":{"ha":794,"x_min":67,"x_max":731,"o":"m 397 -10 q 223 35 297 -10 q 108 160 149 79 q 67 353 67 242 q 108 544 67 463 q 223 671 149 626 q 397 715 297 715 q 434 713 414 715 q 472 708 454 710 q 499 706 489 706 q 572 721 543 706 q 616 770 601 736 q 631 863 631 804 l 631 883 l 731 883 l 731 847 q 678 697 731 753 q 528 635 625 640 l 567 669 q 685 544 643 626 q 728 353 728 463 q 687 160 728 242 q 572 35 646 79 q 397 -10 497 -10 m 397 83 q 556 152 500 83 q 613 353 613 221 q 556 551 613 482 q 397 621 499 621 q 238 551 296 621 q 181 353 181 482 q 237 152 181 221 q 397 83 293 83 m 436 789 l 357 789 l 496 1072 l 626 1072 l 436 789 z "},"ợ":{"ha":794,"x_min":67,"x_max":731,"o":"m 397 -10 q 223 35 297 -10 q 108 160 149 79 q 67 353 67 242 q 108 544 67 463 q 223 671 149 626 q 397 715 297 715 q 434 713 414 715 q 472 708 454 710 q 499 706 489 706 q 572 721 543 706 q 616 770 601 736 q 631 863 631 804 l 631 883 l 731 883 l 731 847 q 678 697 731 753 q 528 635 625 640 l 567 669 q 685 544 643 626 q 728 353 728 463 q 687 160 728 242 q 572 35 646 79 q 397 -10 497 -10 m 397 83 q 556 152 500 83 q 613 353 613 221 q 556 551 613 482 q 397 621 499 621 q 238 551 296 621 q 181 353 181 482 q 237 152 181 221 q 397 83 293 83 m 332 -132 l 461 -132 l 461 -256 l 332 -256 l 332 -132 z "},"ờ":{"ha":794,"x_min":67,"x_max":731,"o":"m 397 -10 q 223 35 297 -10 q 108 160 149 79 q 67 353 67 242 q 108 544 67 463 q 223 671 149 626 q 397 715 297 715 q 434 713 414 715 q 472 708 454 710 q 499 706 489 706 q 572 721 543 706 q 616 770 601 736 q 631 863 631 804 l 631 883 l 731 883 l 731 847 q 678 697 731 753 q 528 635 625 640 l 567 669 q 685 544 643 626 q 728 353 728 463 q 687 160 728 242 q 572 35 646 79 q 397 -10 497 -10 m 397 83 q 556 152 500 83 q 613 353 613 221 q 556 551 613 482 q 397 621 499 621 q 238 551 296 621 q 181 353 181 482 q 237 152 181 221 q 397 83 293 83 m 357 789 l 167 1072 l 297 1072 l 436 789 l 357 789 z "},"ở":{"ha":794,"x_min":67,"x_max":731,"o":"m 397 -10 q 223 35 297 -10 q 108 160 149 79 q 67 353 67 242 q 108 544 67 463 q 223 671 149 626 q 397 715 297 715 q 434 713 414 715 q 472 708 454 710 q 499 706 489 706 q 572 721 543 706 q 616 770 601 736 q 631 863 631 804 l 631 883 l 731 883 l 731 847 q 678 697 731 753 q 528 635 625 640 l 567 669 q 685 544 643 626 q 728 353 728 463 q 687 160 728 242 q 572 35 646 79 q 397 -10 497 -10 m 397 83 q 556 152 500 83 q 613 353 613 221 q 556 551 613 482 q 397 621 499 621 q 238 551 296 621 q 181 353 181 482 q 237 152 181 221 q 397 83 293 83 m 436 813 l 436 789 l 363 789 l 363 828 q 376 876 363 856 q 407 912 389 896 q 438 942 425 928 q 451 972 451 957 q 437 998 451 989 q 394 1007 422 1007 q 356 1003 375 1007 q 313 992 336 1000 l 292 1053 q 348 1072 319 1065 q 404 1078 376 1078 q 507 1049 471 1078 q 543 981 543 1021 q 527 926 543 947 q 490 890 511 906 q 452 857 468 874 q 436 813 436 840 z "},"ỡ":{"ha":794,"x_min":67,"x_max":731,"o":"m 397 -10 q 223 35 297 -10 q 108 160 149 79 q 67 353 67 242 q 108 544 67 463 q 223 671 149 626 q 397 715 297 715 q 434 713 414 715 q 472 708 454 710 q 499 706 489 706 q 572 721 543 706 q 616 770 601 736 q 631 863 631 804 l 631 883 l 731 883 l 731 847 q 678 697 731 753 q 528 635 625 640 l 567 669 q 685 544 643 626 q 728 353 728 463 q 687 160 728 242 q 572 35 646 79 q 397 -10 497 -10 m 397 83 q 556 152 500 83 q 613 353 613 221 q 556 551 613 482 q 397 621 499 621 q 238 551 296 621 q 181 353 181 482 q 237 152 181 221 q 397 83 293 83 m 171 854 q 206 972 171 931 q 296 1014 240 1014 q 370 994 335 1014 q 437 953 406 974 q 494 933 468 933 q 543 956 526 933 q 560 1010 560 979 l 622 1010 q 588 892 622 933 q 497 850 553 850 q 423 870 458 850 q 356 910 388 890 q 299 931 325 931 q 250 907 267 931 q 233 854 233 883 l 171 854 z "},"ő":{"ha":794,"x_min":67,"x_max":728,"o":"m 397 -10 q 223 35 297 -10 q 108 160 149 79 q 67 353 67 242 q 108 544 67 463 q 223 671 149 626 q 397 715 297 715 q 572 671 497 715 q 687 544 646 626 q 728 353 728 463 q 687 160 728 242 q 572 35 646 79 q 397 -10 497 -10 m 397 83 q 556 152 500 83 q 613 353 613 221 q 556 551 613 482 q 397 621 499 621 q 238 551 296 621 q 181 353 181 482 q 237 152 181 221 q 397 83 293 83 m 340 789 l 283 789 l 347 1072 l 451 1072 l 340 789 m 510 789 l 453 789 l 515 1072 l 621 1072 l 510 789 z "},"ȏ":{"ha":794,"x_min":67,"x_max":728,"o":"m 397 -10 q 223 35 297 -10 q 108 160 149 79 q 67 353 67 242 q 108 544 67 463 q 223 671 149 626 q 397 715 297 715 q 572 671 497 715 q 687 544 646 626 q 728 353 728 463 q 687 160 728 242 q 572 35 646 79 q 397 -10 497 -10 m 397 83 q 556 152 500 83 q 613 353 613 221 q 556 551 613 482 q 397 621 499 621 q 238 551 296 621 q 181 353 181 482 q 237 152 181 221 q 397 83 293 83 m 397 1036 q 490 1018 444 1036 q 571 961 535 1000 q 628 860 607 922 l 557 829 q 484 926 524 899 q 397 953 444 953 q 310 926 350 953 q 236 829 269 899 l 165 858 q 221 961 185 922 q 303 1018 257 1000 q 397 1036 349 1036 z "},"ō":{"ha":794,"x_min":67,"x_max":728,"o":"m 397 -10 q 223 35 297 -10 q 108 160 149 79 q 67 353 67 242 q 108 544 67 463 q 223 671 149 626 q 397 715 297 715 q 572 671 497 715 q 687 544 646 626 q 728 353 728 463 q 687 160 728 242 q 572 35 646 79 q 397 -10 497 -10 m 397 83 q 556 152 500 83 q 613 353 613 221 q 556 551 613 482 q 397 621 499 621 q 238 551 296 621 q 181 353 181 482 q 237 152 181 221 q 397 83 293 83 m 186 888 l 186 974 l 607 974 l 607 888 l 186 888 z "},"ṓ":{"ha":794,"x_min":67,"x_max":728,"o":"m 397 -10 q 223 35 297 -10 q 108 160 149 79 q 67 353 67 242 q 108 544 67 463 q 223 671 149 626 q 397 715 297 715 q 572 671 497 715 q 687 544 646 626 q 728 353 728 463 q 687 160 728 242 q 572 35 646 79 q 397 -10 497 -10 m 397 83 q 556 152 500 83 q 613 353 613 221 q 556 551 613 482 q 397 621 499 621 q 238 551 296 621 q 181 353 181 482 q 237 152 181 221 q 397 83 293 83 m 186 888 l 186 974 l 607 974 l 607 888 l 186 888 m 436 1061 l 357 1061 l 496 1344 l 626 1344 l 436 1061 z "},"ṑ":{"ha":794,"x_min":67,"x_max":728,"o":"m 397 -10 q 223 35 297 -10 q 108 160 149 79 q 67 353 67 242 q 108 544 67 463 q 223 671 149 626 q 397 715 297 715 q 572 671 497 715 q 687 544 646 626 q 728 353 728 463 q 687 160 728 242 q 572 35 646 79 q 397 -10 497 -10 m 397 83 q 556 152 500 83 q 613 353 613 221 q 556 551 613 482 q 397 621 499 621 q 238 551 296 621 q 181 353 181 482 q 237 152 181 221 q 397 83 293 83 m 186 888 l 186 974 l 607 974 l 607 888 l 186 888 m 357 1061 l 167 1344 l 297 1344 l 436 1061 l 357 1061 z "},"ǫ":{"ha":794,"x_min":67,"x_max":728,"o":"m 478 -276 q 357 -235 404 -276 q 310 -126 310 -193 q 333 -42 310 -79 q 399 18 356 -4 l 404 -10 q 226 33 301 -11 q 108 158 150 76 q 67 353 67 240 q 108 544 67 463 q 223 671 149 626 q 397 715 297 715 q 572 671 497 715 q 687 544 646 626 q 728 353 728 463 q 672 132 728 224 q 518 10 615 40 q 426 -38 453 -10 q 399 -111 399 -67 q 424 -178 399 -154 q 493 -203 450 -203 q 576 -176 531 -203 l 599 -244 q 543 -268 574 -260 q 478 -276 513 -276 m 397 83 q 556 152 500 83 q 613 353 613 221 q 556 551 613 482 q 397 621 499 621 q 238 551 296 621 q 181 353 181 482 q 237 152 181 221 q 397 83 293 83 z "},"ø":{"ha":794,"x_min":67,"x_max":728,"o":"m 397 -10 q 223 35 297 -10 q 108 160 149 79 q 67 353 67 242 q 108 544 67 463 q 223 671 149 626 q 397 715 297 715 q 572 671 497 715 q 687 544 646 626 q 728 353 728 463 q 687 160 728 242 q 572 35 646 79 q 397 -10 497 -10 m 200 -65 l 132 -25 l 593 768 l 663 731 l 200 -65 m 397 83 q 558 152 501 83 q 614 353 614 221 q 557 552 614 482 q 397 622 500 622 q 238 552 294 622 q 181 353 181 482 q 236 152 181 221 q 397 83 292 83 z "},"ǿ":{"ha":794,"x_min":67,"x_max":728,"o":"m 397 -10 q 223 35 297 -10 q 108 160 149 79 q 67 353 67 242 q 108 544 67 463 q 223 671 149 626 q 397 715 297 715 q 572 671 497 715 q 687 544 646 626 q 728 353 728 463 q 687 160 728 242 q 572 35 646 79 q 397 -10 497 -10 m 200 -65 l 132 -25 l 593 768 l 663 731 l 200 -65 m 397 83 q 558 152 501 83 q 614 353 614 221 q 557 552 614 482 q 397 622 500 622 q 238 552 294 622 q 181 353 181 482 q 236 152 181 221 q 397 83 292 83 m 436 789 l 357 789 l 496 1072 l 626 1072 l 436 789 z "},"õ":{"ha":794,"x_min":67,"x_max":728,"o":"m 397 -10 q 223 35 297 -10 q 108 160 149 79 q 67 353 67 242 q 108 544 67 463 q 223 671 149 626 q 397 715 297 715 q 572 671 497 715 q 687 544 646 626 q 728 353 728 463 q 687 160 728 242 q 572 35 646 79 q 397 -10 497 -10 m 397 83 q 556 152 500 83 q 613 353 613 221 q 556 551 613 482 q 397 621 499 621 q 238 551 296 621 q 181 353 181 482 q 237 152 181 221 q 397 83 293 83 m 171 854 q 206 972 171 931 q 296 1014 240 1014 q 370 994 335 1014 q 437 953 406 974 q 494 933 468 933 q 543 956 526 933 q 560 1010 560 979 l 622 1010 q 588 892 622 933 q 497 850 553 850 q 423 870 458 850 q 356 910 388 890 q 299 931 325 931 q 250 907 267 931 q 233 854 233 883 l 171 854 z "},"ṍ":{"ha":794,"x_min":67,"x_max":728,"o":"m 397 -10 q 223 35 297 -10 q 108 160 149 79 q 67 353 67 242 q 108 544 67 463 q 223 671 149 626 q 397 715 297 715 q 572 671 497 715 q 687 544 646 626 q 728 353 728 463 q 687 160 728 242 q 572 35 646 79 q 397 -10 497 -10 m 397 83 q 556 152 500 83 q 613 353 613 221 q 556 551 613 482 q 397 621 499 621 q 238 551 296 621 q 181 353 181 482 q 237 152 181 221 q 397 83 293 83 m 171 854 q 206 972 171 931 q 296 1014 240 1014 q 370 994 335 1014 q 437 953 406 974 q 494 933 468 933 q 543 956 526 933 q 560 1010 560 979 l 622 1010 q 588 892 622 933 q 497 850 553 850 q 423 870 458 850 q 356 910 388 890 q 299 931 325 931 q 250 907 267 931 q 233 854 233 883 l 171 854 m 436 1061 l 357 1061 l 496 1344 l 626 1344 l 436 1061 z "},"ṏ":{"ha":794,"x_min":67,"x_max":728,"o":"m 397 -10 q 223 35 297 -10 q 108 160 149 79 q 67 353 67 242 q 108 544 67 463 q 223 671 149 626 q 397 715 297 715 q 572 671 497 715 q 687 544 646 626 q 728 353 728 463 q 687 160 728 242 q 572 35 646 79 q 397 -10 497 -10 m 397 83 q 556 152 500 83 q 613 353 613 221 q 556 551 613 482 q 397 621 499 621 q 238 551 296 621 q 181 353 181 482 q 237 152 181 221 q 397 83 293 83 m 171 854 q 206 972 171 931 q 296 1014 240 1014 q 370 994 335 1014 q 437 953 406 974 q 494 933 468 933 q 543 956 526 933 q 560 1010 560 979 l 622 1010 q 588 892 622 933 q 497 850 553 850 q 423 870 458 850 q 356 910 388 890 q 299 931 325 931 q 250 907 267 931 q 233 854 233 883 l 171 854 m 454 1263 l 579 1263 l 579 1143 l 454 1143 l 454 1263 m 214 1263 l 339 1263 l 339 1143 l 214 1143 l 214 1263 z "},"ȭ":{"ha":794,"x_min":67,"x_max":728,"o":"m 397 -10 q 223 35 297 -10 q 108 160 149 79 q 67 353 67 242 q 108 544 67 463 q 223 671 149 626 q 397 715 297 715 q 572 671 497 715 q 687 544 646 626 q 728 353 728 463 q 687 160 728 242 q 572 35 646 79 q 397 -10 497 -10 m 397 83 q 556 152 500 83 q 613 353 613 221 q 556 551 613 482 q 397 621 499 621 q 238 551 296 621 q 181 353 181 482 q 237 152 181 221 q 397 83 293 83 m 171 854 q 206 972 171 931 q 296 1014 240 1014 q 370 994 335 1014 q 437 953 406 974 q 494 933 468 933 q 543 956 526 933 q 560 1010 560 979 l 622 1010 q 588 892 622 933 q 497 850 553 850 q 423 870 458 850 q 356 910 388 890 q 299 931 325 931 q 250 907 267 931 q 233 854 233 883 l 171 854 m 186 1160 l 186 1246 l 607 1246 l 607 1160 l 186 1160 z "},"œ":{"ha":1296,"x_min":67,"x_max":1233,"o":"m 396 -10 q 222 35 296 -10 q 108 160 149 79 q 67 353 67 242 q 108 544 67 463 q 222 670 149 625 q 396 715 296 715 q 563 671 492 715 q 672 545 633 626 q 711 353 711 464 q 672 160 711 242 q 563 34 633 78 q 396 -10 492 -10 m 396 83 q 555 152 499 83 q 611 353 611 221 q 554 551 611 482 q 397 621 497 621 q 238 551 296 621 q 181 353 181 482 q 237 152 181 221 q 396 83 293 83 m 961 -10 q 721 84 808 -10 q 629 349 633 178 q 665 540 626 457 q 776 669 704 622 q 944 715 847 715 q 1099 674 1033 715 q 1199 557 1164 633 q 1233 374 1233 481 l 1233 332 l 703 332 l 703 406 l 1169 406 l 1135 375 q 1088 563 1138 497 q 943 628 1038 628 q 783 556 840 628 q 726 358 726 485 q 785 153 726 222 q 960 83 844 83 q 1076 104 1021 83 q 1183 165 1132 125 l 1222 83 q 1105 16 1176 42 q 961 -10 1033 -10 z "},"p":{"ha":833,"x_min":97,"x_max":768,"o":"m 108 -300 l 108 503 q 106 601 108 551 q 97 699 104 650 l 204 699 l 217 554 l 206 533 q 296 668 229 621 q 457 715 363 715 q 619 669 549 715 q 728 542 689 624 q 768 350 768 460 q 728 159 768 240 q 619 34 689 78 q 457 -10 550 -10 q 296 38 363 -10 q 206 172 229 85 l 221 186 l 221 -300 l 108 -300 m 436 83 q 594 153 538 83 q 651 350 651 222 q 594 549 651 478 q 436 621 538 621 q 276 551 332 621 q 221 353 221 482 q 276 153 221 224 q 436 83 332 83 z "},"þ":{"ha":833,"x_min":108,"x_max":768,"o":"m 108 -300 l 108 1022 l 221 1022 l 221 519 l 206 533 q 296 668 229 621 q 457 715 363 715 q 617 671 547 715 q 728 544 688 626 q 768 350 768 463 q 728 156 768 236 q 617 33 688 75 q 457 -10 547 -10 q 296 38 363 -10 q 206 172 229 85 l 221 186 l 221 -300 l 108 -300 m 436 83 q 596 153 540 83 q 651 350 651 224 q 596 548 651 475 q 436 621 540 621 q 276 551 332 621 q 221 353 221 482 q 276 153 221 224 q 436 83 332 83 z "},"q":{"ha":833,"x_min":67,"x_max":735,"o":"m 724 -300 l 611 -300 l 611 186 l 629 172 q 539 38 606 85 q 376 -10 472 -10 q 213 34 283 -10 q 105 159 143 78 q 67 350 67 240 q 106 542 67 460 q 215 669 144 624 q 376 715 285 715 q 539 668 472 715 q 629 533 606 621 l 615 554 l 631 699 l 735 699 q 726 601 729 650 q 724 503 724 551 l 724 -300 m 399 83 q 557 153 501 83 q 613 353 613 224 q 556 551 613 482 q 399 621 500 621 q 238 549 296 621 q 181 350 181 478 q 238 153 181 222 q 399 83 296 83 z "},"r":{"ha":503,"x_min":97,"x_max":497,"o":"m 108 0 l 108 503 q 106 601 108 551 q 97 699 104 650 l 204 699 l 219 526 l 204 531 q 288 669 224 622 q 433 715 353 715 q 467 713 451 715 q 497 707 483 711 l 494 604 q 421 615 463 615 q 305 583 349 615 q 241 502 261 551 q 221 399 221 453 l 221 0 l 108 0 z "},"ŕ":{"ha":503,"x_min":97,"x_max":536,"o":"m 108 0 l 108 503 q 106 601 108 551 q 97 699 104 650 l 204 699 l 219 526 l 204 531 q 288 669 224 622 q 433 715 353 715 q 467 713 451 715 q 497 707 483 711 l 494 604 q 421 615 463 615 q 305 583 349 615 q 241 502 261 551 q 221 399 221 453 l 221 0 l 108 0 m 346 789 l 267 789 l 406 1072 l 536 1072 l 346 789 z "},"ř":{"ha":503,"x_min":97,"x_max":511,"o":"m 108 0 l 108 503 q 106 601 108 551 q 97 699 104 650 l 204 699 l 219 526 l 204 531 q 288 669 224 622 q 433 715 353 715 q 467 713 451 715 q 497 707 483 711 l 494 604 q 421 615 463 615 q 305 583 349 615 q 241 502 261 551 q 221 399 221 453 l 221 0 l 108 0 m 407 1072 l 511 1072 l 346 789 l 267 789 l 101 1072 l 206 1072 l 307 871 l 407 1072 z "},"ŗ":{"ha":503,"x_min":97,"x_max":497,"o":"m 108 0 l 108 503 q 106 601 108 551 q 97 699 104 650 l 204 699 l 219 526 l 204 531 q 288 669 224 622 q 433 715 353 715 q 467 713 451 715 q 497 707 483 711 l 494 604 q 421 615 463 615 q 305 583 349 615 q 241 502 261 551 q 221 399 221 453 l 221 0 l 108 0 m 235 -101 l 235 -182 q 220 -279 235 -235 q 163 -364 206 -324 l 111 -325 q 153 -262 143 -292 q 163 -199 163 -232 l 194 -217 l 97 -217 l 97 -101 l 235 -101 z "},"ȑ":{"ha":503,"x_min":82,"x_max":497,"o":"m 108 0 l 108 503 q 106 601 108 551 q 97 699 104 650 l 204 699 l 219 526 l 204 531 q 288 669 224 622 q 433 715 353 715 q 467 713 451 715 q 497 707 483 711 l 494 604 q 421 615 463 615 q 305 583 349 615 q 241 502 261 551 q 221 399 221 453 l 221 0 l 108 0 m 363 789 l 251 1072 l 356 1072 l 419 789 l 363 789 m 193 789 l 82 1072 l 188 1072 l 250 789 l 193 789 z "},"ṛ":{"ha":503,"x_min":97,"x_max":497,"o":"m 108 0 l 108 503 q 106 601 108 551 q 97 699 104 650 l 204 699 l 219 526 l 204 531 q 288 669 224 622 q 433 715 353 715 q 467 713 451 715 q 497 707 483 711 l 494 604 q 421 615 463 615 q 305 583 349 615 q 241 502 261 551 q 221 399 221 453 l 221 0 l 108 0 m 101 -132 l 231 -132 l 231 -256 l 101 -256 l 101 -132 z "},"ȓ":{"ha":503,"x_min":75,"x_max":538,"o":"m 108 0 l 108 503 q 106 601 108 551 q 97 699 104 650 l 204 699 l 219 526 l 204 531 q 288 669 224 622 q 433 715 353 715 q 467 713 451 715 q 497 707 483 711 l 494 604 q 421 615 463 615 q 305 583 349 615 q 241 502 261 551 q 221 399 221 453 l 221 0 l 108 0 m 307 1036 q 399 1018 354 1036 q 481 961 444 1000 q 538 860 517 922 l 467 829 q 394 926 433 899 q 307 953 354 953 q 219 926 260 953 q 146 829 179 899 l 75 858 q 131 961 94 922 q 213 1018 167 1000 q 307 1036 258 1036 z "},"ṟ":{"ha":503,"x_min":-44,"x_max":497,"o":"m 108 0 l 108 503 q 106 601 108 551 q 97 699 104 650 l 204 699 l 219 526 l 204 531 q 288 669 224 622 q 433 715 353 715 q 467 713 451 715 q 497 707 483 711 l 494 604 q 421 615 463 615 q 305 583 349 615 q 241 502 261 551 q 221 399 221 453 l 221 0 l 108 0 m -44 -236 l -44 -153 l 376 -153 l 376 -236 l -44 -236 z "},"s":{"ha":689,"x_min":65,"x_max":618,"o":"m 344 -10 q 65 81 168 -10 l 103 164 q 217 101 158 121 q 349 81 276 81 q 469 108 428 81 q 510 186 510 135 q 482 252 510 228 q 390 292 454 276 l 272 319 q 137 389 185 339 q 89 508 89 439 q 122 616 89 569 q 215 689 156 663 q 357 715 275 715 q 496 692 431 715 q 606 624 561 668 l 568 542 q 466 603 518 583 q 357 624 414 624 q 241 594 282 624 q 200 515 200 565 q 226 447 200 472 q 308 408 251 422 l 426 379 q 572 310 525 358 q 618 189 618 263 q 544 44 618 99 q 344 -10 471 -10 z "},"ś":{"ha":689,"x_min":65,"x_max":618,"o":"m 344 -10 q 65 81 168 -10 l 103 164 q 217 101 158 121 q 349 81 276 81 q 469 108 428 81 q 510 186 510 135 q 482 252 510 228 q 390 292 454 276 l 272 319 q 137 389 185 339 q 89 508 89 439 q 122 616 89 569 q 215 689 156 663 q 357 715 275 715 q 496 692 431 715 q 606 624 561 668 l 568 542 q 466 603 518 583 q 357 624 414 624 q 241 594 282 624 q 200 515 200 565 q 226 447 200 472 q 308 408 251 422 l 426 379 q 572 310 525 358 q 618 189 618 263 q 544 44 618 99 q 344 -10 471 -10 m 396 789 l 317 789 l 456 1072 l 586 1072 l 396 789 z "},"ṥ":{"ha":689,"x_min":65,"x_max":618,"o":"m 344 -10 q 65 81 168 -10 l 103 164 q 217 101 158 121 q 349 81 276 81 q 469 108 428 81 q 510 186 510 135 q 482 252 510 228 q 390 292 454 276 l 272 319 q 137 389 185 339 q 89 508 89 439 q 122 616 89 569 q 215 689 156 663 q 357 715 275 715 q 496 692 431 715 q 606 624 561 668 l 568 542 q 466 603 518 583 q 357 624 414 624 q 241 594 282 624 q 200 515 200 565 q 226 447 200 472 q 308 408 251 422 l 426 379 q 572 310 525 358 q 618 189 618 263 q 544 44 618 99 q 344 -10 471 -10 m 401 785 l 322 785 l 461 1068 l 592 1068 l 401 785 m 147 1060 l 285 1060 l 285 932 l 147 932 l 147 1060 z "},"š":{"ha":689,"x_min":65,"x_max":618,"o":"m 344 -10 q 65 81 168 -10 l 103 164 q 217 101 158 121 q 349 81 276 81 q 469 108 428 81 q 510 186 510 135 q 482 252 510 228 q 390 292 454 276 l 272 319 q 137 389 185 339 q 89 508 89 439 q 122 616 89 569 q 215 689 156 663 q 357 715 275 715 q 496 692 431 715 q 606 624 561 668 l 568 542 q 466 603 518 583 q 357 624 414 624 q 241 594 282 624 q 200 515 200 565 q 226 447 200 472 q 308 408 251 422 l 426 379 q 572 310 525 358 q 618 189 618 263 q 544 44 618 99 q 344 -10 471 -10 m 457 1072 l 561 1072 l 396 789 l 317 789 l 151 1072 l 256 1072 l 357 871 l 457 1072 z "},"ṧ":{"ha":689,"x_min":65,"x_max":618,"o":"m 344 -10 q 65 81 168 -10 l 103 164 q 217 101 158 121 q 349 81 276 81 q 469 108 428 81 q 510 186 510 135 q 482 252 510 228 q 390 292 454 276 l 272 319 q 137 389 185 339 q 89 508 89 439 q 122 616 89 569 q 215 689 156 663 q 357 715 275 715 q 496 692 431 715 q 606 624 561 668 l 568 542 q 466 603 518 583 q 357 624 414 624 q 241 594 282 624 q 200 515 200 565 q 226 447 200 472 q 308 408 251 422 l 426 379 q 572 310 525 358 q 618 189 618 263 q 544 44 618 99 q 344 -10 471 -10 m 457 1072 l 561 1072 l 396 789 l 317 789 l 151 1072 l 256 1072 l 357 871 l 457 1072 m 288 1267 l 425 1267 l 425 1139 l 288 1139 l 288 1267 z "},"ş":{"ha":689,"x_min":65,"x_max":618,"o":"m 344 -10 q 65 81 168 -10 l 103 164 q 217 101 158 121 q 349 81 276 81 q 469 108 428 81 q 510 186 510 135 q 482 252 510 228 q 390 292 454 276 l 272 319 q 137 389 185 339 q 89 508 89 439 q 122 616 89 569 q 215 689 156 663 q 357 715 275 715 q 496 692 431 715 q 606 624 561 668 l 568 542 q 466 603 518 583 q 357 624 414 624 q 241 594 282 624 q 200 515 200 565 q 226 447 200 472 q 308 408 251 422 l 426 379 q 572 310 525 358 q 618 189 618 263 q 544 44 618 99 q 344 -10 471 -10 m 340 -271 q 278 -265 313 -271 q 217 -244 243 -258 l 235 -183 q 290 -199 264 -194 q 340 -203 315 -203 q 399 -190 379 -203 q 418 -154 418 -176 q 369 -117 418 -117 q 335 -120 351 -117 q 306 -129 319 -124 l 278 -107 l 293 28 l 372 28 l 361 -74 l 326 -71 q 362 -60 344 -64 q 396 -57 379 -57 q 469 -81 436 -57 q 503 -154 503 -104 q 460 -237 503 -204 q 340 -271 418 -271 z "},"ŝ":{"ha":689,"x_min":65,"x_max":618,"o":"m 344 -10 q 65 81 168 -10 l 103 164 q 217 101 158 121 q 349 81 276 81 q 469 108 428 81 q 510 186 510 135 q 482 252 510 228 q 390 292 454 276 l 272 319 q 137 389 185 339 q 89 508 89 439 q 122 616 89 569 q 215 689 156 663 q 357 715 275 715 q 496 692 431 715 q 606 624 561 668 l 568 542 q 466 603 518 583 q 357 624 414 624 q 241 594 282 624 q 200 515 200 565 q 226 447 200 472 q 308 408 251 422 l 426 379 q 572 310 525 358 q 618 189 618 263 q 544 44 618 99 q 344 -10 471 -10 m 256 789 l 151 789 l 317 1072 l 396 1072 l 561 789 l 457 789 l 357 989 l 256 789 z "},"ș":{"ha":689,"x_min":65,"x_max":618,"o":"m 344 -10 q 65 81 168 -10 l 103 164 q 217 101 158 121 q 349 81 276 81 q 469 108 428 81 q 510 186 510 135 q 482 252 510 228 q 390 292 454 276 l 272 319 q 137 389 185 339 q 89 508 89 439 q 122 616 89 569 q 215 689 156 663 q 357 715 275 715 q 496 692 431 715 q 606 624 561 668 l 568 542 q 466 603 518 583 q 357 624 414 624 q 241 594 282 624 q 200 515 200 565 q 226 447 200 472 q 308 408 251 422 l 426 379 q 572 310 525 358 q 618 189 618 263 q 544 44 618 99 q 344 -10 471 -10 m 411 -101 l 411 -182 q 397 -279 411 -235 q 339 -364 382 -324 l 288 -325 q 329 -262 319 -292 q 339 -199 339 -232 l 371 -217 l 274 -217 l 274 -101 l 411 -101 z "},"ṡ":{"ha":689,"x_min":65,"x_max":618,"o":"m 344 -10 q 65 81 168 -10 l 103 164 q 217 101 158 121 q 349 81 276 81 q 469 108 428 81 q 510 186 510 135 q 482 252 510 228 q 390 292 454 276 l 272 319 q 137 389 185 339 q 89 508 89 439 q 122 616 89 569 q 215 689 156 663 q 357 715 275 715 q 496 692 431 715 q 606 624 561 668 l 568 542 q 466 603 518 583 q 357 624 414 624 q 241 594 282 624 q 200 515 200 565 q 226 447 200 472 q 308 408 251 422 l 426 379 q 572 310 525 358 q 618 189 618 263 q 544 44 618 99 q 344 -10 471 -10 m 288 994 l 425 994 l 425 867 l 288 867 l 288 994 z "},"ṣ":{"ha":689,"x_min":65,"x_max":618,"o":"m 344 -10 q 65 81 168 -10 l 103 164 q 217 101 158 121 q 349 81 276 81 q 469 108 428 81 q 510 186 510 135 q 482 252 510 228 q 390 292 454 276 l 272 319 q 137 389 185 339 q 89 508 89 439 q 122 616 89 569 q 215 689 156 663 q 357 715 275 715 q 496 692 431 715 q 606 624 561 668 l 568 542 q 466 603 518 583 q 357 624 414 624 q 241 594 282 624 q 200 515 200 565 q 226 447 200 472 q 308 408 251 422 l 426 379 q 572 310 525 358 q 618 189 618 263 q 544 44 618 99 q 344 -10 471 -10 m 278 -132 l 407 -132 l 407 -256 l 278 -256 l 278 -132 z "},"ṩ":{"ha":689,"x_min":65,"x_max":618,"o":"m 344 -10 q 65 81 168 -10 l 103 164 q 217 101 158 121 q 349 81 276 81 q 469 108 428 81 q 510 186 510 135 q 482 252 510 228 q 390 292 454 276 l 272 319 q 137 389 185 339 q 89 508 89 439 q 122 616 89 569 q 215 689 156 663 q 357 715 275 715 q 496 692 431 715 q 606 624 561 668 l 568 542 q 466 603 518 583 q 357 624 414 624 q 241 594 282 624 q 200 515 200 565 q 226 447 200 472 q 308 408 251 422 l 426 379 q 572 310 525 358 q 618 189 618 263 q 544 44 618 99 q 344 -10 471 -10 m 278 -132 l 407 -132 l 407 -256 l 278 -256 l 278 -132 m 288 994 l 425 994 l 425 867 l 288 867 l 288 994 z "},"ß":{"ha":881,"x_min":108,"x_max":836,"o":"m 108 0 l 108 686 q 196 942 108 854 q 443 1029 283 1029 q 642 969 569 1029 q 714 800 714 908 q 692 684 714 738 q 615 585 669 631 q 465 504 560 540 l 465 525 q 679 452 597 497 q 799 348 761 407 q 836 217 836 289 q 804 97 836 147 q 713 18 772 46 q 574 -10 654 -10 q 428 14 497 -10 q 314 81 360 38 l 353 167 q 464 102 410 122 q 576 82 518 82 q 690 118 651 82 q 728 219 728 154 q 696 311 728 268 q 588 392 664 354 q 379 464 513 429 l 379 550 q 517 622 468 585 q 587 703 567 660 q 607 799 607 747 q 565 903 607 867 q 443 939 524 939 q 278 879 336 939 q 221 699 221 819 l 221 0 l 108 0 z "},"t":{"ha":486,"x_min":10,"x_max":458,"o":"m 10 610 l 10 699 l 458 699 l 458 610 l 10 610 m 456 100 l 456 4 q 409 -6 432 -3 q 358 -10 386 -10 q 203 46 261 -10 q 146 213 146 101 l 146 878 l 258 918 l 258 228 q 274 142 258 172 q 318 99 290 111 q 381 88 346 88 q 418 90 401 88 q 456 100 435 93 z "},"ŧ":{"ha":500,"x_min":17,"x_max":465,"o":"m 46 360 l 46 444 l 436 444 l 436 360 l 46 360 m 17 610 l 17 699 l 465 699 l 465 610 l 17 610 m 463 100 l 463 4 q 417 -6 440 -3 q 365 -10 393 -10 q 211 46 268 -10 q 154 213 154 101 l 154 878 l 265 918 l 265 228 q 282 142 265 172 q 326 99 299 111 q 388 88 353 88 q 425 90 408 88 q 463 100 442 93 z "},"ť":{"ha":486,"x_min":10,"x_max":458,"o":"m 10 610 l 10 699 l 458 699 l 458 610 l 10 610 m 456 100 l 456 4 q 409 -6 432 -3 q 358 -10 386 -10 q 203 46 261 -10 q 146 213 146 101 l 146 878 l 258 918 l 258 228 q 274 142 258 172 q 318 99 290 111 q 381 88 346 88 q 418 90 401 88 q 456 100 435 93 m 393 751 l 331 751 l 331 991 l 431 991 l 393 751 z "},"ţ":{"ha":486,"x_min":10,"x_max":472,"o":"m 10 610 l 10 699 l 458 699 l 458 610 l 10 610 m 456 100 l 456 4 q 409 -6 432 -3 q 358 -10 386 -10 q 203 46 261 -10 q 146 213 146 101 l 146 878 l 258 918 l 258 228 q 274 142 258 172 q 318 99 290 111 q 381 88 346 88 q 418 90 401 88 q 456 100 435 93 m 310 -271 q 247 -265 282 -271 q 186 -244 213 -258 l 204 -183 q 259 -199 233 -194 q 310 -203 285 -203 q 368 -190 349 -203 q 388 -154 388 -176 q 339 -117 388 -117 q 305 -120 321 -117 q 275 -129 289 -124 l 247 -107 l 263 28 l 342 28 l 331 -74 l 296 -71 q 331 -60 314 -64 q 365 -57 349 -57 q 439 -81 406 -57 q 472 -154 472 -104 q 430 -237 472 -204 q 310 -271 388 -271 z "},"ț":{"ha":486,"x_min":10,"x_max":458,"o":"m 10 610 l 10 699 l 458 699 l 458 610 l 10 610 m 456 100 l 456 4 q 409 -6 432 -3 q 358 -10 386 -10 q 203 46 261 -10 q 146 213 146 101 l 146 878 l 258 918 l 258 228 q 274 142 258 172 q 318 99 290 111 q 381 88 346 88 q 418 90 401 88 q 456 100 435 93 m 381 -101 l 381 -182 q 366 -279 381 -235 q 308 -364 351 -324 l 257 -325 q 299 -262 289 -292 q 308 -199 308 -232 l 340 -217 l 243 -217 l 243 -101 l 381 -101 z "},"ẗ":{"ha":486,"x_min":10,"x_max":458,"o":"m 10 610 l 10 699 l 458 699 l 458 610 l 10 610 m 456 100 l 456 4 q 409 -6 432 -3 q 358 -10 386 -10 q 203 46 261 -10 q 146 213 146 101 l 146 878 l 258 918 l 258 228 q 274 142 258 172 q 318 99 290 111 q 381 88 346 88 q 418 90 401 88 q 456 100 435 93 m 260 1163 l 385 1163 l 385 1043 l 260 1043 l 260 1163 m 19 1163 l 144 1163 l 144 1043 l 19 1043 l 19 1163 z "},"ṭ":{"ha":486,"x_min":10,"x_max":458,"o":"m 10 610 l 10 699 l 458 699 l 458 610 l 10 610 m 456 100 l 456 4 q 409 -6 432 -3 q 358 -10 386 -10 q 203 46 261 -10 q 146 213 146 101 l 146 878 l 258 918 l 258 228 q 274 142 258 172 q 318 99 290 111 q 381 88 346 88 q 418 90 401 88 q 456 100 435 93 m 247 -132 l 376 -132 l 376 -256 l 247 -256 l 247 -132 z "},"ṯ":{"ha":486,"x_min":10,"x_max":522,"o":"m 10 610 l 10 699 l 458 699 l 458 610 l 10 610 m 456 100 l 456 4 q 409 -6 432 -3 q 358 -10 386 -10 q 203 46 261 -10 q 146 213 146 101 l 146 878 l 258 918 l 258 228 q 274 142 258 172 q 318 99 290 111 q 381 88 346 88 q 418 90 401 88 q 456 100 435 93 m 101 -236 l 101 -153 l 522 -153 l 522 -236 l 101 -236 z "},"u":{"ha":801,"x_min":104,"x_max":693,"o":"m 356 -10 q 167 60 231 -10 q 104 265 104 129 l 104 699 l 217 699 l 217 268 q 256 129 217 174 q 374 85 294 85 q 524 144 467 85 q 581 304 581 204 l 581 699 l 693 699 l 693 0 l 583 0 l 583 151 l 600 160 q 506 33 572 76 q 356 -10 440 -10 z "},"ú":{"ha":801,"x_min":104,"x_max":693,"o":"m 356 -10 q 167 60 231 -10 q 104 265 104 129 l 104 699 l 217 699 l 217 268 q 256 129 217 174 q 374 85 294 85 q 524 144 467 85 q 581 304 581 204 l 581 699 l 693 699 l 693 0 l 583 0 l 583 151 l 600 160 q 506 33 572 76 q 356 -10 440 -10 m 440 789 l 361 789 l 500 1072 l 631 1072 l 440 789 z "},"ŭ":{"ha":801,"x_min":104,"x_max":693,"o":"m 356 -10 q 167 60 231 -10 q 104 265 104 129 l 104 699 l 217 699 l 217 268 q 256 129 217 174 q 374 85 294 85 q 524 144 467 85 q 581 304 581 204 l 581 699 l 693 699 l 693 0 l 583 0 l 583 151 l 600 160 q 506 33 572 76 q 356 -10 440 -10 m 401 831 q 308 849 353 831 q 226 906 263 867 q 169 1008 190 944 l 240 1039 q 314 942 274 969 q 401 914 354 914 q 488 942 449 914 q 561 1039 528 969 l 632 1008 q 576 906 613 944 q 494 849 540 867 q 401 831 449 831 z "},"û":{"ha":801,"x_min":104,"x_max":693,"o":"m 356 -10 q 167 60 231 -10 q 104 265 104 129 l 104 699 l 217 699 l 217 268 q 256 129 217 174 q 374 85 294 85 q 524 144 467 85 q 581 304 581 204 l 581 699 l 693 699 l 693 0 l 583 0 l 583 151 l 600 160 q 506 33 572 76 q 356 -10 440 -10 m 300 789 l 196 789 l 361 1072 l 440 1072 l 606 789 l 501 789 l 401 989 l 300 789 z "},"ȕ":{"ha":801,"x_min":104,"x_max":693,"o":"m 356 -10 q 167 60 231 -10 q 104 265 104 129 l 104 699 l 217 699 l 217 268 q 256 129 217 174 q 374 85 294 85 q 524 144 467 85 q 581 304 581 204 l 581 699 l 693 699 l 693 0 l 583 0 l 583 151 l 600 160 q 506 33 572 76 q 356 -10 440 -10 m 457 789 l 346 1072 l 450 1072 l 514 789 l 457 789 m 288 789 l 176 1072 l 282 1072 l 344 789 l 288 789 z "},"ü":{"ha":801,"x_min":104,"x_max":693,"o":"m 356 -10 q 167 60 231 -10 q 104 265 104 129 l 104 699 l 217 699 l 217 268 q 256 129 217 174 q 374 85 294 85 q 524 144 467 85 q 581 304 581 204 l 581 699 l 693 699 l 693 0 l 583 0 l 583 151 l 600 160 q 506 33 572 76 q 356 -10 440 -10 m 458 990 l 583 990 l 583 871 l 458 871 l 458 990 m 218 990 l 343 990 l 343 871 l 218 871 l 218 990 z "}}}
